<svg width="236" height="72" viewBox="0 0 236 72" fill="none" xmlns="http://www.w3.org/2000/svg">
<g clip-path="url(#clip0_185_366)">
<path d="M29.6967 32.9768H13.8061L11.4067 40.6144C10.6201 42.2055 10.2267 43.8365 10.2267 44.632C10.2267 45.4276 10.6201 46.2232 11.0134 46.6608C11.8001 47.0586 13.0194 47.4564 14.9861 47.8541V49.0475H2.24206V47.8541C3.81539 47.4564 5.03471 47.0586 5.42805 46.263C6.60805 45.0696 7.82738 43.0409 9.00738 39.421L22.9314 0H24.1114L38.0354 39.8188C38.8221 43.0409 40.0414 45.0298 40.828 46.263C42.008 47.0586 43.2274 47.4564 44.8007 47.8541V49.0475H28.9101V47.8541C30.4834 47.4564 31.7027 47.4564 32.0961 46.6608C32.8827 46.263 32.8827 45.4674 32.8827 44.632C32.8827 43.8365 32.4894 42.2055 31.7027 39.8188L29.6967 32.9768ZM28.5167 30.5503L21.7514 11.2575L14.9861 30.5503H28.5167Z" fill="#0B0B0B"/>
<path d="M63.9167 12.8884L73.4747 39.421L82.6001 12.8884H92.5514V14.0818C91.3714 14.0818 90.5454 14.4796 90.1521 14.4796C89.3654 14.8773 88.9721 15.2751 88.5787 16.0707C88.1854 16.4685 88.1854 17.2641 88.1854 18.0994C88.1854 18.9348 88.1854 20.1282 88.1854 20.9238V41.0519C88.1854 41.8475 88.1854 42.6431 88.1854 43.4785C88.1854 44.3138 88.1854 45.0696 88.5787 45.5072C88.9721 46.3028 89.3654 46.7006 89.7587 47.0983C90.5454 47.4961 91.3321 47.4961 92.5514 47.4961V49.0873H78.6274V47.4961C79.8074 47.4961 80.6334 47.4961 81.0267 47.0983C81.4201 46.7006 81.8134 45.905 82.2067 45.5072C82.6001 44.7116 82.6001 43.916 82.6001 43.0807C82.6001 42.2453 82.6001 41.0519 82.6001 40.2564V18.1392L72.2554 49.1271H71.0754L61.1241 19.7702H60.7307V41.4895C60.7307 43.0807 60.7307 43.916 61.1241 44.7116C61.1241 45.5072 61.5174 46.3028 61.9107 46.7403C62.3041 47.1779 62.6974 47.1381 63.4841 47.5359C64.2707 47.5359 65.0574 47.5359 65.8834 47.5359V49.1271H54.3587V47.5359C55.5387 47.5359 56.3647 47.5359 57.1514 47.1381C57.5447 46.7403 57.938 46.3425 58.3314 45.9448C58.7247 45.1492 58.7247 44.7514 58.7247 43.916C58.7247 43.0807 58.7247 42.7227 58.7247 41.8873V22.5945C58.7247 21.4011 58.7247 20.168 58.7247 18.9746C58.7247 17.7812 58.7247 16.9459 58.3314 16.1503C57.938 15.7525 57.5447 14.9569 57.1514 14.5591C56.3647 14.5591 55.5781 14.1613 54.3587 14.1613V12.968H63.9167V12.8884ZM103.289 49.0873V47.4961C103.683 47.4961 104.076 47.4961 104.469 47.4961C104.863 47.4961 105.256 47.0983 105.649 46.7006C106.043 46.3028 106.436 45.5072 106.829 44.6718C107.223 43.8762 108.009 42.6431 108.403 41.0519L118.393 11.6552H119.18L130.311 43.0409C130.705 44.2343 131.098 45.0696 131.491 45.4674C131.885 46.263 132.278 46.6608 132.671 47.0586C133.065 47.0586 133.458 47.4564 133.851 47.4564C134.245 47.4564 134.638 47.4564 135.031 47.4564V49.0475H122.72V47.4564C122.72 47.4564 123.113 47.4564 123.507 47.4564C123.507 47.4564 123.9 47.4564 124.293 47.4564C124.687 47.0586 124.687 47.0586 125.08 46.6608C125.08 46.6608 125.473 46.263 125.473 45.8652C125.473 45.4674 125.473 44.6718 125.08 44.274C125.08 43.8762 124.687 43.0807 124.687 42.6829L122.681 37.8696H111.943L110.369 42.6829C110.369 43.0807 109.976 43.4785 109.976 43.8762C109.976 44.274 109.976 44.6718 109.976 45.0696C109.976 45.4674 109.976 45.8652 110.369 46.263C110.369 46.6608 110.763 47.0586 111.156 47.0586C111.156 47.0586 111.549 47.4564 111.943 47.4564C112.336 47.4564 112.336 47.4564 112.729 47.4564V49.0475H103.289V49.0873ZM112.847 35.4033H122.012L117.213 22.1171L112.847 35.4033ZM166.537 12.8884L166.931 21.3215H165.751C165.751 20.1282 165.357 18.895 165.357 18.0994C164.964 17.3039 164.571 16.9061 164.177 16.0707C163.391 15.6729 162.997 15.6729 162.604 15.2751C161.817 15.2751 161.031 15.2751 160.598 15.2751H155.839V41.41C155.839 42.2055 155.839 43.0011 156.232 43.8365C156.232 44.632 156.232 45.4276 156.625 45.8652C157.019 46.3028 157.412 46.6608 158.199 47.0586C158.592 47.4564 159.379 47.4564 160.598 47.4564V49.0475H145.887V47.4564C147.067 47.4564 147.893 47.4564 148.68 47.0586C149.073 46.6608 149.467 46.263 149.86 45.8652C150.253 45.4674 150.253 44.6718 150.253 43.8365C150.647 43.0409 150.647 42.2453 150.647 41.41V15.2751H146.281C145.101 15.2751 144.275 15.2751 143.488 15.6729C142.701 15.6729 142.308 16.0707 141.915 16.8663C141.521 17.2641 141.128 18.0597 141.128 18.895C140.735 19.6906 140.735 20.4862 140.735 21.3215H139.555L139.948 12.8884H166.537ZM193.166 49.0873H178.849V47.4961C180.029 47.4961 180.855 47.4961 181.248 47.0983C182.035 47.0983 182.428 46.7006 182.428 45.905C182.821 45.5072 183.215 45.1094 183.215 44.3138C183.215 43.5182 183.215 42.7227 183.215 41.4895V20.168C183.215 19.3724 183.215 18.9746 183.215 18.1392C183.215 17.3039 183.215 16.5481 182.821 16.1105C182.428 15.3149 182.035 14.9171 181.641 14.5193C180.855 14.5193 180.068 14.1215 178.849 14.1215V12.9282H193.166V14.1215C191.986 14.1215 191.16 14.5193 190.373 14.5193C189.98 14.9171 189.587 15.3149 189.193 16.1105C188.8 16.5083 188.8 17.3039 188.8 18.1392C188.8 18.9746 188.8 19.3326 188.8 20.168V41.4895C188.8 42.6829 188.8 43.5182 188.8 44.3138C188.8 45.1094 189.193 45.5072 189.193 45.905C189.587 46.7006 189.98 47.0983 190.767 47.0983C191.16 47.4961 191.947 47.4961 193.166 47.4961V49.0873ZM234.938 24.5436H233.758C233.758 24.1459 233.365 23.7481 233.365 22.9525C233.365 22.5547 232.971 22.1569 232.578 21.3613C232.578 20.9635 232.185 20.5657 231.791 19.7702C231.791 19.3724 231.398 18.9746 231.005 18.179C230.218 17.7812 229.825 16.9856 228.999 16.5878C228.212 16.1901 227.819 15.3945 226.993 15.3945C226.206 14.9967 225.419 14.5989 224.593 14.2011C223.807 14.2011 223.02 14.2011 222.194 14.2011C221.014 14.2011 219.401 14.5989 218.221 15.3945C217.041 16.1901 215.822 16.9856 215.035 18.6166C213.855 20.2077 213.029 21.8387 212.636 23.8276C212.243 25.8166 211.849 28.2431 211.849 30.6696C211.849 33.0961 212.243 35.0851 212.636 37.1138C212.636 38.705 213.423 40.3359 213.816 41.5293C214.603 42.7227 214.996 43.558 215.822 44.3536C216.609 45.1492 217.395 45.9448 218.221 46.3823C219.047 46.8199 219.795 47.1779 220.621 47.1779C221.407 47.5757 222.194 47.5757 223.02 47.5757C224.2 47.5757 225.419 47.5757 226.599 46.7801C227.779 46.3823 229.392 45.5867 230.572 44.3536C230.965 43.9558 231.359 43.1602 231.752 42.7624C232.145 42.3646 232.145 41.9669 232.539 41.5691C232.932 40.7735 233.325 40.3757 233.325 39.9779C233.719 39.1823 233.719 38.7845 234.112 37.9492L235.292 38.7448C234.899 39.1425 234.899 39.9381 234.505 40.3359C234.112 41.1315 233.719 41.9271 233.325 42.7624C232.932 43.558 232.539 44.3536 231.752 45.189C230.965 46.3823 230.179 46.7801 229.353 47.6155C228.173 48.4111 226.953 48.8088 225.773 49.2066C224.593 50.0022 223.374 50.0022 221.801 50.0022C219.401 50.0022 217.828 49.6044 215.822 48.8088C213.816 47.6155 212.243 46.3823 210.669 44.7912C209.489 43.2 208.27 41.1713 207.09 39.1425C206.303 36.716 205.91 34.3293 205.91 31.505C205.91 28.6807 206.303 26.2939 207.09 23.8674C207.877 21.4409 209.096 19.4519 210.669 17.4232C211.849 15.832 213.855 14.5989 215.429 13.4055C217.435 12.6099 219.401 11.8144 221.801 11.8144C223.374 11.8144 224.593 12.2122 225.773 12.6099C226.56 13.0077 227.347 13.4055 228.173 13.8033C228.566 13.8033 228.959 14.2011 229.353 14.2011C229.746 14.5989 230.139 14.5989 230.139 14.5989C230.533 14.5989 230.533 14.5989 230.533 14.5989L230.926 14.9967C230.926 14.9967 230.926 14.5989 231.319 14.5989C231.319 14.5989 231.713 14.5989 231.713 14.2011C232.106 14.2011 232.106 13.8033 232.106 13.4055C232.499 13.0077 232.499 12.6099 232.499 11.8144H233.679L234.938 24.5436Z" fill="#0B0B0B"/>
<path d="M0.668724 59.947H2.67471V71.6022H0.668724V59.947ZM24.1507 59.947H25.3307L28.1234 67.9823C28.1234 67.5845 28.1234 67.5845 28.1234 67.1867C28.1234 67.1867 28.1234 66.7889 28.1234 66.3912C28.1234 66.3912 28.1234 65.9934 28.1234 65.5956C28.1234 65.1978 28.1234 64.8 28.1234 64.4022V59.947H29.6967V71.6022H28.1234L25.3307 64.3624V64.7602C25.3307 65.158 25.3307 65.158 25.3307 65.5558C25.7241 65.9536 25.7241 66.3514 25.7241 66.7492C25.7241 67.147 25.7241 67.5448 25.7241 68.3403V71.5624H24.1507V59.947ZM51.1727 59.947H52.7461C53.1394 59.947 53.5327 59.947 53.9261 60.3448C53.9261 60.3448 54.3194 60.3448 54.7127 60.3448C54.7127 60.3448 55.1061 60.3448 55.4994 60.7425C55.4994 60.7425 55.8927 61.1403 55.8927 61.5381C56.2861 61.5381 56.2861 61.9359 56.6794 62.3337C56.6794 63.1293 56.6794 63.5271 56.6794 64.3624V67.5845C56.6794 68.3801 56.6794 68.7779 56.6794 69.1757C56.2861 69.9713 56.2861 70.3691 55.8927 70.3691C55.8927 70.7669 55.4994 71.1646 55.4994 71.1646C55.1061 71.1646 54.7127 71.5624 54.7127 71.5624C54.3194 71.5624 53.9261 71.5624 53.9261 71.5624C53.5327 71.5624 53.1394 71.5624 52.7461 71.5624H51.1727V59.947ZM53.1787 70.4088C53.5721 70.4088 53.9654 70.4088 53.9654 70.4088C54.3587 70.4088 54.3587 70.0111 54.7521 70.0111C54.7521 69.6133 54.7521 69.6133 54.7521 69.2155C54.7521 68.8177 54.7521 68.4199 54.7521 68.0221V64.4022C54.7521 63.6066 54.7521 63.2088 54.7521 62.8111C54.7521 62.4133 54.7521 62.4133 54.7521 62.0155C54.3587 62.0155 54.3587 61.6177 53.9654 61.6177C53.9654 61.6177 53.5721 61.6177 53.1787 61.6177H52.7854V70.4088H53.1787ZM77.8407 59.947H79.4141V68.7779C79.4141 69.1757 79.4141 69.1757 79.4141 69.5735C79.4141 69.9713 79.8074 69.9713 79.8074 69.9713C79.8074 70.3691 79.8074 70.3691 80.2007 70.3691C80.2007 70.3691 80.2007 70.3691 80.5941 70.3691C80.5941 70.3691 80.5941 70.3691 80.9874 70.3691C80.9874 70.3691 80.9874 70.3691 81.3807 69.9713C81.3807 69.9713 81.3807 69.9713 81.3807 69.5735C81.3807 69.1757 81.3807 69.1757 81.3807 68.7779V59.947H83.3867V68.3801C83.3867 68.7779 82.9934 69.1757 82.9934 69.5735C82.9934 69.9713 82.9934 70.3691 82.6001 70.7669C82.6001 70.7669 82.6001 71.1646 82.2067 71.1646C82.2067 71.5624 81.8134 71.5624 81.8134 71.5624C81.4201 71.5624 81.4201 71.9602 81.0267 71.9602H80.6334C80.2401 71.9602 80.2401 71.9602 79.8467 71.9602L79.4534 71.5624C79.0601 71.5624 79.0601 71.5624 78.6667 71.1646L78.2734 70.7669C78.2734 70.3691 77.8801 69.9713 77.8801 69.5735C77.8801 69.1757 77.8801 68.7779 77.8801 68.3801V59.947H77.8407ZM104.076 69.5735C104.076 69.1757 104.076 68.7779 104.076 68.7779C104.076 68.3801 104.469 68.3801 104.469 67.9823H105.649V68.7779C105.649 68.7779 105.649 69.1757 105.649 69.5735L106.043 69.9713C106.043 70.3691 106.043 70.3691 106.436 70.3691C106.436 70.3691 106.436 70.3691 106.829 70.3691C107.223 70.3691 107.223 70.3691 107.616 70.3691C107.616 69.9713 108.009 69.9713 108.009 69.5735C108.009 69.1757 108.009 69.1757 107.616 68.7779C107.616 68.7779 107.616 68.7779 107.616 68.3801C107.616 68.3801 107.616 68.3801 107.616 67.9823C107.223 67.9823 107.223 67.5845 107.223 67.5845L105.217 65.158C104.823 64.7602 104.823 64.3624 104.43 63.9646C104.43 63.5669 104.037 63.1691 104.037 62.7713C104.037 62.3735 104.43 61.9757 104.43 61.5779C104.43 61.1801 104.823 61.1801 104.823 60.7823C105.217 60.3845 105.217 60.3845 105.61 60.3845C106.003 59.9867 106.397 59.9867 106.79 59.9867C107.183 59.9867 107.577 59.9867 107.97 60.3845C108.363 60.3845 108.757 60.7823 108.757 60.7823C109.15 61.1801 109.15 61.1801 109.15 61.5779C109.543 61.9757 109.543 62.3735 109.543 62.3735C109.543 62.7713 109.543 63.1691 109.543 63.1691C109.15 63.5669 109.15 63.5669 109.15 63.9646H107.97V63.1691C107.97 62.7713 107.97 62.3735 107.577 61.9757C107.577 61.5779 107.183 61.5779 106.79 61.5779C106.397 61.5779 106.397 61.5779 106.003 61.5779C106.003 61.9757 106.003 61.9757 106.003 62.3735C106.003 62.7713 106.003 62.7713 106.003 62.7713C106.003 63.1691 106.003 63.1691 106.003 63.1691V63.5669C106.397 63.5669 106.397 63.9646 106.397 63.9646L108.403 66.3912C108.796 66.7889 109.189 67.1867 109.189 67.5845C109.583 68.3801 109.583 68.7779 109.583 69.1757C109.583 69.5735 109.583 69.9713 109.189 70.3691C109.189 70.7669 109.189 70.7669 108.796 71.1646C108.403 71.1646 108.403 71.5624 108.009 71.5624C107.616 71.9602 107.223 71.9602 106.829 71.9602C106.436 71.9602 106.043 71.9602 105.649 71.5624C105.256 71.5624 104.863 71.1646 104.863 71.1646C104.469 70.7669 104.469 70.7669 104.469 70.3691C104.076 69.9713 104.076 69.5735 104.076 69.5735ZM131.531 61.5381H129.957V59.947H135.11V61.5381H133.537V71.6022H131.531V61.5381ZM155.799 59.947H157.805C158.199 59.947 158.199 59.947 158.592 60.3448C158.985 60.3448 158.985 60.3448 159.379 60.3448C159.379 60.3448 159.772 60.3448 160.165 60.7425C160.165 60.7425 160.559 60.7425 160.559 61.1403C160.952 61.5381 160.952 61.5381 160.952 61.9359C161.345 62.3337 161.345 62.7315 161.345 63.5271C161.345 64.7204 161.345 65.1182 160.952 65.9536C160.559 66.3514 160.165 66.7492 159.772 67.147L161.778 71.5624H159.772L158.199 67.5448H157.805V71.6022H155.799V59.947ZM157.766 65.9536C158.159 65.9536 158.553 65.9536 158.553 65.9536C158.946 65.9536 158.946 65.9536 159.339 65.5558V65.158C159.339 64.7602 159.339 64.3624 159.339 63.9646V63.1691C159.339 62.7713 159.339 62.7713 159.339 62.3735V61.9757C158.946 61.5779 158.946 61.5779 158.553 61.5779C158.553 61.5779 158.159 61.5779 157.766 61.5779V65.9536ZM182.428 59.947H184.001V71.6022H182.428V59.947ZM205.517 59.947H209.883V61.5381H207.483V65.158H209.489V66.3514H207.483V70.4088H209.883V71.6022H205.517V59.947ZM230.179 69.5735C230.179 69.1757 230.179 68.7779 230.572 68.7779C230.572 68.3801 230.572 68.3801 230.572 67.9823H231.752V68.7779C231.752 68.7779 231.752 69.1757 231.752 69.5735L232.145 69.9713C232.145 70.3691 232.145 70.3691 232.539 70.3691H232.932C233.325 70.3691 233.719 70.3691 233.719 70.3691C233.719 69.9713 234.112 69.9713 234.112 69.5735C234.112 69.1757 234.112 69.1757 234.112 68.7779C234.112 68.7779 233.719 68.7779 233.719 68.3801C233.719 68.3801 233.719 68.3801 233.719 67.9823C233.325 67.9823 233.325 67.5845 233.325 67.5845L231.319 65.158C230.926 64.7602 230.926 64.3624 230.533 63.9646C230.533 63.5669 230.533 63.1691 230.533 62.7713C230.533 62.3735 230.533 61.9757 230.533 61.5779C230.533 61.1801 230.926 61.1801 230.926 60.7823C231.319 60.3845 231.713 60.3845 231.713 60.3845C232.106 59.9867 232.499 59.9867 232.893 59.9867C233.286 59.9867 234.073 59.9867 234.073 60.3845C234.466 60.3845 234.859 60.7823 234.859 60.7823C235.253 61.1801 235.253 61.1801 235.646 61.5779C235.646 61.9757 235.646 62.3735 235.646 62.3735C235.646 62.7713 235.646 63.1691 235.646 63.1691C235.646 63.5669 235.253 63.5669 235.253 63.9646H234.073V63.1691C234.073 62.7713 234.073 62.3735 233.679 61.9757C233.679 61.5779 233.286 61.5779 232.893 61.5779C232.499 61.5779 232.499 61.5779 232.106 61.5779C232.106 61.9757 232.106 61.9757 232.106 62.3735C232.106 62.7713 232.106 62.7713 232.106 62.7713C232.106 63.1691 232.106 63.1691 232.106 63.1691V63.5669C232.499 63.5669 232.499 63.9646 232.499 63.9646L234.505 66.3912C234.899 66.7889 235.292 67.1867 235.292 67.5845C235.685 68.3801 235.685 68.7779 235.685 69.1757C235.685 69.5735 235.685 69.9713 235.685 70.3691C235.292 70.7669 235.292 70.7669 234.899 71.1646C234.899 71.1646 234.505 71.5624 234.112 71.5624C233.719 71.9602 233.325 71.9602 232.932 71.9602C232.539 71.9602 232.145 71.9602 231.752 71.5624C231.359 71.5624 230.965 71.1646 230.965 71.1646C230.572 70.7669 230.572 70.7669 230.572 70.3691C230.572 69.9713 230.179 69.5735 230.179 69.5735Z" fill="#0B0B0B"/>
<path d="M0.275391 53.5028H235.725V55.0939H0.275391V53.5028Z" fill="#0B0B0B"/>
</g>
<defs>
<clipPath id="clip0_185_366">
<rect width="236" height="72" fill="white"/>
</clipPath>
</defs>
</svg>
