<svg width="100" height="43" viewBox="0 0 100 43" fill="none" xmlns="http://www.w3.org/2000/svg">
<g clip-path="url(#clip0_11_749)">
<path d="M18.8996 5.59443C20.0769 4.12162 20.8759 2.14409 20.6651 0.123291C18.9417 0.209 16.8385 1.26047 15.6209 2.73442C14.5276 3.99664 13.56 6.05696 13.8123 7.99306C15.7469 8.16089 17.6798 7.0259 18.8996 5.59443Z" fill="black"/>
<path d="M20.6432 8.37107C17.8336 8.20371 15.4447 9.9659 14.103 9.9659C12.7605 9.9659 10.7059 8.45542 8.48367 8.49616C5.5913 8.53863 2.90749 10.1742 1.43973 12.7756C-1.57921 17.9797 0.64303 25.6991 3.5788 29.9375C5.00447 32.0344 6.72263 34.3431 8.9866 34.2604C11.1257 34.1764 11.9641 32.875 14.5642 32.875C17.1624 32.875 17.9177 34.2604 20.182 34.2184C22.5301 34.1764 23.9982 32.1204 25.4238 30.0215C27.0593 27.6311 27.7289 25.3231 27.771 25.1964C27.7288 25.1544 23.243 23.4333 23.2014 18.2725C23.1591 13.9513 26.7233 11.8959 26.8911 11.7684C24.8783 8.79113 21.7334 8.45542 20.6432 8.37107Z" fill="black"/>
<path d="M45.107 2.52296C51.2136 2.52296 55.4656 6.73289 55.4656 12.8622C55.4656 19.0135 51.1259 23.2453 44.9536 23.2453H38.1926V33.999H33.3076V2.52295L45.107 2.52296ZM38.1926 19.1443H43.7976C48.051 19.1443 50.4713 16.8542 50.4713 12.8841C50.4713 8.91443 48.051 6.64578 43.8196 6.64578H38.1926V19.1443Z" fill="black"/>
<path d="M56.7419 27.4772C56.7419 23.4633 59.8173 20.9986 65.2703 20.6932L71.5509 20.3225V18.5558C71.5509 16.0036 69.8279 14.4767 66.9496 14.4767C64.2226 14.4767 62.5213 15.7852 62.1073 17.8359H57.6583C57.9199 13.6912 61.4529 10.6375 67.1236 10.6375C72.6849 10.6375 76.2399 13.5822 76.2399 18.1847V33.9991H71.7249V30.2254H71.6166C70.2863 32.7777 67.3853 34.3915 64.3756 34.3915C59.8829 34.3915 56.7419 31.5996 56.7419 27.4772ZM71.5509 25.405V23.5946L65.9019 23.9434C63.0886 24.1399 61.4966 25.3832 61.4966 27.3463C61.4966 29.3528 63.1539 30.6618 65.6839 30.6618C68.9773 30.6618 71.5509 28.3931 71.5509 25.405Z" fill="black"/>
<path d="M80.5023 42.441V38.6235C80.8507 38.7108 81.6357 38.7108 82.0283 38.7108C84.2093 38.7108 85.387 37.7947 86.1067 35.439C86.1067 35.3954 86.5213 34.0428 86.5213 34.0212L78.234 11.052H83.3367L89.1387 29.7241H89.2253L95.0273 11.052H100L91.4063 35.1987C89.4443 40.7614 87.176 42.55 82.4213 42.55C82.0283 42.55 80.8507 42.506 80.5023 42.441Z" fill="black"/>
</g>
<defs>
<clipPath id="clip0_11_749">
<rect width="100" height="42.6727" fill="white"/>
</clipPath>
</defs>
</svg>
