<svg width="100" height="30" viewBox="0 0 100 30" fill="none" xmlns="http://www.w3.org/2000/svg">
<g clip-path="url(#clip0_11_828)">
<path fill-rule="evenodd" clip-rule="evenodd" d="M49.0676 10.5174C48.2195 10.5174 47.5345 11.2028 47.5345 12.0187V23.3443C47.5345 24.1929 48.2195 24.8783 49.0676 24.8783C49.9157 24.8783 50.6007 24.1929 50.6007 23.3443V12.0187C50.6007 11.2028 49.9157 10.5174 49.0676 10.5174ZM49.0675 4.87102C48.1216 4.87102 47.3388 5.65434 47.3388 6.60086C47.3388 7.54737 48.1216 8.36335 49.0675 8.36335C50.0135 8.36335 50.7964 7.58001 50.7964 6.60086C50.7964 5.65434 50.0135 4.87102 49.0675 4.87102ZM64.0074 12.0188C64.0074 11.0722 63.2571 10.7132 62.5721 10.7132H54.9717C54.2215 10.7132 53.6343 11.3007 53.6343 12.0188C53.6343 12.7694 54.2215 13.357 54.9717 13.357H59.9625L53.5039 22.3652C53.3081 22.6263 53.2103 22.9853 53.2103 23.279C53.2103 24.2256 53.9606 24.7478 54.613 24.7478H62.67C63.4202 24.7478 64.0074 24.1603 64.0074 23.4096C64.0074 22.6589 63.4202 22.0714 62.67 22.0714H57.2551L63.5833 13.259C63.9095 12.8021 64.0074 12.4104 64.0074 12.0188ZM41.6303 19.134C41.6303 20.9944 40.8148 22.1368 38.9555 22.1368C37.0962 22.1368 36.3134 20.9944 36.3134 19.134V13.357H39.086C41.3367 13.357 41.6303 14.5973 41.6303 15.9681V19.134ZM44.6966 15.9028C44.6966 12.7369 43.033 10.6807 39.1512 10.6807H36.346V6.40503C36.346 5.55643 35.661 4.87102 34.8455 4.87102C33.9974 4.87102 33.3124 5.55643 33.3124 6.40503V19.134C33.3124 22.3 35.0085 24.8784 39.0207 24.8784C43.0003 24.8784 44.7292 22.2674 44.7292 19.134V15.9681V15.9028H44.6966ZM75.9787 10.5174C75.1307 10.5174 74.4456 11.2028 74.4456 12.0513V19.134C74.4456 20.9943 73.6301 22.1366 71.7708 22.1366C69.9115 22.1366 69.1286 20.9943 69.1286 19.134V12.0513C69.1286 11.2028 68.4436 10.5174 67.6281 10.5174C66.78 10.5174 66.095 11.2028 66.095 12.0513V19.134C66.095 22.2998 67.7912 24.8783 71.8034 24.8783C75.783 24.8783 77.5118 22.2672 77.5118 19.134V12.0513C77.4793 11.2028 76.7942 10.5174 75.9787 10.5174ZM99.2361 16.2945C99.2361 13.1286 97.7689 10.5501 93.7893 10.5501C91.9951 10.5501 90.723 11.0724 89.8418 11.9536C88.9615 11.105 87.6893 10.5501 85.8951 10.5501C81.9154 10.5501 80.4475 13.1612 80.4475 16.2945V23.3771C80.4475 24.2257 81.1325 24.9111 81.948 24.9111C82.7959 24.9111 83.4811 24.2257 83.4811 23.3771V16.2945C83.4811 14.4342 84.068 13.2918 85.8951 13.2918C87.7541 13.2918 88.309 14.4342 88.309 16.2945V23.3771C88.309 24.2257 88.9943 24.9111 89.809 24.9111C90.6574 24.9111 91.3426 24.2257 91.3426 23.3771V16.2945C91.3426 14.4342 91.9295 13.2918 93.7566 13.2918C95.6156 13.2918 96.1705 14.4342 96.1705 16.2945V23.3771C96.1705 24.2257 96.8549 24.9111 97.6705 24.9111C98.5189 24.9111 99.2041 24.2257 99.2041 23.3771L99.2361 16.2945ZM5.42268 10.55C6.49913 11.3334 7.99962 11.1049 8.78246 10.0278L11.5878 6.14384C12.3707 5.06677 12.1423 3.56541 11.0659 2.78208C9.98943 1.99876 8.48893 2.22723 7.70605 3.3043L4.86815 7.18828C4.1179 8.26535 4.34624 9.76674 5.42268 10.55ZM18.2748 5.06677C17.1983 4.28345 15.6978 4.51192 14.9149 5.58899L3.62857 21.1249C2.8457 22.202 3.07403 23.7034 4.15048 24.4867C5.22692 25.27 6.72742 25.0416 7.51029 23.9645L18.7966 8.42854C19.6121 7.35148 19.3511 5.8501 18.2748 5.06677ZM4.34623 3.82654C5.1291 2.74947 4.90075 1.24809 3.82431 0.464772C2.74787 -0.318552 1.24737 -0.0900825 0.464502 0.986989C-0.318367 2.06406 -0.09003 3.56543 0.986418 4.34875C2.06286 5.13208 3.56336 4.90361 4.34623 3.82654ZM21.4715 25.1721C20.3951 24.3888 18.8946 24.6173 18.1117 25.6943C17.3289 26.7714 17.5571 28.2728 18.6336 29.0561C19.7101 29.8395 21.2106 29.6109 21.9934 28.5339C22.7763 27.4568 22.548 25.9554 21.4715 25.1721ZM17.0679 19.0034C15.9915 18.2201 14.491 18.4486 13.7081 19.5257L10.8702 23.4096C10.0873 24.4867 10.3157 25.988 11.392 26.7714C12.4685 27.5547 13.969 27.3262 14.7519 26.2491L17.5898 22.3652C18.3727 21.2882 18.1443 19.7868 17.0679 19.0034Z" fill="#05C0C7"/>
</g>
<defs>
<clipPath id="clip0_11_828">
<rect width="100" height="29.5209" fill="white"/>
</clipPath>
</defs>
</svg>
