<svg width="148" height="148" viewBox="0 0 148 148" fill="none" xmlns="http://www.w3.org/2000/svg">
<g clip-path="url(#clip0_11_895)">
<mask id="path-1-inside-1_11_895" fill="white">
<path d="M70.0254 0H78.1191L82.3105 0.433594L85.5625 0.867188L88.7422 1.44531L91.6328 2.0957L94.3066 2.81836L97.0527 3.68555L99.1484 4.4082L101.533 5.34766L103.701 6.28711L105.725 7.22656L107.459 8.09375L109.049 8.96094L111.072 10.1172L112.59 11.0566L113.963 11.9238L114.902 12.5742L116.348 13.5859L117.721 14.5977L119.021 15.6094L120.033 16.4043L121.117 17.3438L121.912 17.9941L122.852 18.8613L123.574 19.5117L124.514 20.3789L127.404 23.2695L127.91 23.8477L128.777 24.7871L129.428 25.582L130.15 26.377L130.945 27.3887L131.668 28.2559L133.619 30.8574L134.486 32.0859L136.148 34.6152L137.16 36.2773L138.172 38.0117L139.184 39.8906L139.906 41.2637L141.135 43.793L142.219 46.3223L143.014 48.3457L143.809 50.5137L144.676 53.1152L145.471 55.9336L146.121 58.5352L146.844 62.1484L147.277 64.8945L147.711 68.6523L148 71.9766V76.2402L147.566 77.252L146.988 78.0469L146.338 78.5527L145.543 78.9141L144.893 79.0586L141.713 79.1309H81.6602V79.709L81.3711 81.2266L80.9375 82.3828L80.3594 83.3945L79.7812 84.1172L79.1309 84.8398L78.1191 85.5625L77.0352 86.1406L75.9512 86.502L74.7227 86.7188H73.0605L71.9766 86.502L71.1094 86.2129L69.9531 85.6348L69.0859 84.9844L68.2188 84.1895L67.7129 83.6836L67.207 83.1055L66.4121 82.2383L65.9062 81.6602L65.1836 80.8652L64.5332 80.0703L63.8105 79.2031L63.5938 79.1309L2.89062 79.0586L2.02344 78.7695L1.37305 78.3359L0.867188 77.9023L0.361328 77.1797L0 76.2402V69.8809L0.505859 64.9668L1.01172 61.498L1.73438 57.8848L2.38477 55.2109L3.10742 52.6094L4.11914 49.502L5.05859 46.9727L5.92578 44.877L6.79297 42.9258L7.94922 40.541L9.0332 38.4453L10.0449 36.7109L10.8398 35.3379L11.8516 33.748L12.5742 32.6641L13.3691 31.5078L14.0918 30.4961L15.1035 29.123L15.8984 28.1113L16.8379 26.9551L17.6328 26.0156L18.2832 25.2207L19.3672 24.0645L19.873 23.4863L21.0293 22.2578L22.8359 20.4512L23.4141 19.9453L23.9199 19.4395L24.498 18.9336L25.3652 18.1387L26.1602 17.4883L27.1719 16.6211L28.1836 15.8262L29.123 15.1035L30.4961 14.0918L31.7969 13.1523L33.3145 12.1406L34.543 11.3457L36.0605 10.4062L37.9395 9.32227L39.8184 8.31055L42.709 6.86523L45.6719 5.56445L48.4902 4.48047L50.5137 3.75781L52.8262 3.03516L55.7168 2.24023L58.4629 1.58984L61.498 1.01172L64.9668 0.505859L69.0859 0.0722656L70.0254 0Z"/>
</mask>
<path d="M70.0254 0H78.1191L82.3105 0.433594L85.5625 0.867188L88.7422 1.44531L91.6328 2.0957L94.3066 2.81836L97.0527 3.68555L99.1484 4.4082L101.533 5.34766L103.701 6.28711L105.725 7.22656L107.459 8.09375L109.049 8.96094L111.072 10.1172L112.59 11.0566L113.963 11.9238L114.902 12.5742L116.348 13.5859L117.721 14.5977L119.021 15.6094L120.033 16.4043L121.117 17.3438L121.912 17.9941L122.852 18.8613L123.574 19.5117L124.514 20.3789L127.404 23.2695L127.91 23.8477L128.777 24.7871L129.428 25.582L130.15 26.377L130.945 27.3887L131.668 28.2559L133.619 30.8574L134.486 32.0859L136.148 34.6152L137.16 36.2773L138.172 38.0117L139.184 39.8906L139.906 41.2637L141.135 43.793L142.219 46.3223L143.014 48.3457L143.809 50.5137L144.676 53.1152L145.471 55.9336L146.121 58.5352L146.844 62.1484L147.277 64.8945L147.711 68.6523L148 71.9766V76.2402L147.566 77.252L146.988 78.0469L146.338 78.5527L145.543 78.9141L144.893 79.0586L141.713 79.1309H81.6602V79.709L81.3711 81.2266L80.9375 82.3828L80.3594 83.3945L79.7812 84.1172L79.1309 84.8398L78.1191 85.5625L77.0352 86.1406L75.9512 86.502L74.7227 86.7188H73.0605L71.9766 86.502L71.1094 86.2129L69.9531 85.6348L69.0859 84.9844L68.2188 84.1895L67.7129 83.6836L67.207 83.1055L66.4121 82.2383L65.9062 81.6602L65.1836 80.8652L64.5332 80.0703L63.8105 79.2031L63.5938 79.1309L2.89062 79.0586L2.02344 78.7695L1.37305 78.3359L0.867188 77.9023L0.361328 77.1797L0 76.2402V69.8809L0.505859 64.9668L1.01172 61.498L1.73438 57.8848L2.38477 55.2109L3.10742 52.6094L4.11914 49.502L5.05859 46.9727L5.92578 44.877L6.79297 42.9258L7.94922 40.541L9.0332 38.4453L10.0449 36.7109L10.8398 35.3379L11.8516 33.748L12.5742 32.6641L13.3691 31.5078L14.0918 30.4961L15.1035 29.123L15.8984 28.1113L16.8379 26.9551L17.6328 26.0156L18.2832 25.2207L19.3672 24.0645L19.873 23.4863L21.0293 22.2578L22.8359 20.4512L23.4141 19.9453L23.9199 19.4395L24.498 18.9336L25.3652 18.1387L26.1602 17.4883L27.1719 16.6211L28.1836 15.8262L29.123 15.1035L30.4961 14.0918L31.7969 13.1523L33.3145 12.1406L34.543 11.3457L36.0605 10.4062L37.9395 9.32227L39.8184 8.31055L42.709 6.86523L45.6719 5.56445L48.4902 4.48047L50.5137 3.75781L52.8262 3.03516L55.7168 2.24023L58.4629 1.58984L61.498 1.01172L64.9668 0.505859L69.0859 0.0722656L70.0254 0Z" fill="#F7F7F7" stroke="#FF4800" stroke-width="8" mask="url(#path-1-inside-1_11_895)"/>
<path d="M23.7031 96.9805H27.2441L29.2676 97.1973L31.5078 97.6309L33.3145 98.1367L34.7598 98.6426L36.2773 99.293L37.8672 100.088L39.3125 100.955L40.541 101.822L41.4805 102.545L42.4199 103.34L43.2871 104.135L44.4434 105.291L45.0938 106.086L45.8164 106.953L46.6836 108.182L47.5508 109.555L48.2734 110.855L49.0684 112.59L49.7188 114.252L49.8633 114.324L50.0078 113.602L50.7305 111.867L51.3086 110.711L52.1035 109.266L53.1152 107.748L53.7656 106.881L54.416 106.086L55.2832 105.074L56.9453 103.412L57.7402 102.762L58.8242 101.895L60.5586 100.738L61.7871 100.016L63.666 99.0762L65.3281 98.4258L66.8457 97.9199L68.5801 97.4863L70.1699 97.1973L72.2656 96.9805H75.6621L77.7578 97.1973L79.998 97.6309L81.8047 98.1367L83.6113 98.7871L84.9121 99.3652L86.3574 100.088L87.8027 100.955L89.0312 101.822L89.9707 102.545L90.9824 103.412L91.8496 104.207L92.7891 105.146L93.2949 105.725L94.2344 106.881L95.1738 108.182L96.1133 109.699L97.0527 111.434L97.7031 112.951L98.1367 114.252H98.2812L98.9316 112.518L99.9434 110.422L100.738 109.049L101.389 108.037L102.256 106.881L103.051 105.869L103.918 104.93L105.436 103.412L106.23 102.762L107.314 101.895L109.266 100.594L111.217 99.5098L113.023 98.7148L114.613 98.1367L116.781 97.5586L118.66 97.1973L120.611 96.9805H124.152L126.176 97.1973L128.199 97.5586L130.295 98.1367L132.102 98.7871L133.836 99.582L135.354 100.377L136.943 101.389L138.172 102.328L138.967 102.979L139.689 103.629L140.268 104.135L141.135 105.002L141.641 105.58L142.436 106.52L143.303 107.676L144.025 108.76L144.676 109.844L145.688 111.795L146.266 113.168L146.844 114.758L147.35 116.637L147.783 118.877L148 120.322V124.441L147.566 127.26L147.061 129.428L146.338 131.596L145.543 133.475L144.604 135.281L143.736 136.654L142.797 137.955L141.785 139.184L141.135 139.906L140.629 140.484L140.051 140.99L139.473 141.568L138.678 142.219L137.666 143.014L136.51 143.809L134.992 144.748L133.475 145.543L131.74 146.266L130.367 146.771L128.199 147.35L125.598 147.855L124.586 148H120.395L117.793 147.566L115.842 147.133L113.963 146.555L112.156 145.832L110.35 144.965L108.76 144.025L107.604 143.23L106.736 142.58L105.941 141.93L105.002 141.062L103.268 139.328L102.617 138.533L101.605 137.232L100.811 136.004L100.088 134.775L99.4375 133.547L98.6426 131.668L98.2812 130.729V130.584H98.1367L97.9199 131.451L97.125 133.33L96.4023 134.775L95.5352 136.221L94.5234 137.666L93.7285 138.678L92.9336 139.617L92.3555 140.195L92.1387 140.484H91.9941L91.8496 140.773L91.2715 141.279L90.4043 142.074L89.1758 143.014L87.9473 143.881L86.3574 144.82L85.1289 145.471L83.4668 146.193L81.6602 146.844L79.7812 147.35L77.1074 147.855L76.0957 148H71.9043L68.5801 147.422L66.8457 146.988L64.6777 146.266L62.7266 145.398L61.209 144.604L59.8359 143.736L58.8242 143.014L57.8125 142.219L56.8008 141.352L54.8496 139.4L54.1992 138.605L53.332 137.521L52.3203 136.004L51.5977 134.775L50.875 133.402L50.1523 131.668L49.8633 130.873V130.584H49.7188L49.502 131.234L48.9238 132.68L47.9121 134.775L47.1895 136.004L46.1055 137.594L45.3105 138.605L44.4434 139.617L43.793 140.268L43.3594 140.773L42.7812 141.279L41.9863 142.002L40.9746 142.797L39.8906 143.592L38.373 144.531L37.2168 145.182L35.3379 146.049L33.3867 146.771L31.5801 147.277L29.0508 147.783L27.6777 148H23.4141L20.0898 147.422L18.0664 146.916L16.1875 146.266L14.3809 145.471L12.7188 144.604L11.3457 143.736L10.334 143.014L9.32227 142.219L8.23828 141.279L7.73242 140.773L7.51562 140.629V140.484L7.29883 140.412L6.79297 139.834L5.99805 138.967L5.20312 137.955L4.4082 136.871L3.61328 135.643L2.89062 134.342L2.3125 133.186L1.58984 131.451L0.939453 129.5L0.433594 127.332L0 124.73V120.033L0.578125 116.854L1.08398 114.975L1.73438 113.096L2.5293 111.289L3.32422 109.771L4.19141 108.398L5.05859 107.17L5.78125 106.23L6.57617 105.363L7.08203 104.785L8.38281 103.484L9.17773 102.834L10.0449 102.111L11.2734 101.244L12.791 100.305L14.0918 99.582L16.043 98.7148L18.6445 97.8477L20.5234 97.4141L22.3301 97.125L23.7031 96.9805Z" fill="#F5D461"/>
<path d="M120.611 96.9805H124.152L126.176 97.1973L128.199 97.5586L130.295 98.1367L132.102 98.7871L133.836 99.582L135.354 100.377L136.943 101.389L138.172 102.328L138.967 102.979L139.689 103.629L140.268 104.135L141.135 105.002L141.641 105.58L142.436 106.52L143.303 107.676L144.025 108.76L144.676 109.844L145.688 111.795L146.266 113.168L146.844 114.758L147.35 116.637L147.783 118.877L148 120.322V124.441L147.566 127.26L147.061 129.428L146.338 131.596L145.543 133.475L144.604 135.281L143.736 136.654L142.797 137.955L141.785 139.184L141.135 139.906L140.629 140.484L140.051 140.99L139.473 141.568L138.678 142.219L137.666 143.014L136.51 143.809L134.992 144.748L133.475 145.543L131.74 146.266L130.367 146.771L128.199 147.35L125.598 147.855L124.586 148H120.395L117.793 147.566L115.842 147.133L113.963 146.555L112.156 145.832L110.35 144.965L108.76 144.025L107.604 143.23L106.736 142.58L105.941 141.93L105.002 141.062L103.268 139.328L102.617 138.533L101.605 137.232L100.811 136.004L100.088 134.775L99.4375 133.547L98.6426 131.668L98.2812 130.729L98.3535 130.078L98.6426 129.066L99.2207 126.176L99.3652 124.947L99.4375 122.996L99.3652 120.9L99.1484 118.66L98.7871 116.564L98.3535 114.686L98.2812 114.396L98.5703 113.457L99.293 111.723L100.088 110.133L101.1 108.471L101.967 107.242L102.762 106.23L103.629 105.219L105.436 103.412L106.23 102.762L107.314 101.895L109.266 100.594L111.217 99.5098L113.023 98.7148L114.613 98.1367L116.781 97.5586L118.66 97.1973L120.611 96.9805Z" fill="#F2C424"/>
<path d="M23.7031 96.9805H27.2441L29.2676 97.1973L31.5078 97.6309L33.3145 98.1367L34.7598 98.6426L36.2773 99.293L37.8672 100.088L39.3125 100.955L40.541 101.822L41.4805 102.545L42.4199 103.34L43.2871 104.135L44.4434 105.291L45.0938 106.086L45.8164 106.953L46.6836 108.182L47.5508 109.555L48.2734 110.855L49.0684 112.59L49.6465 114.107V114.686L49.3574 115.914L49.1406 116.854L48.8516 118.443L48.6348 120.033L48.5625 122.852L48.6348 124.875L48.7793 126.248L48.9961 127.621L49.3574 129.139L49.6465 130.078L49.7188 130.223V130.729L48.9238 132.68L47.9121 134.775L47.1895 136.004L46.1055 137.594L45.3105 138.605L44.4434 139.617L43.793 140.268L43.3594 140.773L42.7812 141.279L41.9863 142.002L40.9746 142.797L39.8906 143.592L38.373 144.531L37.2168 145.182L35.3379 146.049L33.3867 146.771L31.5801 147.277L29.0508 147.783L27.6777 148H23.4141L20.0898 147.422L18.0664 146.916L16.1875 146.266L14.3809 145.471L12.7188 144.604L11.3457 143.736L10.334 143.014L9.32227 142.219L8.23828 141.279L7.73242 140.773L7.51562 140.629V140.484L7.29883 140.412L6.79297 139.834L5.99805 138.967L5.20312 137.955L4.4082 136.871L3.61328 135.643L2.89062 134.342L2.3125 133.186L1.58984 131.451L0.939453 129.5L0.433594 127.332L0 124.73V120.033L0.578125 116.854L1.08398 114.975L1.73438 113.096L2.5293 111.289L3.32422 109.771L4.19141 108.398L5.05859 107.17L5.78125 106.23L6.57617 105.363L7.08203 104.785L8.38281 103.484L9.17773 102.834L10.0449 102.111L11.2734 101.244L12.791 100.305L14.0918 99.582L16.043 98.7148L18.6445 97.8477L20.5234 97.4141L22.3301 97.125L23.7031 96.9805Z" fill="#F2C424"/>
<path d="M73.2773 107.242H74.5781L75.2285 107.459L76.0234 108.182L76.3848 108.832L76.6016 109.482V109.627L77.0352 109.699H79.0586L79.9258 109.844L80.5039 110.133L80.9375 110.494L81.4434 111.217L81.6602 112.012V112.807L81.3711 113.457L80.9375 114.107L80.1426 114.613L79.8535 114.758L79.3477 114.83L73.7109 114.902L72.7715 115.191L72.1211 115.697L71.6875 116.42L71.543 116.926V117.938L72.0488 118.949L72.627 119.455L73.2051 119.744L74.1445 119.889L75.1562 119.961L76.5293 120.322L77.6855 120.828L78.9141 121.623L79.6367 122.273L80.4316 123.285L81.0098 124.369L81.4434 125.598L81.6602 126.754V128.416L81.2988 129.934L80.8652 131.018L79.998 132.391L79.709 132.752H79.5645L79.4199 133.041H79.2754V133.186L78.3359 133.908L77.3965 134.486L76.6738 134.848L76.6016 134.92L76.5293 135.859L76.0957 136.727L75.7344 137.088L75.3008 137.449L74.8672 137.666L74.2891 137.811H73.6387L72.916 137.594L72.1211 137.016L71.6875 136.365L71.4707 135.932L71.3984 135.426L71.3262 135.354L68.7969 135.281L67.9297 135.064L67.3516 134.703L66.8457 134.27L66.4121 133.402L66.3398 133.113V132.318L66.5566 131.523L66.8457 131.09L67.4961 130.512L68.1465 130.223L68.4355 130.15L72.4102 130.078H73.4219L74.4336 130.006L75.1562 129.789L75.7344 129.355L76.2402 128.561L76.457 127.982V127.188L76.168 126.393L75.8789 125.959L75.373 125.525L74.5781 125.164L72.5547 124.947L71.4707 124.658L70.459 124.225L69.6641 123.719L69.0137 123.213L68.291 122.562L67.4238 121.406L66.7734 120.033L66.4844 118.949L66.3398 118.01V116.564L66.6289 115.047L67.0625 113.963L67.4961 113.24L68.1465 112.373L68.8691 111.65L70.1699 110.711L71.3262 110.133L71.4707 109.193L71.832 108.326L72.3379 107.748L73.0605 107.314L73.2773 107.242Z" fill="#EF6D3A"/>
<path d="M25.0039 107.242H25.9434L26.5938 107.459L27.1719 107.893L27.75 108.543L28.1836 109.41V109.555L28.6172 109.627H29.4121L31.002 109.771L31.7246 109.988L32.3027 110.422L32.8086 111.072L33.0254 111.723L33.0977 112.012V112.879L32.7363 113.602L32.375 114.035H32.2305L32.1582 114.252L31.4355 114.686L30.6406 114.83H25.8711L24.8594 114.975L24.209 115.264L23.7754 115.553L23.3418 116.131L23.0527 116.781L22.9805 117.07V117.721L23.2695 118.588L23.7031 119.166L24.0645 119.455L24.7148 119.744L25.2207 119.889L26.7383 120.033L28.2559 120.467L29.4844 121.045L30.4961 121.768L31.2188 122.49L31.8691 123.43L32.4473 124.514L32.9531 125.887L33.1699 127.188V128.199L32.9531 129.211L32.5918 130.367L32.0137 131.523L31.5801 132.174H31.4355L31.291 132.535H31.1465L31.002 132.824L30.6406 133.186H30.4961V133.33L29.4844 134.053L28.5449 134.631L28.1836 134.92L27.8223 136.221L27.3887 136.871L26.7383 137.449L25.9434 137.811L25.1484 137.883L24.4258 137.594L23.9199 137.232V137.088L23.7031 137.016L23.2695 136.438L22.9805 135.859V135.643H22.8359L22.7637 135.426L22.6191 135.354L20.1621 135.281L19.2227 134.92L18.5723 134.414L17.9219 133.547L17.8496 133.33V132.318L18.0664 131.668L18.4277 131.018L18.8613 130.656L19.873 130.223L20.3789 130.15L25.8711 130.078L26.5215 129.861L27.1719 129.428L27.6055 128.922L27.9668 128.055V127.043L27.6055 126.176L26.9551 125.598L26.1602 125.236L25.4375 125.092L24.0645 124.947L22.6914 124.514L21.4629 123.936L20.5957 123.285L19.584 122.273L19.0781 121.623L18.2832 120.033L17.8496 118.516V116.781L17.9941 115.697L18.4277 114.396L19.0059 113.312L19.6562 112.518L20.7402 111.434H20.8848V111.289L21.9688 110.566L22.6914 110.133L23.1973 108.615L23.7031 107.965L24.1367 107.604L24.7148 107.314L25.0039 107.242Z" fill="#EF6D3A"/>
<path d="M121.984 107.242H122.924L123.646 107.459L124.369 108.109L124.947 109.049L125.236 109.482L125.742 109.627H126.682L128.055 109.771L128.85 110.061L129.428 110.566L129.861 111.289L130.078 112.012V112.734L129.789 113.457L129.5 113.891H129.355V114.035H129.211V114.18L128.416 114.686L127.477 114.83H122.779L121.84 114.975L121.117 115.264L120.539 115.77L120.105 116.492L119.961 116.926V117.865L120.322 118.732L120.828 119.311L121.695 119.744L122.201 119.889L123.646 120.033L124.803 120.322L125.887 120.756L126.898 121.334L127.621 121.912L128.416 122.779L128.994 123.719L129.5 124.73L129.789 125.453L130.078 126.609V128.344L129.861 129.5L129.5 130.439L128.922 131.596L128.344 132.391L127.549 133.258L126.465 134.053L125.742 134.486L125.092 134.92L124.875 136.004L124.441 136.727L123.791 137.377L123.141 137.738L122.129 137.883L121.262 137.521L120.828 137.16V137.016L120.539 136.871L120.105 136.221L119.744 135.426L119.672 135.354L117.07 135.281L116.203 134.92L115.914 134.775V134.631L115.625 134.486V134.342L115.336 134.197L115.047 133.836L114.758 133.113V132.607L115.047 131.668L115.336 131.162L115.986 130.584L116.564 130.295L117.359 130.15L122.779 130.078L123.502 129.861L124.152 129.428L124.514 128.994L124.875 128.271L124.947 127.982V127.188L124.73 126.465L124.297 125.887L123.502 125.381L122.346 125.092L120.684 124.875L119.094 124.297L118.443 123.936L117.504 123.213L116.564 122.273L115.914 121.334L115.191 119.961L114.902 118.877L114.758 117.793L114.83 116.564L115.119 115.119L115.553 114.035L116.059 113.168H116.203L116.348 112.807L116.42 112.662H116.564L116.709 112.373L117.504 111.578L118.299 111L119.527 110.205L119.816 109.988L120.033 108.904L120.467 108.182L120.973 107.676L121.623 107.314L121.984 107.242Z" fill="#EF6D3A"/>
<path d="M95.4629 11.418H96.3301L97.125 11.707L97.5586 11.9961L98.1367 12.6465L98.4258 13.2246L98.498 13.4414V14.3809L97.7754 16.4766L96.6914 19.4395L96.2578 20.2344L95.6797 20.8848L94.8848 21.3184L94.668 21.3906H93.7285L93.0059 21.1016L92.3555 20.5957L91.9219 20.0176L91.6328 19.3672V18.5L91.8496 17.6328L93.2949 13.6582L93.6562 12.791L94.0898 12.2129L94.668 11.707L95.4629 11.418Z" fill="#FF4800"/>
<path d="M51.5977 11.418H52.4648L53.2598 11.707L53.9102 12.2129L54.3438 12.8633L54.7051 13.6582L55.3555 15.4648L56.2949 18.0664L56.3672 18.2832V19.3672L55.9336 20.2344L55.4277 20.8125L54.7051 21.2461L54.3438 21.3906H53.4043L52.6094 21.1016L51.8867 20.4512L51.4531 19.7285L50.6582 17.6328L49.5742 14.5977L49.502 14.3086V13.4414L49.8633 12.5742L50.6582 11.7793L51.3809 11.4902L51.5977 11.418Z" fill="#FF4800"/>
<path d="M136.582 60.3418H137.449L138.172 60.6309L138.75 61.0645L139.256 61.7148L139.545 62.4375V63.377L139.256 64.0273L138.822 64.6055L138.316 65.0391L137.449 65.4004L135.57 65.7617L132.246 66.3398H131.379L130.512 65.9062L129.861 65.2559L129.428 64.5332L129.355 64.2441V63.3047L129.645 62.5098L130.295 61.7871L130.873 61.4258L131.957 61.1367L135.209 60.5586L136.582 60.3418Z" fill="#FF4800"/>
<path d="M10.5508 60.3418H11.2734L13.1523 60.6309L16.332 61.209L17.1992 61.498L17.8496 61.9316L18.3555 62.582L18.6445 63.2324L18.7168 63.8828L18.5723 64.5332L18.1387 65.2559L17.7773 65.6895L16.9824 66.1953L16.6211 66.3398H15.7539L12.3574 65.7617L10.623 65.4004L9.75586 65.0391L9.0332 64.4609L8.59961 63.7383L8.45508 63.1602V62.582L8.67188 61.8594L9.10547 61.209L9.75586 60.6309L10.5508 60.3418Z" fill="#FF4800"/>
<path d="M73.4941 7.66016H74.4336L75.2285 7.94922L75.9512 8.59961L76.457 9.32227L76.6016 10.0449V15.3926L76.457 16.1152L75.9512 16.9102L75.3008 17.4883L74.5059 17.8496H73.4941L72.4824 17.3438L71.9043 16.7656L71.543 16.043L71.4707 15.6094V9.68359L71.832 8.81641L72.4102 8.16602L72.9883 7.80469L73.4941 7.66016Z" fill="#FF4800"/>
<path d="M128.994 39.5293H129.572L130.439 39.8184L131.09 40.252L131.596 40.9023L131.812 41.4082L131.885 41.7695V42.4922L131.668 43.1426L131.018 44.0098L130.295 44.5156L127.26 46.25L125.814 47.0449L125.309 47.1895H124.369L123.646 46.8281L122.924 46.1777L122.49 45.5273L122.346 44.9492V44.2988L122.562 43.6484L122.852 43.1426L123.43 42.5645L124.947 41.625L127.982 39.8906L128.994 39.5293Z" fill="#FF4800"/>
<path d="M114.541 22.6191H115.553L116.42 22.9805L117.07 23.5586L117.432 24.1367L117.648 24.7871V25.5098L117.359 26.2324L116.854 27.0273L115.914 28.1113L115.336 28.834L114.469 29.8457L113.963 30.4238L113.385 31.002L112.518 31.5078L112.229 31.5801H111.361L110.639 31.291L109.988 30.7852L109.482 30.0625L109.266 29.4844V28.5449L109.555 27.8223L110.061 27.0996L110.855 26.1602L111.506 25.3652L112.373 24.3535L113.168 23.4141L113.818 22.9082L114.541 22.6191Z" fill="#FF4800"/>
<path d="M18.1387 39.6016H19.1504L20.0898 39.9629L23.125 41.6973L24.4258 42.4922L25.1484 43.1426L25.5098 43.7207L25.6543 44.1543V45.0938L25.3652 45.7441L25.0762 46.1777L24.7871 46.5391L24.1367 46.9727L23.6309 47.1895L22.9805 47.2617L22.041 46.9727L20.5957 46.1777L18.8613 45.166L17.8496 44.5879L17.0547 44.0098L16.4766 43.3594L16.1875 42.709L16.1152 41.9863L16.2598 41.1914L16.6934 40.4688L17.3438 39.8906L18.1387 39.6016Z" fill="#FF4800"/>
<path d="M32.5195 22.6191H33.3867L34.1094 22.9082L34.6875 23.3418L35.3379 23.9922L35.9883 24.7871L36.7832 25.7266L37.4336 26.5215L38.2285 27.5332L38.5898 28.1113L38.7344 28.4727L38.8066 29.0508L38.6621 29.7734L38.2285 30.4961L37.7949 31.002L37.0723 31.4355L36.6387 31.5801H35.7715L34.9043 31.2188L34.0371 30.4238L33.3867 29.7012L32.7363 28.9062L31.9414 27.9668L31.1465 26.9551L30.6406 26.2324L30.4238 25.7266L30.3516 25.0039L30.5684 24.1367L31.002 23.4863L31.5801 22.9805L32.2305 22.6914L32.5195 22.6191Z" fill="#FF4800"/>
<path d="M74 40C54.1178 40 38 56.1178 38 76H74H110C110 56.1178 93.8823 40 74 40Z" fill="#EF6D3A" fill-opacity="0.8"/>
<path d="M51.3086 55.1387H52.1035L53.6211 55.7891L57.2344 57.5957L58.8242 58.4629L60.125 59.1855L62.0762 60.3418L63.7383 61.3535L67.207 63.666L68.4355 64.5332L69.7363 65.4727L70.8926 66.3398L72.916 67.9297L73.7832 68.6523L74.5781 69.3027L75.5898 70.1699L76.6738 71.1094L77.7578 72.1211L78.4805 72.7715L79.0586 73.2773L79.6367 73.8555L80.2871 74.7227L80.8652 75.7344L81.2988 76.7461L81.5879 77.9746L81.7324 79.1309L81.4434 80.9375L81.082 82.0215L80.5039 83.1777L79.8535 84.0449L79.1309 84.8398L78.1191 85.5625L77.0352 86.1406L75.9512 86.502L74.7227 86.7188H73.0605L71.9766 86.502L71.1094 86.2129L69.9531 85.6348L69.0859 84.9844L68.2188 84.1895L67.7129 83.6836L67.207 83.1055L66.4121 82.2383L65.9062 81.6602L65.1836 80.8652L64.5332 80.0703L63.5938 78.9863L63.0156 78.2637L62.0762 77.1074L61.1367 75.8789L59.9805 74.3613L58.9688 72.916L58.3184 71.9766L56.873 69.8086L56.0059 68.4355L54.9941 66.7734L53.9824 65.0391L53.1152 63.4492L52.5371 62.4375L50.5137 58.3906L50.1523 57.5234L50.0801 57.2344V56.3672L50.3691 55.7891L50.875 55.3555L51.3086 55.1387Z" fill="#BC3E30"/>
<path d="M73.3496 71.543H74.9395L75.5898 71.6152L76.0957 71.7598L76.7461 71.832L76.8906 72.0488L77.3242 72.1934H77.4688V72.3379H77.6133V72.4824H77.8301V72.627L78.0469 72.5547L78.6973 73.0605L79.0586 73.2773L79.6367 73.8555L80.2871 74.7227L80.8652 75.7344L81.2988 76.7461L81.5879 77.9746L81.7324 79.1309L81.4434 80.9375L81.082 82.0215L80.5039 83.1777L79.8535 84.0449L79.1309 84.8398L78.1191 85.5625L77.0352 86.1406L75.9512 86.502L74.7227 86.7188H73.0605L71.9766 86.502L71.1094 86.2129L69.9531 85.6348L69.0859 84.9844L68.2188 84.1895L67.7129 83.6836L67.207 83.1055L67.0625 82.8887H67.207V82.5996L66.7734 81.6602L66.4844 80.3594L66.4121 79.1309V78.3359L66.5566 77.6855V77.3242L66.7734 76.6738L66.8457 76.3848L67.4238 75.2285L67.8574 74.5059L68.1465 74.2168H68.291L68.4355 73.8555L68.9414 73.4219H69.0859V73.2773L69.9531 72.627L70.5312 72.3379H70.748L70.8203 72.1934L71.6875 71.9766L72.1934 71.7598L72.916 71.6875L73.2051 71.6152L73.3496 71.543Z" fill="#EF6D3A"/>
</g>
<defs>
<clipPath id="clip0_11_895">
<rect width="148" height="148" fill="white"/>
</clipPath>
</defs>
</svg>
