<svg xmlns="http://www.w3.org/2000/svg" viewBox="0 0 116 48"><path fill="#FF4800" d="M113.318 7.27542C111.423 6.10533 109.494 5.48752 107.585 5.43897C107.543 5.43897 107.501 5.43775 107.46 5.43775C106.415 5.43775 104.996 5.76547 103.654 7.13948C102.391 6.34566 100.528 5.41712 98.5328 5.25204C98.3895 5.23991 98.25 5.23505 98.1104 5.23505C97.0689 5.23505 95.5044 5.55792 93.9641 7.09578C93.6351 7.42472 93.3183 7.79613 93.0185 8.20882C92.0621 7.37738 91.0741 7.01203 90.1892 6.89186C90.4587 6.49132 90.7306 6.13082 91.0049 5.81281L93.0647 3.42651L90.4477 1.67017C88.7703 0.547417 87.0577 1.80472e-07 85.2127 1.76621e-07C85.0877 1.7636e-07 84.9614 0.00242774 84.834 0.00728288C82.915 0.0825375 81.0446 1.14945 79.6985 2.93493C78.543 4.43031 77.459 6.53501 76.4686 9.20776C75.483 8.31927 74.3408 7.80706 73.1416 7.71238C73.3868 7.29605 73.6381 6.91978 73.893 6.58599L75.8083 4.08196L73.0919 2.4834C71.5188 1.55728 69.9554 1.10697 68.312 1.10697C68.011 1.10697 67.7002 1.12275 67.3919 1.15309C65.5967 1.33031 63.8962 2.3778 62.6715 4.04676L62.0634 3.86469C61.9044 3.81614 60.4588 3.38767 58.7631 3.38767C56.2008 3.38767 54.169 4.38297 53.0401 6.18908C52.5194 7.02295 52.1565 7.77671 51.932 8.49285C51.5812 9.61438 51.5618 10.6728 51.8761 11.6402C51.722 11.7276 51.5703 11.8247 51.4234 11.9303C50.0227 11.0357 48.4533 10.5454 46.9081 10.5454C46.4469 10.5454 46.0026 10.5903 45.5863 10.6789C44.2414 10.9653 42.5482 11.7543 41.1693 13.768C40.0527 13.5701 39.1108 13.473 38.3012 13.473C36.739 13.473 35.4961 13.8371 34.502 14.5873C34.2593 14.7705 34.0432 14.9684 33.8514 15.1735L33.8296 15.165C32.6923 14.7329 31.1192 14.4744 29.6214 14.4744C29.4236 14.4744 29.2293 14.4792 29.0412 14.4877C29.0461 13.7012 28.9587 12.9851 28.7717 12.3697L28.7657 12.3478L28.7584 12.326C28.4513 11.3695 27.6611 10.0611 25.6378 9.26481C24.5174 8.823 23.1713 8.59966 21.6383 8.59966C20.8033 8.59966 19.9305 8.66763 19.0433 8.80236L16.2734 9.22233L16.4069 10.0841C15.9408 9.53549 15.4056 9.04026 14.8108 8.60694C13.2523 7.47327 11.337 6.84817 9.41675 6.84817C8.39596 6.84817 7.38731 7.01931 6.41506 7.35553L3.94259 8.21246L0.594971 9.37284L2.50789 12.3563C2.53096 12.3915 5.00101 15.6457 6.06792 21.2534C6.61777 24.1409 6.7355 29.7413 5.67344 34.3586C4.51792 39.38 2.66083 41.7784 2.0685 43.2641C2.0685 43.2641 3.28836 45.0872 5.0617 46.1323C7.54995 47.5985 11.0966 47.2016 12.1162 46.7817C14.5644 45.7718 16.6351 43.5979 17.7822 39.4067C17.8052 39.3242 17.8271 39.2416 17.8489 39.1579C17.9703 39.289 18.0929 39.4176 18.2179 39.5451C19.5142 40.8584 20.989 41.8877 22.6009 42.605C24.2468 43.3369 25.9546 43.7084 27.6781 43.7084C30.1712 43.7084 32.5612 42.9121 34.5894 41.4058C36.705 39.834 38.3582 37.5715 39.504 34.6814C40.1922 34.9169 40.8258 34.9934 41.355 34.9934C41.752 34.9934 42.1525 34.9509 42.547 34.8672C46.1191 34.1061 47.3791 32.1058 48.0466 29.5993C48.4399 34.4909 51.461 39.1008 56.1608 42.4824C58.0846 44.047 60.8472 45.6601 64.673 46.6142C68.0546 47.6313 71.7907 48.135 75.7258 47.9687C97.5229 47.0487 106.932 33.6534 110.247 23.6506C110.544 22.9175 110.822 22.1734 111.076 21.4196C111.591 19.8939 111.986 18.4167 112.37 16.9881C112.951 14.8239 113.499 12.7799 114.394 10.7978L115.403 8.56203L113.317 7.27299L113.318 7.27542Z"/><path fill="#fff" d="M65.439 31.42C65.162 31.142 64.753 30.913 64.189 30.714 63.799 30.576 63.415 30.502 63.043 30.496 62.661 30.49 62.298 30.562 61.964 30.711 61.621 30.865 61.307 31.107 61.033 31.431 60.751 31.765 60.527 32.197 60.369 32.715 60.196 33.282 60.13 33.817 60.181 34.299 60.231 34.787 60.378 35.229 60.62 35.61 60.86 35.986 61.18 36.306 61.572 36.557 61.963 36.808 62.408 36.991 62.893 37.104 63.177 37.171 63.438 37.206 63.668 37.212 63.707 37.212 63.745 37.213 63.782 37.212 64.025 37.207 64.224 37.19 64.373 37.161 64.629 37.109 64.82 37.017 64.954 36.881 65.091 36.742 65.174 36.574 65.202 36.381 65.232 36.185 65.217 36.003 65.159 35.839 65.104 35.683 65.017 35.54 64.9 35.413 64.876 35.388 64.853 35.361 64.829 35.336 64.795 35.344 64.761 35.354 64.727 35.362 64.548 35.41 64.36 35.447 64.167 35.47 63.985 35.494 63.765 35.473 63.515 35.411 63.037 35.291 62.692 35.059 62.494 34.724 62.305 34.405 62.275 34.007 62.401 33.517 62.521 33.05 62.714 32.737 62.991 32.562 63.264 32.389 63.598 32.372 64.018 32.503 64.234 32.569 64.417 32.658 64.561 32.766 64.718 32.883 64.864 33.009 64.996 33.142 65.022 33.168 65.047 33.195 65.074 33.22 65.108 33.208 65.142 33.196 65.176 33.185 65.318 33.135 65.451 33.051 65.57 32.937 65.705 32.809 65.791 32.64 65.826 32.432 65.889 32.074 65.758 31.737 65.444 31.42H65.439ZM71.52 36.054C71.368 35.668 71.221 35.271 71.083 34.876 70.942 34.472 70.809 34.076 70.683 33.69 70.534 33.231 70.434 32.924 70.348 32.667 70.27 32.43 70.091 32.248 69.817 32.124 69.578 32.016 69.3 31.942 68.988 31.904 68.771 31.879 68.548 31.876 68.327 31.901 68.096 31.925 67.926 31.96 67.807 32.008 67.785 32.016 67.763 32.025 67.742 32.033 67.729 32.055 67.717 32.077 67.705 32.099 67.651 32.198 67.575 32.343 67.476 32.534 67.376 32.725 67.266 32.941 67.143 33.184 67.021 33.424 66.888 33.679 66.746 33.948 66.601 34.225 66.461 34.495 66.331 34.752 66.199 35.015 66.074 35.262 65.96 35.492 65.838 35.737 65.746 35.93 65.681 36.081 65.633 36.189 65.59 36.281 65.552 36.36 65.502 36.463 65.469 36.571 65.455 36.683 65.43 36.868 65.457 37.133 65.724 37.345 65.911 37.493 66.204 37.585 66.593 37.619 66.76 37.632 66.906 37.632 67.029 37.619 67.146 37.605 67.26 37.586 67.368 37.561 67.405 37.552 67.443 37.544 67.481 37.534 67.495 37.496 67.511 37.457 67.525 37.42 67.587 37.263 67.651 37.094 67.716 36.916 67.765 36.784 67.818 36.644 67.875 36.499 68.397 36.531 68.925 36.551 69.448 36.556 69.494 36.71 69.542 36.863 69.589 37.014 69.663 37.252 69.786 37.428 69.954 37.536 70.115 37.639 70.365 37.683 70.717 37.67 70.737 37.67 70.759 37.669 70.781 37.667 71.028 37.654 71.248 37.613 71.434 37.547 71.634 37.477 71.782 37.388 71.887 37.279 71.918 37.245 71.95 37.212 71.981 37.178 71.964 37.139 71.947 37.101 71.932 37.062 71.782 36.716 71.648 36.387 71.518 36.057L71.52 36.054ZM68.407 34.934C68.497 34.717 68.589 34.505 68.682 34.303 68.734 34.19 68.784 34.082 68.832 33.976 68.859 34.09 68.889 34.206 68.918 34.322 68.971 34.527 69.025 34.743 69.082 34.976 68.856 34.964 68.63 34.95 68.405 34.933L68.407 34.934ZM76.387 34.206C76.011 34.021 75.519 33.891 74.882 33.804 74.714 33.781 74.546 33.755 74.376 33.729 74.198 33.702 74.103 33.668 74.056 33.645 74.018 33.627 74.016 33.613 74.016 33.607 74.013 33.579 74.067 33.542 74.09 33.527 74.153 33.487 74.29 33.434 74.588 33.402 74.837 33.375 75.072 33.373 75.284 33.396 75.499 33.418 75.672 33.452 75.8 33.496 75.836 33.508 75.874 33.521 75.91 33.533 75.939 33.508 75.969 33.481 75.998 33.456 76.105 33.361 76.191 33.25 76.254 33.129 76.325 32.992 76.345 32.838 76.312 32.671 76.279 32.503 76.193 32.361 76.056 32.248 75.932 32.146 75.774 32.068 75.586 32.016 75.41 31.967 75.21 31.937 74.976 31.926 74.756 31.917 74.516 31.92 74.258 31.938 73.529 31.991 72.983 32.157 72.586 32.46 72.156 32.788 71.946 33.224 71.968 33.747 71.98 34.019 72.044 34.252 72.161 34.439 72.275 34.622 72.434 34.776 72.632 34.896 72.822 35.012 73.047 35.103 73.301 35.166 73.543 35.226 73.818 35.28 74.118 35.324 74.258 35.343 74.399 35.361 74.539 35.378 74.72 35.401 74.86 35.432 74.956 35.468 75.033 35.497 75.039 35.532 75.042 35.552 75.049 35.585 75.022 35.627 74.962 35.678 74.914 35.721 74.777 35.799 74.411 35.85 74.116 35.892 73.836 35.888 73.579 35.838 73.32 35.788 73.097 35.716 72.915 35.622 72.884 35.606 72.854 35.591 72.825 35.575 72.793 35.592 72.762 35.61 72.73 35.627 72.583 35.708 72.447 35.819 72.326 35.955 72.183 36.117 72.117 36.308 72.134 36.519 72.15 36.718 72.239 36.888 72.398 37.022 72.542 37.143 72.735 37.233 72.972 37.291 73.199 37.347 73.462 37.375 73.753 37.375 73.851 37.375 73.95 37.371 74.052 37.365 74.255 37.353 74.466 37.328 74.682 37.291 75.132 37.215 75.533 37.102 75.874 36.959 76.214 36.815 76.493 36.648 76.705 36.461 76.923 36.269 77.072 36.058 77.148 35.833 77.225 35.611 77.232 35.383 77.173 35.151 77.062 34.726 76.798 34.412 76.385 34.209L76.387 34.206ZM78.878 32.101C78.792 31.824 78.647 31.645 78.447 31.568 78.267 31.5 78.026 31.495 77.709 31.554 77.574 31.578 77.44 31.612 77.309 31.652 77.161 31.698 77.014 31.744 76.866 31.791 76.876 31.844 76.889 31.895 76.901 31.947 77.194 33.255 77.533 34.536 77.913 35.747 77.997 36.017 78.151 36.184 78.371 36.247 78.471 36.276 78.594 36.284 78.738 36.272 78.885 36.258 79.056 36.224 79.253 36.168 79.417 36.121 79.576 36.068 79.726 36.008 79.873 35.95 79.986 35.9 80.061 35.86 80.112 35.833 80.162 35.807 80.213 35.781 80.195 35.736 80.176 35.693 80.157 35.648 79.689 34.526 79.259 33.331 78.879 32.102L78.878 32.101ZM84.268 30.46C84.139 30.25 83.977 30.119 83.789 30.072 83.608 30.027 83.384 30.052 83.083 30.153 82.961 30.194 82.845 30.24 82.734 30.291 82.627 30.341 82.547 30.379 82.495 30.405 82.449 30.428 82.404 30.451 82.358 30.475 82.38 30.517 82.4 30.559 82.422 30.602 82.641 31.029 82.868 31.453 83.1 31.859 83.166 31.978 83.238 32.1 83.313 32.224 83.255 32.187 83.195 32.151 83.134 32.112 82.644 31.815 82.166 31.49 81.711 31.149 81.491 30.983 81.257 30.896 81.014 30.896H81.013C80.799 30.896 80.585 30.922 80.373 30.978 80.182 31.028 80.006 31.1 79.853 31.192 79.68 31.295 79.564 31.419 79.506 31.56 79.498 31.578 79.491 31.596 79.483 31.614 79.489 31.632 79.496 31.651 79.502 31.67 79.9 32.811 80.346 33.918 80.825 34.958 80.933 35.193 81.098 35.333 81.313 35.375 81.392 35.389 81.48 35.393 81.582 35.382 81.741 35.366 81.93 35.319 82.149 35.241 82.3 35.188 82.445 35.128 82.581 35.064 82.714 35.001 82.812 34.952 82.877 34.919 82.931 34.891 82.984 34.865 83.038 34.837 83.012 34.794 82.988 34.751 82.962 34.708 82.786 34.405 82.612 34.092 82.443 33.776 82.334 33.572 82.226 33.367 82.118 33.159 82.103 33.132 82.087 33.102 82.073 33.073 82.148 33.124 82.224 33.174 82.303 33.224 82.803 33.533 83.327 33.822 83.862 34.082 84.126 34.208 84.397 34.245 84.669 34.195 84.911 34.15 85.15 34.077 85.379 33.979 85.606 33.882 85.795 33.781 85.941 33.679 86.098 33.57 86.203 33.46 86.257 33.354 86.268 33.331 86.28 33.308 86.291 33.284 86.275 33.265 86.259 33.246 86.242 33.226 85.545 32.379 84.883 31.447 84.272 30.464L84.268 30.46ZM91.02 29.937C90.916 29.706 90.721 29.476 90.441 29.244 90.167 29.018 89.868 28.836 89.547 28.704 89.229 28.573 88.902 28.484 88.569 28.444 88.24 28.405 87.906 28.407 87.576 28.456 87.246 28.505 86.932 28.594 86.614 28.733 86.298 28.87 86.028 29.037 85.81 29.23 85.585 29.429 85.417 29.654 85.311 29.899 85.203 30.149 85.164 30.422 85.199 30.706 85.235 30.998 85.361 31.294 85.578 31.581 85.799 31.874 86.071 32.101 86.385 32.254 86.703 32.408 87.054 32.498 87.426 32.522 87.619 32.534 87.815 32.529 88.015 32.509 88.202 32.489 88.393 32.455 88.583 32.409 88.978 32.312 89.364 32.163 89.731 31.971 90.096 31.779 90.398 31.568 90.63 31.342 90.862 31.117 91.012 30.885 91.08 30.649 91.148 30.415 91.128 30.178 91.021 29.938L91.02 29.937ZM89.281 30.68C89.254 30.863 89.114 31.015 88.852 31.146 88.583 31.28 88.308 31.33 88.036 31.288 87.761 31.245 87.502 31.091 87.268 30.824 87.038 30.562 86.946 30.326 86.991 30.131 87.036 29.943 87.172 29.8 87.41 29.69 87.568 29.618 87.724 29.58 87.883 29.575 87.972 29.573 88.06 29.58 88.151 29.598 88.412 29.65 88.673 29.801 88.929 30.042 89.189 30.286 89.308 30.498 89.281 30.68ZM20.757 25.857C25.406 21.039 26.756 15.341 26.101 13.181 25.634 11.724 22.855 11.048 19.463 11.563 20.215 16.408 18.723 21.17 15.912 24.328 16.573 19.924 16.395 17.122 15.557 14.303 15.543 14.254 15.527 14.204 15.512 14.154 14.455 10.698 10.745 8.81 7.33 9.993L4.858 10.85C4.858 10.85 7.7 13.444 8.962 22.169 10.135 30.29 7.88 38.356 5.264 42.843 6.796 44.269 8.345 44.819 10.861 44.459 15.222 43.832 16.187 35.674 16.118 28.546L16.187 28.524C17.404 41.397 32.021 46.087 36.926 33.609 30.1 37.128 23.173 37.103 20.757 25.857Z"/><path fill="#fff" d="M46.168 13.411C42.713 14.147 41.219 19.293 41.413 26.326 40.056 23.45 39.816 20.125 41.23 16.622 36.799 15.74 35.894 16.566 35.151 18.326 34.144 20.588 33.342 25.176 33.239 27.842 31.562 24.514 31.403 21.358 32.838 17.776 31.582 17.299 29.459 17.118 28.105 17.406 25.861 17.884 25.398 20.774 26.178 24.443 27.133 28.931 30.602 34.559 33.701 33.899 35.553 33.504 35.513 32.619 35.757 30.966 35.899 29.707 36.087 27.62 36.251 26.468 37.37 29.803 39.435 32.678 41.963 32.139 44.563 31.585 45.135 30.421 45.709 27.172 46.417 23.149 47.741 17.655 51.19 15.32 49.382 13.472 47.308 13.168 46.168 13.411ZM107.515 8.231C105.476 8.18 104.204 10.988 103.409 13.628 102.893 15.291 101.582 19.666 99.943 19.625 99.361 19.61 99.05 18.946 99.077 17.891 99.16 14.579 101.289 11.026 102.309 9.595 101.019 8.761 99.577 8.142 98.305 8.038 95.034 7.773 92.756 14.273 92.661 18.095 92.646 18.679 92.663 19.214 92.713 19.703 91.978 20.826 91.081 21.8 90.211 21.834 87.737 21.931 86.586 19.535 86.195 16.999 88.683 14.46 91.76 13.026 93.047 13.304 90.693 7.201 87.033 9.605 84.113 14.093 85.231 10.077 86.905 6.295 88.891 3.993 87.506 3.064 86.254 2.748 84.945 2.8 83.926 2.84 82.819 3.43 81.919 4.632 79.332 7.965 77.238 15.252 76.533 20.151 75.85 21.395 74.966 22.534 74.051 22.625 71.587 22.869 70.295 20.545 69.755 18.037 72.088 15.354 75.075 13.743 76.376 13.943 73.666 7.99 70.156 10.605 67.505 15.259 68.382 11.183 69.829 7.308 71.677 4.893 70.24 4.047 68.971 3.806 67.666 3.935 66.652 4.036 65.582 4.69 64.754 5.943 62.355 9.447 60.689 16.919 60.288 21.851 59.814 23.243 59.097 24.576 58.04 24.731 57.355 24.832 56.936 24.488 56.682 23.753 55.666 20.847 57.479 15.649 58.289 14.647 56.365 13.825 54.937 13.63 53.832 13.866 52.504 14.098 51.722 15.795 51.03 17.848 50.624 19.086 50.387 20.481 50.258 21.863 50.156 23.424 50.27 24.953 50.666 26.146 51.478 28.42 53.51 30.476 56.067 30.101 58.519 29.74 59.598 28.077 60.391 26.013 60.987 28.517 63.027 29.514 66.99 28.959 66.734 27.849 66.569 26.548 66.499 25.091 66.615 24.055 66.842 23.009 67.26 22.052 67.661 25.012 69.328 28.178 72.445 27.87 74.49 27.668 75.632 26.496 76.493 24.921 77.111 27.092 79.081 28.036 82.789 27.737 82.599 26.615 82.511 25.306 82.527 23.848 82.705 22.822 82.993 21.79 83.466 20.86 83.693 23.84 85.169 27.098 88.298 26.975 90.772 26.878 92.022 25.298 93.073 23.289 93.226 22.979 93.373 22.654 93.513 22.32 93.92 22.978 94.475 23.481 95.182 23.865 96.469 24.568 98.55 24.67 98.55 24.67 95.444 30.177 90.154 34.968 80.616 37.803 71.12 40.627 59.884 39.554 53.993 35.269 53.993 35.269 56.36 42.029 66.185 44.102 73.398 45.624 83.967 45.795 94.351 38.897 101.703 34.013 106.175 27.219 108.43 20.53 109.691 16.79 110.241 13.215 111.849 9.651 110.558 8.853 109.079 8.27 107.514 8.231H107.515Z"/><path fill="#FBB03B" d="M55.8816 12.025C58.9889 13.2582 59.6541 10.9508 59.9612 9.46145C60.2683 7.97214 61.2454 6.53502 61.2454 6.53502C61.2454 6.53502 56.9413 5.21563 55.4071 7.6699C54.2795 9.4748 53.8121 11.2032 55.8816 12.025Z"/></svg>
