<svg width="236" height="99" viewBox="0 0 236 99" fill="none" xmlns="http://www.w3.org/2000/svg">
<g clip-path="url(#clip0_185_411)">
<path fill-rule="evenodd" clip-rule="evenodd" d="M84.1733 18.88C84.1733 18.88 71.1933 0 42.0867 0C18.0933 0 0 13.3733 0 21.24C0 30.2867 18.0933 35.0067 18.0933 49.1667H49.1667C49.1667 40.9067 22.0267 36.58 22.0267 18.88C22.0267 2.75333 64.1133 3.93333 84.1733 18.88Z" fill="url(#paint0_linear_185_411)"/>
<path fill-rule="evenodd" clip-rule="evenodd" d="M84.1733 79.4532C84.1733 79.4532 71.1933 98.3332 42.0867 98.3332C18.0933 98.3332 0 84.9598 0 77.0932C0 68.0465 18.0933 62.9332 18.0933 49.1665H49.1667C49.1667 57.4265 22.0267 61.7532 22.0267 79.4532C22.0267 95.5798 64.1133 94.3998 84.1733 79.4532Z" fill="url(#paint1_linear_185_411)"/>
<path fill-rule="evenodd" clip-rule="evenodd" d="M0.393333 18.4868C0 19.6668 0 20.4535 0 21.2401C0 30.2868 18.0933 35.0068 18.0933 49.1668C18.0933 62.9335 0 68.0468 0 77.0935C0 77.8801 0 78.6668 0.393333 79.4535C-1.96667 70.8002 29.5 63.3268 44.0533 55.4602C47.2 53.4935 49.1667 51.5268 49.1667 49.1668C49.1667 46.8068 47.2 44.8402 44.0533 42.8735C29.5 35.0068 -1.96667 27.5335 0.393333 18.4868Z" fill="url(#paint2_linear_185_411)"/>
<path d="M70.8 52.7067H73.9467C73.5534 54.28 72.7667 55.46 71.1934 56.2467C70.0134 57.0334 68.44 57.82 66.08 57.82C63.72 57.82 61.7534 57.0334 60.5734 55.46C59 54.28 58.2134 52.3134 58.2134 49.56C58.2134 47.2 59 45.2334 60.5734 43.66C61.7534 42.48 63.72 41.6934 66.08 41.6934C68.8334 41.6934 70.8 42.48 72.3734 43.66C73.5534 45.2334 74.34 47.2 74.34 49.56C74.34 49.9534 74.34 49.9534 74.34 49.9534C74.34 50.3467 74.34 50.3467 74.34 50.3467C74.34 50.74 74.34 50.74 74.34 50.74H62.9334C62.9334 51.92 63.3267 52.7067 64.1134 53.4934C64.5067 53.8867 65.2934 54.28 66.4734 54.28C67.26 54.28 67.6534 54.28 68.44 53.8867C68.44 53.8867 68.44 53.8867 68.8334 53.8867C68.8334 53.4934 68.8334 53.4934 69.2267 53.4934C69.2267 53.1 69.2267 53.1 69.62 53.1C70.0134 52.7067 70.4067 52.7067 70.8 52.7067ZM62.9334 47.9867H69.62C69.62 47.2 69.2267 46.4134 68.8334 46.02C68.0467 45.2334 67.26 45.2334 66.4734 45.2334C65.2934 45.2334 64.5067 45.2334 64.1134 46.02C63.3267 46.4134 62.9334 47.2 62.9334 47.9867ZM93.6134 57.4267H91.2534C90.86 57.4267 90.0734 57.0334 89.68 56.64C89.2867 56.64 89.2867 55.8534 89.2867 55.46V47.5934C89.2867 46.8067 88.8934 46.02 88.1067 45.6267C87.7134 45.2334 86.9267 44.84 86.14 44.84C85.3534 44.84 84.5667 45.2334 84.1734 45.6267C83.3867 46.02 83.3867 46.8067 83.3867 47.5934V57.4267H78.6667V48.38C78.6667 45.6267 79.4534 44.0534 81.0267 43.2667C82.6 42.0867 84.1734 41.6934 86.14 41.6934C88.1067 41.6934 89.68 42.0867 91.2534 42.8734C92.8267 44.0534 93.6134 45.6267 93.6134 48.38V57.4267ZM109.347 37.3667H111.707C112.493 37.3667 112.887 37.76 113.28 38.1534C113.673 38.5467 114.067 38.94 114.067 39.3334V50.74C114.067 53.4934 112.887 55.46 111.313 56.2467C109.347 57.0334 107.773 57.82 105.413 57.82C104.233 57.82 103.447 57.4267 102.267 57.0334C101.087 57.0334 100.3 56.2467 99.5134 55.46C98.3334 54.28 97.94 52.3134 97.94 49.9534C97.94 47.2 98.3334 45.2334 99.5134 44.0534C101.087 42.48 102.66 41.6934 104.627 41.6934C105.807 41.6934 106.593 42.0867 107.38 42.48C108.167 42.8734 108.953 43.2667 109.347 44.0534V37.3667ZM102.267 49.56C102.267 51.1334 102.66 52.3134 103.053 53.1C103.84 53.8867 104.627 54.28 105.807 54.28C106.987 54.28 108.167 53.8867 108.56 53.1C109.347 52.3134 109.347 51.1334 109.347 49.56C109.347 48.38 109.347 47.2 108.56 46.4134C107.773 45.6267 106.987 45.2334 105.807 45.2334C104.627 45.2334 103.84 45.6267 103.053 46.4134C102.66 47.2 102.267 48.38 102.267 49.56ZM120.753 55.8534C119.573 55.46 119.18 54.28 118.787 53.1C118.393 51.92 118 50.74 118 49.56C118 48.38 118.393 47.5934 118.393 46.4134C118.787 45.2334 119.18 44.4467 119.967 43.66C121.147 42.8734 122.72 42.0867 124.293 41.6934C126.26 41.6934 127.833 41.6934 129.013 42.0867C130.98 42.8734 132.16 43.66 132.947 45.2334C133.733 46.4134 133.733 47.9867 133.733 49.56C133.733 50.74 133.733 51.92 133.34 52.7067C133.34 53.4934 132.947 54.28 132.16 55.0667C131.373 56.2467 129.8 57.0334 128.227 57.4267C127.047 57.82 125.473 57.82 123.9 57.4267C122.72 57.0334 121.54 56.64 120.753 55.8534ZM123.507 46.02C122.72 46.8067 122.327 47.9867 122.327 49.9534C122.72 51.5267 122.72 52.7067 123.507 53.4934C123.9 53.8867 124.293 53.8867 125.08 54.28C125.473 54.28 126.26 54.28 127.047 54.28C127.44 54.28 128.227 53.8867 128.62 53.1C129.013 52.3134 129.407 51.1334 129.407 49.56C129.407 48.38 129.407 47.2 128.62 46.4134C128.227 46.02 127.833 45.2334 127.047 45.2334C126.26 44.84 125.867 44.84 125.08 45.2334C124.293 45.2334 123.9 45.6267 123.507 46.02ZM138.453 57.4267V49.9534C138.453 48.38 138.453 47.2 139.24 46.02C139.633 45.2334 140.42 44.4467 141.207 43.66C141.993 43.2667 142.78 42.8734 143.96 42.48C145.14 42.0867 146.32 42.0867 147.5 42.0867C147.5 42.0867 147.5 42.0867 147.893 42.0867V46.02H146.713C145.14 46.02 144.353 46.4134 143.96 46.8067C143.173 47.5934 142.78 48.38 142.78 49.56V57.4267H138.453ZM156.547 60.9667C156.547 61.7534 156.547 62.1467 156.153 62.54C155.367 62.9334 154.973 62.9334 154.58 62.9334H152.22V48.7734C152.22 46.02 153.007 44.0534 154.973 43.2667C156.547 42.0867 158.513 41.6934 160.48 41.6934C161.66 41.6934 162.84 42.0867 164.02 42.0867C165.2 42.48 165.987 43.2667 166.38 43.66C167.953 45.2334 168.347 47.2 168.347 49.56C168.347 51.92 167.953 53.8867 166.38 55.46C165.2 57.0334 163.627 57.82 161.66 57.82C160.48 57.82 159.693 57.4267 158.513 57.0334C157.727 56.64 157.333 56.2467 156.547 55.46V60.9667ZM164.02 49.9534C164.02 48.38 163.627 47.2 163.233 46.4134C162.447 45.6267 161.66 45.2334 160.087 45.2334C158.907 45.2334 158.12 45.6267 157.727 46.4134C156.94 47.2 156.547 48.38 156.547 49.9534C156.547 51.1334 156.94 52.3134 157.727 53.1C158.12 53.8867 159.3 54.28 160.48 54.28C161.66 54.28 162.447 53.8867 163.233 53.1C163.627 52.3134 164.02 51.1334 164.02 49.9534ZM183.687 46.4134C183.293 45.6267 182.113 45.2334 181.327 45.2334C179.753 45.2334 178.967 45.6267 178.18 46.4134C177.787 47.2 177.393 47.9867 177.393 49.56V57.4267H173.067V37.76H175.033C175.82 37.76 176.213 37.76 176.607 38.1534C177 38.5467 177.393 38.94 177.393 39.3334V44.0534C178.18 42.8734 179.36 42.0867 180.54 42.0867C182.113 41.6934 183.293 41.6934 184.867 42.0867C186.047 42.48 186.833 43.2667 187.62 44.4467C188.8 45.2334 189.193 46.8067 189.193 48.38V57.4267H184.867V49.56C184.867 48.7734 184.473 48.38 184.473 47.9867C184.473 47.2 184.08 46.8067 183.687 46.4134ZM193.913 42.0867H196.273C196.667 42.0867 197.453 42.0867 197.847 42.48C198.24 42.8734 198.633 43.66 198.633 44.0534V57.4267H193.913V42.0867ZM193.913 37.76H196.273C196.667 37.76 197.453 37.76 197.847 38.1534C198.24 38.5467 198.633 38.94 198.633 39.3334V40.9067H193.913V37.76ZM217.513 57.4267H215.153C214.367 57.4267 213.973 57.0334 213.58 56.64C213.187 56.64 212.793 55.8534 212.793 55.46V47.5934C212.793 46.8067 212.793 46.02 212.007 45.6267C211.22 45.2334 210.827 44.84 210.04 44.84C209.253 44.84 208.467 45.2334 207.68 45.6267C207.287 46.02 206.893 46.8067 206.893 47.5934V57.4267H202.567V48.38C202.567 45.6267 202.96 44.0534 204.533 43.2667C206.107 42.0867 208.073 41.6934 209.647 41.6934C211.613 41.6934 213.58 42.0867 215.153 42.8734C216.727 44.0534 217.513 45.6267 217.513 48.38V57.4267ZM231.673 49.56C231.28 49.9534 230.493 50.3467 229.313 50.3467C228.133 50.74 227.74 50.74 227.74 50.74C226.953 50.74 226.56 51.1334 226.167 51.5267C225.773 51.92 225.773 52.3134 225.773 52.7067C225.773 53.1 225.773 53.8867 226.167 54.28C226.56 54.28 227.347 54.6734 227.74 54.6734C229.313 54.6734 230.1 54.28 230.887 53.4934C231.28 53.1 231.673 52.3134 231.673 51.1334V49.56ZM232.853 56.64C232.067 57.0334 230.887 57.4267 230.1 57.4267C228.92 57.4267 228.133 57.82 227.347 57.82C225.773 57.82 224.2 57.4267 223.02 56.64C221.84 55.8534 221.447 54.6734 221.447 52.7067C221.447 51.1334 221.84 49.9534 223.02 49.56C224.2 48.7734 225.38 48.38 226.953 47.9867C227.347 47.9867 227.347 47.9867 227.74 47.9867C228.133 47.9867 228.527 47.9867 228.92 47.5934C230.887 47.5934 231.673 47.2 231.673 46.4134C231.673 45.6267 231.28 45.2334 230.887 45.2334C230.1 44.84 229.313 44.84 228.92 44.84C228.133 44.84 227.74 44.84 227.347 45.2334C226.953 45.2334 226.56 45.6267 226.167 46.02H221.84C222.233 44.84 222.627 43.66 223.807 42.8734C224.987 42.0867 226.56 41.6934 228.527 41.6934C231.28 41.6934 232.853 42.0867 234.033 42.8734C235.213 43.66 236 44.84 236 46.02V51.1334C236 52.7067 235.607 53.8867 235.213 55.0667C234.427 55.8534 233.64 56.2467 232.853 56.64Z" fill="#0B0B0B"/>
</g>
<defs>
<linearGradient id="paint0_linear_185_411" x1="39.0074" y1="50.7585" x2="45.1716" y2="-1.63792" gradientUnits="userSpaceOnUse">
<stop stop-color="#0B0B0B"/>
<stop offset="0.231373" stop-color="#0B0B0B"/>
<stop offset="1" stop-color="#0B0B0B"/>
</linearGradient>
<linearGradient id="paint1_linear_185_411" x1="39.0074" y1="47.4826" x2="45.1716" y2="99.879" gradientUnits="userSpaceOnUse">
<stop stop-color="#0B0B0B"/>
<stop offset="0.231373" stop-color="#0B0B0B"/>
<stop offset="1" stop-color="#0B0B0B"/>
</linearGradient>
<linearGradient id="paint2_linear_185_411" x1="-0.443743" y1="47.8452" x2="49.5639" y2="50.3964" gradientUnits="userSpaceOnUse">
<stop stop-color="#0B0B0B"/>
<stop offset="0.231373" stop-color="#0B0B0B"/>
<stop offset="1" stop-color="#0B0B0B"/>
</linearGradient>
<clipPath id="clip0_185_411">
<rect width="236" height="98.3333" fill="white"/>
</clipPath>
</defs>
</svg>
