<svg width="236" height="54" viewBox="0 0 236 54" fill="none" xmlns="http://www.w3.org/2000/svg">
<g clip-path="url(#clip0_185_385)">
<path d="M90.2458 32.8818H92.4606V45.9508H90.2458V32.8818Z" fill="#0B0B0B"/>
<path d="M107.724 32.8818H109.939V45.9508H107.545L100.142 36.4135V45.9508H97.9276V32.8818H100.142L107.724 42.6387V32.8818Z" fill="#0B0B0B"/>
<path d="M120.354 34.8971V45.9309H118.14V34.8971H114.169V32.8818H124.305V34.8971H120.354Z" fill="#0B0B0B"/>
<path d="M137.753 32.8818V34.9568H130.79V38.4087H137.055V40.364H130.79V43.8557H137.993V45.9308H128.575V32.8618L137.753 32.8818Z" fill="#0B0B0B"/>
<path d="M153.097 37.1117C153.097 39.2666 152.159 40.6234 150.283 41.1821L153.695 45.9308H150.902L147.789 41.5412H144.896V45.9308H142.681V32.8618H147.53C149.525 32.8618 150.942 33.201 151.8 33.8794C152.658 34.5578 153.097 35.6352 153.097 37.1117ZM150.164 38.9673C150.603 38.5882 150.842 37.9697 150.842 37.1117C150.842 36.2538 150.603 35.6751 150.144 35.3559C149.685 35.0367 148.867 34.877 147.67 34.877H144.876V39.546H147.63C148.867 39.546 149.725 39.3464 150.164 38.9673Z" fill="#0B0B0B"/>
<path d="M160 42.9579L158.684 45.9308H156.329L162.075 32.8618H164.43L170.176 45.9308H167.822L166.505 42.9579H160ZM165.627 40.9227L163.253 35.5355L160.878 40.9227H165.627Z" fill="#0B0B0B"/>
<path d="M179.833 43.9355C180.591 43.9355 181.25 43.8158 181.789 43.5564C182.327 43.297 182.906 42.898 183.504 42.3393L184.921 43.7958C183.544 45.3322 181.868 46.0904 179.893 46.0904C177.918 46.0904 176.282 45.4519 174.985 44.1749C173.688 42.898 173.029 41.3018 173.029 39.3464C173.029 37.391 173.688 35.7749 175.025 34.4979C176.341 33.201 178.017 32.5625 180.053 32.5625C182.068 32.5625 183.764 33.3007 185.121 34.7972L183.724 36.3336C183.105 35.735 182.507 35.316 181.948 35.0765C181.389 34.8371 180.751 34.7174 179.993 34.7174C178.676 34.7174 177.559 35.1364 176.661 35.9944C175.763 36.8523 175.324 37.9298 175.324 39.2666C175.324 40.6034 175.763 41.7008 176.661 42.5987C177.559 43.4966 178.616 43.9355 179.833 43.9355Z" fill="#0B0B0B"/>
<path d="M194.438 34.8971V45.9309H192.224V34.8971H188.253V32.8818H198.389V34.8971H194.438Z" fill="#0B0B0B"/>
<path d="M202.659 32.8818H204.874V45.9508H202.659V32.8818Z" fill="#0B0B0B"/>
<path d="M216.307 45.9308H213.832L208.585 32.8618H211.059L215.07 42.6187L219.08 32.8618H221.554L216.307 45.9308Z" fill="#0B0B0B"/>
<path d="M234.484 32.8818V34.9568H227.52V38.4087H233.785V40.364H227.52V43.8557H234.723V45.9308H225.325V32.8618L234.484 32.8818Z" fill="#0B0B0B"/>
<path fill-rule="evenodd" clip-rule="evenodd" d="M16.0419 27.4547C16.1018 20.2917 22.8657 11.0735 34.3984 6.04548C54.6902 -2.8135 66.3226 5.34713 69.3354 13.0888C72.1488 20.2917 66.6019 32.9417 56.9848 42.3593C63.8485 37.451 69.4352 32.1635 73.326 27.0357C78.4738 20.2318 80.6087 13.6873 78.6533 8.61937C75.7602 1.11717 64.4471 -1.2971 50.121 0.738072C35.795 2.77324 24.7612 6.245 15.9222 10.7543C6.08554 15.7624 0.997613 21.6884 0.279317 28.4723C-0.778173 38.3089 9.77678 51.5375 33.8995 53.1537C46.5695 54.0117 58.7406 54.291 82.2847 48.5845C79.4714 48.6843 15.7825 56.5855 16.0419 27.4547Z" fill="#0B0B0B"/>
<path fill-rule="evenodd" clip-rule="evenodd" d="M39.4663 38.9076C47.0284 38.9076 53.1937 32.7423 53.1937 25.2002C53.1937 17.6381 47.0284 11.4927 39.4663 11.4927C31.9043 11.4927 25.7588 17.658 25.7588 25.2002C25.7389 32.7423 31.9043 38.9076 39.4663 38.9076Z" fill="#0B0B0B"/>
<path d="M103.614 21.4891H96.1518L94.7751 24.9209H89.6871L97.4687 7.30273H102.377L110.179 24.9209H104.991L103.614 21.4891ZM102.158 17.8178L99.8829 12.1712L97.6283 17.8178H102.158Z" fill="#0B0B0B"/>
<path d="M129.712 24.9209L129.652 15.5831L125.123 23.185H122.908L118.399 15.8225V24.9209H113.79V7.30273H117.9L124.085 17.4786L130.131 7.30273H134.241L134.301 24.9209H129.712Z" fill="#0B0B0B"/>
<path d="M142.023 23.1251C140.566 21.6885 139.848 19.6733 139.848 17.0595V7.28271H144.836V16.8999C144.836 19.7132 145.954 21.1299 148.188 21.1299C150.403 21.1299 151.52 19.7132 151.52 16.8999V7.28271H156.429V17.0595C156.429 19.6733 155.71 21.7085 154.254 23.1251C152.797 24.5617 150.762 25.2601 148.148 25.2601C145.515 25.28 143.48 24.5617 142.023 23.1251Z" fill="#0B0B0B"/>
<path d="M164.031 24.7411C162.694 24.382 161.597 23.9231 160.759 23.3245L162.395 19.6532C163.193 20.172 164.091 20.591 165.148 20.9102C166.186 21.2295 167.203 21.3891 168.221 21.3891C170.136 21.3891 171.094 20.9102 171.094 19.9525C171.094 19.4537 170.815 19.0746 170.276 18.8351C169.737 18.5957 168.859 18.3363 167.642 18.0769C166.325 17.7976 165.208 17.4784 164.31 17.1591C163.412 16.8399 162.654 16.3012 162.016 15.5829C161.377 14.8646 161.058 13.8869 161.058 12.6698C161.058 11.5923 161.357 10.6346 161.936 9.75668C162.514 8.89872 163.392 8.20038 164.569 7.70156C165.727 7.20274 167.163 6.94336 168.859 6.94336C170.017 6.94336 171.154 7.08303 172.291 7.34241C173.409 7.6018 174.406 7.9809 175.264 8.47971L173.728 12.1909C172.052 11.293 170.416 10.8341 168.839 10.8341C167.842 10.8341 167.123 10.9738 166.665 11.2731C166.206 11.5724 165.986 11.9515 165.986 12.4104C165.986 12.8893 166.246 13.2284 166.784 13.4679C167.323 13.7073 168.181 13.9467 169.378 14.2061C170.715 14.4855 171.832 14.8047 172.71 15.1239C173.588 15.4432 174.346 15.962 175.005 16.6803C175.643 17.3986 175.982 18.3563 175.982 19.5933C175.982 20.6508 175.683 21.6086 175.104 22.4665C174.526 23.3245 173.628 24.0029 172.471 24.5217C171.294 25.0404 169.877 25.2798 168.181 25.2798C166.744 25.2798 165.368 25.1003 164.031 24.7411Z" fill="#0B0B0B"/>
<path d="M197.232 7.30273V24.9209H193.122L185.34 15.5232V24.9209H180.452V7.30273H184.562L192.343 16.7004V7.30273H197.232Z" fill="#0B0B0B"/>
<path d="M217.105 21.0701V24.9209H202.958V7.30273H216.785V11.1536H207.887V14.1265H215.708V17.8577H207.887V21.09H217.105V21.0701Z" fill="#0B0B0B"/>
<path d="M225.824 11.2534H220.417V7.30273H236.2V11.2534H230.812V24.9209H225.824V11.2534Z" fill="#0B0B0B"/>
</g>
<defs>
<clipPath id="clip0_185_385">
<rect width="236" height="53.5729" fill="white"/>
</clipPath>
</defs>
</svg>
