<svg width="100" height="40" viewBox="0 0 100 40" fill="none" xmlns="http://www.w3.org/2000/svg">
<g clip-path="url(#clip0_11_764)">
<path d="M47.25 19.6263V31.2521H43.5V2.5H53.25C55.625 2.5 57.875 3.37506 59.625 5.00018C61.375 6.50029 62.25 8.75046 62.25 11.1256C62.25 13.5008 61.375 15.626 59.625 17.2511C57.875 18.8762 55.75 19.7513 53.25 19.7513L47.25 19.6263ZM47.25 6.00026V16.001H53.5C54.875 16.001 56.25 15.501 57.125 14.5009C59.125 12.6257 59.125 9.50051 57.25 7.62538L57.125 7.50037C56.125 6.50029 54.875 5.87525 53.5 6.00026H47.25Z" fill="#5F6368"/>
<path d="M70.875 11.0007C73.625 11.0007 75.75 11.7508 77.375 13.2509C79 14.751 79.75 16.7512 79.75 19.2514V31.2522H76.25V28.502H76.125C74.625 30.7522 72.5 31.8773 70 31.8773C67.875 31.8773 66 31.2522 64.5 30.0021C63.125 28.7521 62.25 27.0019 62.25 25.1268C62.25 23.1266 63 21.5015 64.5 20.2514C66 19.0013 68.125 18.5013 70.625 18.5013C72.875 18.5013 74.625 18.8763 76 19.7514V18.8763C76 17.6262 75.5 16.3761 74.5 15.6261C73.5 14.751 72.25 14.251 70.875 14.251C68.75 14.251 67.125 15.126 66 16.8762L62.75 14.876C64.75 12.2508 67.375 11.0007 70.875 11.0007ZM66.125 25.2518C66.125 26.2519 66.625 27.1269 67.375 27.627C68.25 28.252 69.25 28.627 70.25 28.627C71.75 28.627 73.25 28.002 74.375 26.8769C75.625 25.7518 76.25 24.3767 76.25 22.8766C75.125 22.0016 73.5 21.5015 71.375 21.5015C69.875 21.5015 68.625 21.8765 67.625 22.6266C66.625 23.2516 66.125 24.1267 66.125 25.2518Z" fill="#5F6368"/>
<path d="M100 11.6257L87.625 40.0028H83.875L88.5 30.1271L80.375 11.7507H84.375L90.25 25.8768H90.375L96.125 11.7507H100V11.6257Z" fill="#5F6368"/>
<path d="M32.375 17.1262C32.375 16.0011 32.25 14.8761 32.125 13.751H16.5V20.1264H25.375C25 22.1266 23.875 24.0017 22.125 25.1268V29.2521H27.5C30.625 26.3769 32.375 22.1266 32.375 17.1262Z" fill="#4285F4"/>
<path d="M16.5 33.2515C21 33.2515 24.75 31.7515 27.5 29.2515L22.125 25.1265C20.625 26.1265 18.75 26.7515 16.5 26.7515C12.25 26.7515 8.5 23.8765 7.25 19.8765H1.75V24.1265C4.625 29.7515 10.25 33.2515 16.5 33.2515Z" fill="#34A853"/>
<path d="M7.25 19.8765C6.5 17.8763 6.5 15.6262 7.25 13.501V9.25073H1.75C-0.625001 13.876 -0.625001 19.3764 1.75 24.1268L7.25 19.8765Z" fill="#FBBC04"/>
<path d="M16.5 6.75013C18.875 6.75013 21.125 7.62513 22.875 9.25013L27.625 4.50013C24.625 1.75013 20.625 0.125133 16.625 0.250133C10.375 0.250133 4.625 3.75013 1.875 9.37513L7.375 13.6251C8.5 9.62513 12.25 6.75013 16.5 6.75013Z" fill="#EA4335"/>
</g>
<defs>
<clipPath id="clip0_11_764">
<rect width="100" height="40.0029" fill="white"/>
</clipPath>
</defs>
</svg>
