<svg width="100" height="23" viewBox="0 0 100 23" fill="none" xmlns="http://www.w3.org/2000/svg">
<g clip-path="url(#clip0_11_808)">
<path d="M17.5976 0H12.6738C12.6738 4.04104 10.819 7.72876 7.59538 10.1578L5.65234 11.6152L13.2037 21.9055H19.4081L12.453 12.4323C15.7429 9.1641 17.5976 4.74767 17.5976 0Z" fill="black"/>
<path d="M5.03422 0H0V21.9055H5.03422V0Z" fill="black"/>
<path d="M25.6127 0H20.8655V21.9055H25.6127V0Z" fill="black"/>
<path d="M67.2556 6.33765C65.445 6.33765 63.7228 6.8897 62.5746 8.45753V6.75721H58.0703V21.9056H62.6409V13.956C62.6409 11.6595 64.1865 10.5333 66.0412 10.5333C68.0284 10.5333 69.1765 11.7257 69.1765 13.9339V21.9277H73.7029V12.2778C73.7029 8.7446 70.8988 6.33765 67.2556 6.33765Z" fill="black"/>
<path d="M39.9648 6.75721V7.72882C38.6841 6.84554 37.1385 6.33765 35.4605 6.33765C31.0445 6.33765 27.4675 9.91496 27.4675 14.3314C27.4675 18.7478 31.0445 22.3251 35.4605 22.3251C37.1385 22.3251 38.6841 21.8173 39.9648 20.934V21.9056H44.4912V6.75721H39.9648ZM35.8358 18.2179C33.5616 18.2179 31.729 16.4734 31.729 14.3314C31.729 12.1894 33.5616 10.4449 35.8358 10.4449C38.1101 10.4449 39.9427 12.1894 39.9427 14.3314C39.9427 16.4734 38.1101 18.2179 35.8358 18.2179Z" fill="black"/>
<path d="M51.5125 8.72239V6.75708H46.8757V21.9055H51.5346V14.8392C51.5346 12.4543 54.1179 11.1735 55.9064 11.1735C55.9285 11.1735 55.9506 11.1735 55.9506 11.1735V6.75708C54.1179 6.75708 52.4178 7.55204 51.5125 8.72239Z" fill="black"/>
<path d="M87.7897 6.75721V7.72882C86.5091 6.84554 84.9635 6.33765 83.2854 6.33765C78.8694 6.33765 75.2925 9.91496 75.2925 14.3314C75.2925 18.7478 78.8694 22.3251 83.2854 22.3251C84.9635 22.3251 86.5091 21.8173 87.7897 20.934V21.9056H92.3161V6.75721H87.7897ZM83.6608 18.2179C81.3865 18.2179 79.5539 16.4734 79.5539 14.3314C79.5539 12.1894 81.3865 10.4449 83.6608 10.4449C85.935 10.4449 87.7676 12.1894 87.7676 14.3314C87.7897 16.4734 85.935 18.2179 83.6608 18.2179Z" fill="black"/>
<path d="M95.827 7.19874C95.827 6.97794 95.6724 6.84546 95.4295 6.84546H95.01V7.99362H95.2087V7.5741H95.4295L95.6062 7.99362H95.827L95.6283 7.52994C95.7607 7.4637 95.827 7.3533 95.827 7.19874ZM95.4295 7.37538H95.2087V7.0221H95.4295C95.562 7.0221 95.6283 7.08834 95.6283 7.19874C95.6283 7.30914 95.5841 7.37538 95.4295 7.37538Z" fill="black"/>
<path d="M95.3632 6.35962C94.767 6.35962 94.2812 6.84538 94.2812 7.44154C94.3033 8.03769 94.767 8.52345 95.3632 8.52345C95.9593 8.52345 96.4451 8.03769 96.4451 7.44154C96.4451 6.84538 95.9593 6.35962 95.3632 6.35962ZM95.3632 8.32473C94.8774 8.32473 94.502 7.92729 94.502 7.44154C94.502 6.95578 94.8995 6.55834 95.3632 6.55834C95.8489 6.55834 96.2243 6.95578 96.2243 7.44154C96.2243 7.92729 95.8268 8.32473 95.3632 8.32473Z" fill="black"/>
<path d="M97.1518 16.5396C95.5841 16.5396 94.3035 17.8202 94.3035 19.3879C94.3035 20.9555 95.5841 22.2362 97.1518 22.2362C98.7195 22.2362 100 20.9555 100 19.3879C100 17.7981 98.7195 16.5396 97.1518 16.5396Z" fill="black"/>
</g>
<defs>
<clipPath id="clip0_11_808">
<rect width="100" height="22.3251" fill="white"/>
</clipPath>
</defs>
</svg>
