<?xml version="1.0" encoding="UTF-8"?>
<svg xmlns="http://www.w3.org/2000/svg" xmlns:xlink="http://www.w3.org/1999/xlink" width="300px" height="121px" viewBox="0 0 301 121" version="1.1">
<g id="surface1">
<path style=" stroke:none;fill-rule:nonzero;fill:rgb(100%,28.235295%,0%);fill-opacity:1;" d="M 230.769531 36.636719 C 227.980469 34.914062 225.140625 34.003906 222.328125 33.929688 C 222.265625 33.929688 222.207031 33.929688 222.144531 33.929688 C 220.605469 33.929688 218.515625 34.414062 216.542969 36.4375 C 214.683594 35.265625 211.9375 33.898438 209 33.65625 C 208.789062 33.636719 208.585938 33.632812 208.378906 33.632812 C 206.847656 33.632812 204.542969 34.105469 202.273438 36.371094 C 201.789062 36.855469 201.324219 37.402344 200.882812 38.011719 C 199.472656 36.789062 198.019531 36.25 196.714844 36.070312 C 197.113281 35.480469 197.511719 34.949219 197.917969 34.480469 L 200.949219 30.964844 L 197.097656 28.378906 C 194.625 26.726562 192.105469 25.917969 189.390625 25.917969 C 189.203125 25.917969 189.019531 25.921875 188.832031 25.929688 C 186.003906 26.039062 183.25 27.613281 181.269531 30.242188 C 179.566406 32.445312 177.972656 35.546875 176.515625 39.484375 C 175.0625 38.175781 173.382812 37.421875 171.617188 37.28125 C 171.976562 36.667969 172.347656 36.113281 172.722656 35.621094 L 175.542969 31.933594 L 171.542969 29.578125 C 169.226562 28.210938 166.925781 27.550781 164.503906 27.550781 C 164.0625 27.550781 163.605469 27.574219 163.148438 27.617188 C 160.507812 27.878906 158.003906 29.421875 156.199219 31.878906 L 155.304688 31.613281 C 155.070312 31.539062 152.941406 30.910156 150.445312 30.910156 C 146.671875 30.910156 143.679688 32.375 142.019531 35.035156 C 141.25 36.265625 140.71875 37.375 140.386719 38.429688 C 139.871094 40.082031 139.84375 41.640625 140.304688 43.066406 C 140.078125 43.195312 139.855469 43.339844 139.636719 43.496094 C 137.574219 42.175781 135.265625 41.453125 132.988281 41.453125 C 132.308594 41.453125 131.65625 41.519531 131.042969 41.652344 C 129.0625 42.074219 126.570312 43.234375 124.539062 46.203125 C 122.894531 45.910156 121.507812 45.769531 120.316406 45.769531 C 118.015625 45.769531 116.1875 46.304688 114.722656 47.410156 C 114.367188 47.679688 114.046875 47.972656 113.765625 48.273438 L 113.734375 48.261719 C 112.058594 47.625 109.742188 47.242188 107.539062 47.242188 C 107.246094 47.242188 106.960938 47.25 106.683594 47.261719 C 106.691406 46.105469 106.5625 45.050781 106.285156 44.140625 L 106.277344 44.109375 L 106.265625 44.078125 C 105.8125 42.667969 104.652344 40.742188 101.671875 39.566406 C 100.023438 38.917969 98.039062 38.589844 95.78125 38.589844 C 94.554688 38.589844 93.269531 38.6875 91.960938 38.886719 L 87.882812 39.503906 L 88.082031 40.773438 C 87.394531 39.964844 86.605469 39.238281 85.730469 38.597656 C 83.433594 36.929688 80.617188 36.007812 77.789062 36.007812 C 76.285156 36.007812 74.800781 36.257812 73.367188 36.753906 L 69.726562 38.019531 L 64.800781 39.726562 L 67.617188 44.121094 C 67.648438 44.175781 71.285156 48.96875 72.855469 57.230469 C 73.667969 61.484375 73.839844 69.734375 72.277344 76.539062 C 70.574219 83.9375 67.839844 87.46875 66.96875 89.660156 C 66.96875 89.660156 68.765625 92.34375 71.375 93.886719 C 75.039062 96.046875 80.261719 95.460938 81.761719 94.84375 C 85.367188 93.355469 88.417969 90.152344 90.105469 83.976562 C 90.140625 83.855469 90.171875 83.734375 90.203125 83.609375 C 90.382812 83.804688 90.5625 83.992188 90.746094 84.179688 C 92.65625 86.113281 94.828125 87.632812 97.199219 88.6875 C 99.625 89.765625 102.136719 90.3125 104.675781 90.3125 C 108.347656 90.3125 111.867188 89.140625 114.851562 86.921875 C 117.96875 84.605469 120.402344 81.273438 122.089844 77.015625 C 123.101562 77.363281 124.035156 77.472656 124.8125 77.472656 C 125.398438 77.472656 125.988281 77.410156 126.570312 77.289062 C 131.828125 76.167969 133.683594 73.21875 134.667969 69.527344 C 135.246094 76.734375 139.691406 83.527344 146.613281 88.507812 C 149.445312 90.8125 153.511719 93.191406 159.148438 94.59375 C 164.125 96.09375 169.625 96.835938 175.421875 96.589844 C 207.515625 95.234375 221.367188 75.5 226.25 60.761719 C 226.6875 59.683594 227.097656 58.585938 227.46875 57.476562 C 228.226562 55.226562 228.808594 53.050781 229.375 50.945312 C 230.230469 47.757812 231.035156 44.746094 232.355469 41.828125 L 233.839844 38.53125 L 230.769531 36.632812 Z M 230.769531 36.636719 "/>
<path style=" stroke:none;fill-rule:nonzero;fill:rgb(100%,100%,100%);fill-opacity:1;" d="M 160.273438 72.210938 C 159.867188 71.800781 159.265625 71.460938 158.433594 71.167969 C 157.859375 70.964844 157.292969 70.855469 156.746094 70.847656 C 156.183594 70.839844 155.648438 70.945312 155.15625 71.164062 C 154.652344 71.390625 154.191406 71.75 153.785156 72.226562 C 153.371094 72.71875 153.042969 73.355469 152.808594 74.117188 C 152.554688 74.953125 152.457031 75.742188 152.53125 76.449219 C 152.605469 77.167969 152.820312 77.820312 153.179688 78.382812 C 153.53125 78.9375 154.003906 79.40625 154.582031 79.777344 C 155.15625 80.148438 155.8125 80.417969 156.523438 80.582031 C 156.941406 80.683594 157.328125 80.734375 157.667969 80.742188 C 157.722656 80.742188 157.78125 80.746094 157.835938 80.742188 C 158.191406 80.734375 158.484375 80.710938 158.707031 80.667969 C 159.082031 80.589844 159.363281 80.457031 159.558594 80.253906 C 159.761719 80.050781 159.882812 79.800781 159.925781 79.519531 C 159.96875 79.230469 159.945312 78.960938 159.859375 78.71875 C 159.78125 78.488281 159.652344 78.277344 159.480469 78.09375 C 159.445312 78.054688 159.410156 78.015625 159.375 77.976562 C 159.324219 77.992188 159.277344 78.003906 159.226562 78.019531 C 158.960938 78.085938 158.683594 78.144531 158.402344 78.175781 C 158.132812 78.210938 157.808594 78.179688 157.441406 78.089844 C 156.738281 77.914062 156.230469 77.570312 155.9375 77.078125 C 155.660156 76.605469 155.613281 76.019531 155.800781 75.300781 C 155.976562 74.609375 156.261719 74.148438 156.667969 73.890625 C 157.070312 73.636719 157.5625 73.613281 158.179688 73.804688 C 158.5 73.902344 158.769531 74.035156 158.980469 74.191406 C 159.210938 74.363281 159.425781 74.550781 159.621094 74.746094 C 159.660156 74.785156 159.695312 74.824219 159.734375 74.863281 C 159.785156 74.84375 159.835938 74.824219 159.886719 74.808594 C 160.09375 74.738281 160.292969 74.613281 160.46875 74.445312 C 160.664062 74.253906 160.792969 74.007812 160.84375 73.699219 C 160.9375 73.171875 160.742188 72.675781 160.28125 72.210938 Z M 160.273438 72.210938 "/>
<path style=" stroke:none;fill-rule:nonzero;fill:rgb(100%,100%,100%);fill-opacity:1;" d="M 169.226562 79.035156 C 169.003906 78.46875 168.789062 77.882812 168.585938 77.300781 C 168.375 76.703125 168.179688 76.121094 167.996094 75.554688 C 167.777344 74.878906 167.628906 74.425781 167.5 74.046875 C 167.386719 73.695312 167.125 73.429688 166.71875 73.246094 C 166.367188 73.085938 165.957031 72.976562 165.5 72.921875 C 165.179688 72.886719 164.851562 72.882812 164.527344 72.917969 C 164.1875 72.953125 163.9375 73.003906 163.761719 73.074219 C 163.730469 73.085938 163.695312 73.101562 163.664062 73.113281 C 163.644531 73.144531 163.628906 73.175781 163.609375 73.210938 C 163.53125 73.355469 163.417969 73.570312 163.273438 73.851562 C 163.125 74.132812 162.964844 74.449219 162.785156 74.808594 C 162.601562 75.160156 162.40625 75.539062 162.199219 75.933594 C 161.984375 76.34375 161.777344 76.738281 161.585938 77.117188 C 161.394531 77.507812 161.207031 77.871094 161.039062 78.210938 C 160.863281 78.570312 160.726562 78.855469 160.628906 79.078125 C 160.558594 79.234375 160.496094 79.371094 160.441406 79.488281 C 160.367188 79.640625 160.320312 79.800781 160.296875 79.964844 C 160.261719 80.234375 160.300781 80.625 160.695312 80.9375 C 160.96875 81.15625 161.398438 81.292969 161.972656 81.34375 C 162.21875 81.363281 162.433594 81.363281 162.617188 81.34375 C 162.785156 81.324219 162.953125 81.292969 163.113281 81.257812 C 163.167969 81.242188 163.226562 81.230469 163.28125 81.21875 C 163.300781 81.160156 163.324219 81.105469 163.347656 81.050781 C 163.4375 80.816406 163.53125 80.570312 163.625 80.304688 C 163.699219 80.113281 163.777344 79.90625 163.859375 79.691406 C 164.628906 79.738281 165.40625 79.769531 166.175781 79.777344 C 166.246094 80.003906 166.316406 80.226562 166.382812 80.453125 C 166.492188 80.800781 166.675781 81.0625 166.921875 81.21875 C 167.160156 81.371094 167.527344 81.4375 168.042969 81.417969 C 168.074219 81.417969 168.105469 81.414062 168.140625 81.414062 C 168.503906 81.394531 168.828125 81.332031 169.101562 81.238281 C 169.394531 81.132812 169.613281 81.003906 169.765625 80.839844 C 169.8125 80.792969 169.859375 80.742188 169.90625 80.691406 C 169.882812 80.636719 169.855469 80.578125 169.832031 80.519531 C 169.613281 80.011719 169.414062 79.527344 169.222656 79.039062 Z M 164.644531 77.386719 C 164.777344 77.066406 164.910156 76.753906 165.050781 76.457031 C 165.125 76.289062 165.199219 76.132812 165.269531 75.976562 C 165.308594 76.144531 165.351562 76.3125 165.394531 76.484375 C 165.476562 76.789062 165.554688 77.105469 165.636719 77.449219 C 165.304688 77.429688 164.972656 77.410156 164.640625 77.382812 Z M 164.644531 77.386719 "/>
<path style=" stroke:none;fill-rule:nonzero;fill:rgb(100%,100%,100%);fill-opacity:1;" d="M 176.394531 76.3125 C 175.839844 76.042969 175.117188 75.851562 174.179688 75.722656 C 173.929688 75.6875 173.683594 75.648438 173.433594 75.609375 C 173.171875 75.570312 173.03125 75.519531 172.960938 75.488281 C 172.90625 75.460938 172.902344 75.441406 172.902344 75.433594 C 172.898438 75.390625 172.976562 75.335938 173.011719 75.3125 C 173.105469 75.253906 173.304688 75.175781 173.746094 75.128906 C 174.113281 75.089844 174.457031 75.085938 174.769531 75.121094 C 175.085938 75.152344 175.339844 75.203125 175.527344 75.265625 C 175.582031 75.285156 175.636719 75.304688 175.691406 75.324219 C 175.734375 75.285156 175.777344 75.246094 175.820312 75.207031 C 175.976562 75.070312 176.105469 74.90625 176.199219 74.726562 C 176.304688 74.523438 176.332031 74.296875 176.285156 74.054688 C 176.234375 73.804688 176.109375 73.59375 175.90625 73.429688 C 175.722656 73.277344 175.492188 73.164062 175.214844 73.085938 C 174.957031 73.015625 174.660156 72.972656 174.316406 72.957031 C 173.992188 72.941406 173.636719 72.945312 173.257812 72.972656 C 172.183594 73.050781 171.382812 73.292969 170.796875 73.742188 C 170.164062 74.226562 169.855469 74.867188 169.886719 75.636719 C 169.90625 76.039062 170 76.382812 170.171875 76.65625 C 170.339844 76.925781 170.574219 77.152344 170.863281 77.332031 C 171.144531 77.5 171.476562 77.636719 171.847656 77.726562 C 172.207031 77.816406 172.609375 77.894531 173.050781 77.960938 C 173.257812 77.988281 173.46875 78.015625 173.671875 78.039062 C 173.9375 78.074219 174.144531 78.121094 174.289062 78.171875 C 174.398438 78.214844 174.410156 78.269531 174.414062 78.296875 C 174.421875 78.34375 174.382812 78.40625 174.296875 78.484375 C 174.226562 78.546875 174.023438 78.660156 173.484375 78.738281 C 173.050781 78.796875 172.636719 78.792969 172.257812 78.71875 C 171.878906 78.644531 171.550781 78.539062 171.28125 78.402344 C 171.238281 78.378906 171.191406 78.355469 171.148438 78.332031 C 171.101562 78.355469 171.054688 78.382812 171.007812 78.40625 C 170.792969 78.527344 170.59375 78.691406 170.414062 78.890625 C 170.203125 79.128906 170.105469 79.410156 170.132812 79.722656 C 170.15625 80.015625 170.285156 80.265625 170.519531 80.460938 C 170.734375 80.640625 171.015625 80.773438 171.363281 80.859375 C 171.699219 80.941406 172.085938 80.984375 172.515625 80.984375 C 172.660156 80.984375 172.804688 80.976562 172.957031 80.96875 C 173.253906 80.949219 173.566406 80.914062 173.882812 80.859375 C 174.546875 80.746094 175.136719 80.582031 175.636719 80.371094 C 176.136719 80.15625 176.550781 79.910156 176.863281 79.636719 C 177.183594 79.355469 177.402344 79.042969 177.515625 78.710938 C 177.628906 78.382812 177.636719 78.046875 177.550781 77.707031 C 177.386719 77.082031 177 76.617188 176.390625 76.320312 Z M 176.394531 76.3125 "/>
<path style=" stroke:none;fill-rule:nonzero;fill:rgb(100%,100%,100%);fill-opacity:1;" d="M 180.0625 73.210938 C 179.933594 72.804688 179.722656 72.539062 179.425781 72.425781 C 179.164062 72.328125 178.808594 72.320312 178.339844 72.40625 C 178.140625 72.441406 177.945312 72.492188 177.75 72.550781 C 177.53125 72.617188 177.316406 72.6875 177.097656 72.757812 C 177.113281 72.832031 177.132812 72.910156 177.148438 72.984375 C 177.582031 74.914062 178.082031 76.800781 178.640625 78.585938 C 178.765625 78.980469 178.992188 79.226562 179.3125 79.320312 C 179.460938 79.363281 179.644531 79.375 179.855469 79.355469 C 180.070312 79.335938 180.324219 79.289062 180.613281 79.207031 C 180.855469 79.136719 181.089844 79.058594 181.3125 78.96875 C 181.527344 78.882812 181.691406 78.808594 181.804688 78.75 C 181.878906 78.710938 181.953125 78.671875 182.027344 78.632812 C 182 78.566406 181.972656 78.503906 181.945312 78.4375 C 181.253906 76.785156 180.621094 75.023438 180.0625 73.214844 Z M 180.0625 73.210938 "/>
<path style=" stroke:none;fill-rule:nonzero;fill:rgb(100%,100%,100%);fill-opacity:1;" d="M 188 70.792969 C 187.808594 70.484375 187.570312 70.292969 187.292969 70.222656 C 187.027344 70.15625 186.695312 70.195312 186.253906 70.34375 C 186.074219 70.402344 185.902344 70.472656 185.738281 70.546875 C 185.582031 70.621094 185.464844 70.675781 185.386719 70.714844 C 185.320312 70.75 185.253906 70.78125 185.183594 70.816406 C 185.21875 70.878906 185.246094 70.941406 185.28125 71.003906 C 185.601562 71.632812 185.9375 72.257812 186.277344 72.855469 C 186.375 73.03125 186.480469 73.210938 186.589844 73.394531 C 186.503906 73.339844 186.417969 73.285156 186.328125 73.230469 C 185.605469 72.789062 184.902344 72.3125 184.234375 71.8125 C 183.910156 71.566406 183.5625 71.4375 183.207031 71.4375 C 183.207031 71.4375 183.207031 71.4375 183.203125 71.4375 C 182.890625 71.4375 182.574219 71.476562 182.261719 71.558594 C 181.980469 71.632812 181.722656 71.738281 181.496094 71.875 C 181.242188 72.023438 181.070312 72.207031 180.984375 72.414062 C 180.976562 72.441406 180.964844 72.46875 180.953125 72.496094 C 180.960938 72.523438 180.972656 72.550781 180.980469 72.578125 C 181.566406 74.257812 182.222656 75.890625 182.929688 77.421875 C 183.085938 77.765625 183.332031 77.976562 183.644531 78.035156 C 183.761719 78.058594 183.894531 78.0625 184.042969 78.046875 C 184.277344 78.023438 184.554688 77.953125 184.878906 77.839844 C 185.097656 77.761719 185.3125 77.671875 185.515625 77.578125 C 185.707031 77.484375 185.855469 77.414062 185.949219 77.363281 C 186.027344 77.324219 186.109375 77.285156 186.1875 77.242188 C 186.148438 77.179688 186.113281 77.117188 186.074219 77.054688 C 185.816406 76.605469 185.558594 76.144531 185.308594 75.679688 C 185.148438 75.378906 184.992188 75.078125 184.832031 74.773438 C 184.808594 74.730469 184.785156 74.6875 184.765625 74.644531 C 184.875 74.71875 184.988281 74.792969 185.105469 74.867188 C 185.839844 75.324219 186.613281 75.75 187.398438 76.132812 C 187.789062 76.316406 188.1875 76.371094 188.589844 76.296875 C 188.945312 76.230469 189.296875 76.125 189.632812 75.980469 C 189.96875 75.835938 190.246094 75.6875 190.460938 75.539062 C 190.691406 75.375 190.847656 75.214844 190.925781 75.058594 C 190.941406 75.023438 190.960938 74.988281 190.976562 74.957031 C 190.953125 74.925781 190.929688 74.898438 190.902344 74.871094 C 189.878906 73.621094 188.902344 72.25 188.003906 70.800781 Z M 188 70.792969 "/>
<path style=" stroke:none;fill-rule:nonzero;fill:rgb(100%,100%,100%);fill-opacity:1;" d="M 197.9375 70.023438 C 197.785156 69.683594 197.5 69.34375 197.085938 69.003906 C 196.683594 68.671875 196.242188 68.402344 195.769531 68.207031 C 195.300781 68.015625 194.820312 67.882812 194.328125 67.824219 C 193.847656 67.765625 193.355469 67.769531 192.867188 67.84375 C 192.382812 67.914062 191.917969 68.046875 191.449219 68.25 C 190.988281 68.453125 190.589844 68.699219 190.269531 68.984375 C 189.9375 69.277344 189.6875 69.609375 189.535156 69.96875 C 189.375 70.335938 189.316406 70.738281 189.367188 71.15625 C 189.421875 71.585938 189.605469 72.023438 189.925781 72.445312 C 190.25 72.878906 190.652344 73.210938 191.113281 73.4375 C 191.582031 73.664062 192.101562 73.796875 192.648438 73.832031 C 192.929688 73.851562 193.21875 73.84375 193.515625 73.8125 C 193.789062 73.785156 194.070312 73.734375 194.351562 73.667969 C 194.933594 73.523438 195.5 73.304688 196.039062 73.019531 C 196.578125 72.738281 197.023438 72.425781 197.363281 72.09375 C 197.707031 71.761719 197.925781 71.421875 198.027344 71.074219 C 198.128906 70.730469 198.097656 70.378906 197.941406 70.027344 Z M 195.378906 71.117188 C 195.339844 71.386719 195.132812 71.613281 194.746094 71.804688 C 194.351562 72.003906 193.945312 72.078125 193.546875 72.015625 C 193.140625 71.953125 192.757812 71.726562 192.414062 71.332031 C 192.078125 70.945312 191.941406 70.597656 192.007812 70.308594 C 192.074219 70.03125 192.273438 69.820312 192.625 69.660156 C 192.855469 69.554688 193.085938 69.5 193.320312 69.492188 C 193.449219 69.488281 193.582031 69.5 193.714844 69.523438 C 194.101562 69.601562 194.484375 69.824219 194.859375 70.179688 C 195.242188 70.539062 195.417969 70.851562 195.378906 71.117188 Z M 195.378906 71.117188 "/>
<path style=" stroke:none;fill-rule:nonzero;fill:rgb(100%,100%,100%);fill-opacity:1;" d="M 94.484375 64.015625 C 101.332031 56.914062 103.316406 48.519531 102.355469 45.335938 C 101.667969 43.191406 97.574219 42.195312 92.582031 42.953125 C 93.6875 50.09375 91.488281 57.109375 87.351562 61.761719 C 88.324219 55.273438 88.0625 51.144531 86.828125 46.992188 C 86.808594 46.917969 86.785156 46.84375 86.761719 46.769531 C 85.207031 41.679688 79.742188 38.898438 74.714844 40.640625 L 71.074219 41.902344 C 71.074219 41.902344 75.261719 45.726562 77.117188 58.578125 C 78.847656 70.542969 75.527344 82.425781 71.675781 89.039062 C 73.929688 91.140625 76.210938 91.949219 79.914062 91.417969 C 86.335938 90.496094 87.757812 78.476562 87.65625 67.976562 L 87.757812 67.941406 C 89.546875 86.910156 111.070312 93.820312 118.292969 75.433594 C 108.242188 80.621094 98.042969 80.582031 94.484375 64.015625 Z M 94.484375 64.015625 "/>
<path style=" stroke:none;fill-rule:nonzero;fill:rgb(100%,100%,100%);fill-opacity:1;" d="M 131.898438 45.675781 C 126.8125 46.761719 124.613281 54.34375 124.898438 64.703125 C 122.902344 60.46875 122.546875 55.566406 124.628906 50.40625 C 118.105469 49.109375 116.773438 50.324219 115.679688 52.917969 C 114.195312 56.25 113.015625 63.011719 112.863281 66.9375 C 110.394531 62.035156 110.160156 57.382812 112.273438 52.109375 C 110.421875 51.40625 107.296875 51.136719 105.304688 51.5625 C 102 52.265625 101.316406 56.523438 102.46875 61.929688 C 103.875 68.542969 108.980469 76.832031 113.542969 75.859375 C 116.269531 75.28125 116.210938 73.976562 116.570312 71.539062 C 116.78125 69.6875 117.058594 66.609375 117.296875 64.914062 C 118.945312 69.828125 121.984375 74.0625 125.707031 73.269531 C 129.535156 72.453125 130.378906 70.738281 131.222656 65.949219 C 132.265625 60.023438 134.214844 51.929688 139.292969 48.488281 C 136.632812 45.765625 133.578125 45.320312 131.898438 45.675781 Z M 131.898438 45.675781 "/>
<path style=" stroke:none;fill-rule:nonzero;fill:rgb(100%,100%,100%);fill-opacity:1;" d="M 222.226562 38.042969 C 219.222656 37.96875 217.351562 42.105469 216.179688 45.996094 C 215.421875 48.445312 213.492188 54.890625 211.078125 54.832031 C 210.21875 54.808594 209.761719 53.832031 209.800781 52.277344 C 209.925781 47.398438 213.058594 42.164062 214.5625 40.054688 C 212.660156 38.824219 210.539062 37.914062 208.664062 37.761719 C 203.847656 37.371094 200.496094 46.945312 200.355469 52.578125 C 200.332031 53.4375 200.359375 54.226562 200.429688 54.945312 C 199.351562 56.601562 198.03125 58.035156 196.75 58.085938 C 193.105469 58.230469 191.410156 54.699219 190.835938 50.964844 C 194.496094 47.222656 199.027344 45.109375 200.921875 45.519531 C 197.457031 36.527344 192.070312 40.070312 187.769531 46.683594 C 189.414062 40.765625 191.878906 35.191406 194.804688 31.800781 C 192.765625 30.433594 190.921875 29.964844 188.992188 30.042969 C 187.496094 30.101562 185.863281 30.972656 184.539062 32.742188 C 180.730469 37.652344 177.648438 48.390625 176.609375 55.605469 C 175.601562 57.441406 174.300781 59.117188 172.953125 59.25 C 169.324219 59.609375 167.425781 56.1875 166.628906 52.492188 C 170.0625 48.539062 174.460938 46.164062 176.378906 46.460938 C 172.386719 37.691406 167.21875 41.542969 163.316406 48.398438 C 164.609375 42.394531 166.738281 36.683594 169.457031 33.125 C 167.34375 31.878906 165.476562 31.527344 163.554688 31.714844 C 162.058594 31.863281 160.484375 32.828125 159.265625 34.671875 C 155.734375 39.835938 153.28125 50.84375 152.6875 58.109375 C 151.992188 60.160156 150.9375 62.125 149.378906 62.355469 C 148.371094 62.503906 147.753906 61.996094 147.378906 60.914062 C 145.882812 56.632812 148.554688 48.972656 149.746094 47.496094 C 146.914062 46.285156 144.8125 46 143.183594 46.347656 C 141.230469 46.6875 140.078125 49.1875 139.058594 52.210938 C 138.460938 54.035156 138.113281 56.09375 137.921875 58.128906 C 137.773438 60.429688 137.941406 62.679688 138.523438 64.4375 C 139.71875 67.789062 142.710938 70.816406 146.476562 70.265625 C 150.085938 69.734375 151.675781 67.285156 152.839844 64.242188 C 153.71875 67.933594 156.722656 69.402344 162.558594 68.582031 C 162.179688 66.949219 161.9375 65.03125 161.835938 62.886719 C 162.003906 61.359375 162.339844 59.816406 162.953125 58.40625 C 163.546875 62.769531 166 67.433594 170.589844 66.980469 C 173.601562 66.683594 175.28125 64.953125 176.550781 62.636719 C 177.460938 65.832031 180.359375 67.222656 185.820312 66.785156 C 185.542969 65.128906 185.410156 63.203125 185.433594 61.054688 C 185.695312 59.542969 186.121094 58.019531 186.816406 56.652344 C 187.152344 61.042969 189.324219 65.839844 193.929688 65.660156 C 197.574219 65.515625 199.414062 63.1875 200.960938 60.230469 C 201.1875 59.773438 201.402344 59.292969 201.609375 58.800781 C 202.210938 59.773438 203.027344 60.511719 204.066406 61.078125 C 205.960938 62.113281 209.027344 62.265625 209.027344 62.265625 C 204.453125 70.378906 196.664062 77.4375 182.621094 81.613281 C 168.636719 85.773438 152.09375 84.191406 143.421875 77.878906 C 143.421875 77.878906 146.90625 87.839844 161.375 90.894531 C 171.992188 93.136719 187.554688 93.386719 202.84375 83.226562 C 213.667969 76.027344 220.253906 66.019531 223.574219 56.164062 C 225.429688 50.65625 226.238281 45.386719 228.609375 40.136719 C 226.707031 38.960938 224.53125 38.101562 222.222656 38.042969 Z M 222.226562 38.042969 "/>
<path style=" stroke:none;fill-rule:nonzero;fill:rgb(98.431373%,69.01961%,23.137255%);fill-opacity:1;" d="M 146.203125 43.632812 C 150.777344 45.453125 151.757812 42.050781 152.207031 39.859375 C 152.660156 37.664062 154.101562 35.546875 154.101562 35.546875 C 154.101562 35.546875 147.761719 33.601562 145.503906 37.21875 C 143.84375 39.878906 143.15625 42.421875 146.203125 43.632812 Z M 146.203125 43.632812 "/>
</g>
</svg>
