<svg width="136" height="76" viewBox="0 0 136 76" fill="none" xmlns="http://www.w3.org/2000/svg">
<g clip-path="url(#clip0_11_661)">
<path d="M60.2933 75.8937C56.9048 76.2 53.6734 75.8435 50.6912 74.8351C49.613 74.4701 48.5614 74.0172 47.579 73.4861L47.1726 73.2694C46.616 72.9786 46.2204 72.7641 45.5076 72.2588C44.0754 71.2269 43.0669 69.9123 42.6627 68.5411C42.5236 68.0842 42.4279 67.6006 42.3801 67.1089C42.2975 66.3675 42.3323 65.6152 42.4736 64.8868C42.7083 63.6885 43.2365 62.5751 44.0428 61.5822C44.8947 60.5349 45.9487 59.7736 47.179 59.3166C47.368 59.2443 47.5614 59.1855 47.7572 59.1307C47.7464 58.9231 47.7441 58.7109 47.7464 58.4987C47.7464 57.8536 47.7918 57.195 47.894 56.5499C46.5485 57.2171 45.149 57.6306 43.7515 57.7573C42.2323 57.8948 40.7566 57.6872 39.4221 57.1624C38.3571 57.5913 37.2726 57.8555 36.1946 57.9541C32.9866 58.245 30.0895 57.0244 28.216 54.597C27.7161 54.1052 27.2902 53.5366 26.9424 52.9132C26.0491 51.3077 25.6362 49.414 25.7188 47.2883C25.7166 47.2598 25.7405 46.9495 25.7405 46.9495C25.7557 46.7436 25.7688 46.5292 25.784 46.2998C25.8188 45.7375 25.9035 45.1778 26.0317 44.642C26.0687 44.4976 26.1035 44.3402 26.1448 44.1784C26.2621 43.706 26.4012 43.1855 26.5642 42.6213C26.6294 42.3938 26.6946 42.1686 26.7685 41.9367C26.1817 42.0614 25.5884 42.2057 24.995 42.3676C24.5082 43.4479 24.0257 44.5502 23.5584 45.6525C22.8216 47.3932 22.1414 49.11 21.5306 50.7635C20.9438 52.3599 20.4439 53.8668 20.0549 55.2466C19.944 55.6401 19.8419 56.0143 19.7528 56.3861C19.5398 57.2411 19.3833 57.998 19.2942 58.6385C19.2703 58.8159 19.2355 58.9733 19.1964 59.1352C19.1616 59.2881 19.1138 59.4456 19.0638 59.6007C17.8836 63.0302 15.3407 63.9201 14.3019 64.1431C14.078 64.1933 13.8454 64.2309 13.6194 64.2548L13.5151 64.2634C11.7372 64.4231 9.98766 63.8328 8.59014 62.5991C7.48607 61.6261 6.67319 60.316 6.17765 58.7041C6.00597 58.1486 5.89077 57.5781 5.83425 56.9919C4.35635 56.539 3.40222 55.7057 2.83496 55.0367C2.66544 54.8354 2.5133 54.6255 2.38072 54.411C1.77217 53.4294 1.37878 52.3531 1.20708 51.2118C1.10276 50.4921 1.05929 49.7443 1.08102 48.9829C1.10276 48.2197 1.20273 47.4326 1.38095 46.6341C1.43529 46.3808 1.50266 46.1162 1.57656 45.8556C1.81781 44.9941 2.11774 44.1303 2.47635 43.2905C2.83062 42.4594 3.22835 41.6787 3.65216 40.9657C3.65868 40.9526 3.66955 40.9395 3.67607 40.9264C1.05929 38.6147 -0.0295876 35.2708 0.744144 31.7017C0.800653 31.4305 0.870201 31.1615 0.948444 30.8926C1.69609 28.3185 2.97841 25.9544 4.7606 23.8724C6.36674 22.0156 8.27933 20.3579 10.4441 18.9342C12.4871 17.5958 14.7235 16.417 17.0882 15.4197C19.3289 14.4771 21.6328 13.6396 23.9431 12.9266C26.1904 12.2355 28.4355 11.6254 30.6176 11.1158C32.6954 10.6325 34.5819 10.1951 36.2794 9.80581C37.4595 9.53678 38.5375 9.28091 39.4895 9.04038C45.2599 5.5456 52.682 2.56475 59.9063 0.850164C61.3301 0.513371 62.8079 0.27062 64.3055 0.137215C71.132 -0.47951 77.8806 1.09511 84.4007 2.61942C90.9883 4.15905 97.7954 5.74899 104.764 5.11914C105.668 5.03821 106.574 4.91792 107.452 4.76267C107.515 4.74955 107.585 4.74299 107.649 4.73643C108.765 4.63582 109.751 5.47779 109.854 6.61937C109.901 7.15517 109.743 7.66474 109.45 8.06279C107.42 10.8556 104.818 12.9135 101.673 14.2191C104.34 14.5034 106.8 14.534 109.112 14.3241C116.858 13.6242 123.961 10.1273 132.151 2.98027C132.479 2.69159 132.876 2.53194 133.285 2.49476C133.694 2.45759 134.109 2.54507 134.478 2.76158C135.221 3.19897 135.617 4.06501 135.469 4.92887C133.479 16.3339 128.999 26.4639 122.522 34.2211C117.662 40.0428 111.821 44.3337 105.346 46.8879C106.97 47.1024 108.619 47.201 110.286 47.1856C111.153 47.1766 111.931 47.7366 112.218 48.5721C112.505 49.4072 112.247 50.3391 111.566 50.8856C107.078 54.5142 102.099 57.4818 96.7586 59.7166C96.7109 59.7387 96.6609 59.7541 96.6087 59.7713C96.3545 59.8523 92.197 61.6478 86.7502 62.8986C86.4959 63.0958 84.5811 63.3189 84.2531 63.3777C82.9728 63.5984 81.6386 63.7712 80.2823 63.9024C79.9389 63.9463 79.6082 63.9834 79.2932 64.0119C78.7716 64.0599 78.2892 64.082 77.8631 64.0843C77.5719 64.0974 77.27 64.1083 76.9743 64.1191C77.1719 65.1429 77.1588 66.1924 76.9221 67.1917C76.7984 67.7147 76.6112 68.2154 76.3678 68.6832C75.0681 71.1482 72.6471 72.3882 70.6842 73.1971C68.1503 74.2339 65.5988 75.0102 63.0883 75.5065C62.1649 75.6906 61.2234 75.8258 60.2978 75.9091L60.3018 75.9005L60.2933 75.8937Z" fill="#D2D2D1"/>
<path fill-rule="evenodd" clip-rule="evenodd" d="M133.241 5.05531C128.002 14.6973 120.521 19.9498 112.609 22.5564C120.519 19.9476 127.995 14.7017 133.237 5.05531C118.508 17.8916 107.067 19.4779 88.7648 14.1533C97.7148 15.0163 103.814 12.519 107.602 7.29921C95.7353 13.2094 74.0682 7.10473 65.0574 15.6477C65.0552 15.6477 65.0529 15.6477 65.0511 15.6477C74.062 7.10256 95.7308 13.2072 107.6 7.29704C90.6386 10.2728 75.7638 -0.347964 60.1304 3.36201C44.058 7.17906 19.1485 19.4058 28.7855 38.3511C33.7365 44.3268 41.5368 47.9605 48.2243 49.4941C55.0643 55.024 63.6557 60.9932 63.6557 60.9932C68.1174 62.2277 72.8208 62.6887 77.5742 62.4548C77.5913 62.4548 77.6088 62.453 77.6286 62.4507C85.8353 62.7457 95.7614 58.2427 95.7614 58.2427C100.856 56.1142 105.718 53.2389 110.082 49.7126C105.435 49.7497 101.101 48.9675 97.0304 47.4643C115.863 44.2416 129.382 27.16 133.246 5.05314L133.241 5.05531ZM43.9884 23.1201C43.9884 23.1201 43.9928 23.1179 43.995 23.1158C43.995 23.1201 43.995 23.1223 43.9971 23.1267L43.9862 23.1201H43.9884Z" fill="#F04C23"/>
<path fill-rule="evenodd" clip-rule="evenodd" d="M61.5146 21.9665C67.0289 6.71804 94.307 15.6696 107.6 7.29921C93.5618 14.2887 65.8116 4.46976 61.5146 21.9665Z" fill="url(#paint0_radial_11_661)"/>
<path fill-rule="evenodd" clip-rule="evenodd" d="M133.235 5.0597C127.595 15.438 119.362 20.7298 110.788 23.1136C120.401 22.15 128.543 16.7446 133.235 5.0597Z" fill="url(#paint1_radial_11_661)"/>
<path fill-rule="evenodd" clip-rule="evenodd" d="M128.81 15.6346C120.388 29.109 109.043 37.7503 93.1271 38.8427C94.3439 41.1063 95.3505 43.4987 96.0917 45.9569C100.354 45.227 104.049 44.0537 107.871 41.9649C114.181 38.5172 119.327 33.2952 123.214 27.1971C125.513 23.5877 127.371 19.6898 128.804 15.6303L128.808 15.6346H128.81Z" fill="url(#paint2_linear_11_661)"/>
<path fill-rule="evenodd" clip-rule="evenodd" d="M50.4675 18.357C60.1304 3.37075 76.0613 7.44999 92.1294 8.61017C84.227 7.24895 76.3417 4.49379 68.3307 4.24252C61.3931 4.02185 54.7596 6.07566 49.1373 10.251C44.6166 13.607 41.0217 18.274 39.5525 23.8324C43.4494 21.9097 45.8708 19.5937 50.4693 18.3636V18.3549L50.4675 18.357Z" fill="url(#paint3_linear_11_661)"/>
<path fill-rule="evenodd" clip-rule="evenodd" d="M93.3291 22.2527C88.5083 21.1668 82.6403 25.1149 85.0397 31.5145C86.072 20.4764 97.2216 27.0835 90.8321 38.4779C87.8261 43.8396 81.9491 48.1591 76.2723 40.4464C77.6849 44.9561 80.2472 47.9714 83.4075 49.7194C97.3674 57.4406 108.673 25.7289 93.3269 22.2549L93.3291 22.2527Z" fill="url(#paint4_radial_11_661)"/>
<path fill-rule="evenodd" clip-rule="evenodd" d="M95.3897 24.8069C103.09 35.1021 89.7886 51.7949 81.7709 46.6056C84.731 49.2037 91.9274 52.5051 97.1847 43.1186C102.199 34.1649 98.8367 26.8716 95.3897 24.8091V24.8069Z" fill="url(#paint5_linear_11_661)"/>
<path fill-rule="evenodd" clip-rule="evenodd" d="M69.8738 43.2256C63.5558 43.1514 58.4784 46.4265 64.512 50.2043C60.2955 43.0246 76.9244 45.8104 74.8922 53.9035C73.9382 57.7116 69.0283 61.2271 58.4132 57.0299C62.3318 59.7283 66.8916 61.3211 71.5473 62.0309C92.0925 65.1664 89.982 43.4703 69.8738 43.2235V43.2256Z" fill="url(#paint6_radial_11_661)"/>
<path fill-rule="evenodd" clip-rule="evenodd" d="M73.6074 44.5912C87.9215 50.1713 80.2278 62.5403 68.0481 60.2549C72.8816 61.5306 83.1335 62.7149 84.8008 56.0468C86.3893 49.6864 78.7523 45.4652 73.6057 44.5912H73.6074Z" fill="url(#paint7_linear_11_661)"/>
<path fill-rule="evenodd" clip-rule="evenodd" d="M47.8877 43.0705C49.5221 36.8435 47.6721 30.9924 42.5953 36.0089C50.4455 33.6536 43.6928 49.3914 36.5228 45.3363C33.1475 43.4288 31.0262 37.6869 37.6312 28.2525C34.106 31.4446 31.4631 35.55 29.6439 39.9723C21.5915 59.4922 42.6888 62.8877 47.894 43.0683H47.8895L47.8877 43.0705Z" fill="url(#paint8_radial_11_661)"/>
<path fill-rule="evenodd" clip-rule="evenodd" d="M45.675 46.4179C36.8423 59.1579 27.0185 48.4278 32.1912 36.9659C29.7874 41.4209 26.1317 51.2616 32.0391 54.5915C37.6768 57.7663 43.5711 51.2878 45.6683 46.4202H45.6728L45.675 46.4179Z" fill="url(#paint9_linear_11_661)"/>
<path fill-rule="evenodd" clip-rule="evenodd" d="M55.4531 42.8783C57.0875 36.6513 55.238 30.8001 50.1611 35.8166C58.0113 33.4613 51.2586 49.1991 44.0884 45.144C40.7131 43.2366 38.5919 37.4946 45.1968 28.0602C41.6716 31.2523 39.0287 35.3578 37.2096 39.78C29.1571 59.2999 50.2542 62.6955 55.4599 42.876H55.4553L55.4531 42.8783Z" fill="url(#paint10_radial_11_661)"/>
<path fill-rule="evenodd" clip-rule="evenodd" d="M53.2364 46.2211C44.4036 58.9615 34.5798 48.2311 39.7525 36.7693C37.3487 41.2243 33.693 51.0652 39.6003 54.3947C45.2381 57.5695 51.1344 51.0915 53.2319 46.2234H53.2364V46.2211Z" fill="url(#paint11_linear_11_661)"/>
<path d="M98.2256 29.0631C98.2107 28.9975 98.2017 28.9364 98.1887 28.8752L97.9435 27.8526C97.9304 27.7958 97.9174 27.7347 97.8953 27.6735C97.2869 25.6502 96.1047 23.9766 94.5635 22.9584C92.0489 21.3023 89.2107 22.0233 87.2676 22.9147C86.0981 23.4522 84.9614 24.1798 83.8967 25.0647C83.0098 25.801 82.1601 26.6488 81.3776 27.5795C81.0774 26.8279 80.667 26.155 80.1432 25.5738C79.3692 24.7151 78.3239 24.1252 77.1197 23.8586C77.0742 23.8455 77.0288 23.8368 76.9784 23.8346C76.5396 23.7581 76.1243 23.7122 75.731 23.686C75.2855 23.6598 74.827 23.6729 74.3661 23.721C72.9622 23.8717 71.595 24.324 70.2846 25.0625C69.1326 25.7114 68.0198 26.5439 66.9699 27.5293C66.8115 27.6757 66.6635 27.8242 66.5091 27.9794C66.2549 27.5533 65.9723 27.2124 65.701 26.9415C64.8509 26.0872 63.3425 25.1084 60.9908 25.305C59.7411 25.4055 58.4721 25.766 57.2225 26.3691C56.1227 26.9 55.0683 27.5577 54.0905 28.3246C53.1581 29.0565 52.2932 29.8518 51.5282 30.6843C51.4062 30.8154 51.2865 30.9465 51.1713 31.0776C50.7695 30.2167 50.2043 29.4476 49.4982 28.7965C48.731 28.093 47.8701 27.5839 46.94 27.2889C45.5904 26.8629 44.2471 26.9962 43.1538 27.6604C42.8061 27.8701 42.5018 28.152 42.2627 28.4819L41.8846 28.9954C41.6412 29.3296 41.4673 29.7076 41.3695 30.1074C41.3434 30.2211 41.313 30.3456 41.276 30.4745C41.0674 30.2233 40.8413 29.9807 40.5936 29.7535C39.8264 29.05 38.9657 28.5409 38.0355 28.2459C37.1422 27.9641 36.2555 27.9291 35.4426 28.1257C34.9884 27.8264 34.445 27.6341 33.8082 27.5948C33.4235 27.5708 33.041 27.6189 32.6715 27.7347C31.8587 27.9903 30.998 28.2437 30.1156 28.4775C30.0091 28.5081 29.8961 28.5343 29.7896 28.5649C29.9352 28.3224 30.0852 28.0842 30.2308 27.8483C30.3481 27.6582 30.4438 27.4593 30.5198 27.2474C30.6959 26.7536 30.798 26.2489 30.8219 25.7486C31.5631 25.5782 32.3064 25.4099 33.0453 25.257C34.9275 24.8615 36.7662 24.4769 38.5615 24.1055L43.0669 23.2119C43.1821 23.19 43.2908 23.1595 43.406 23.1223C44.8839 22.6569 45.599 21.4137 46.0076 20.5135C46.3311 19.8034 46.6137 18.995 46.8441 18.1167C47.066 17.269 47.2267 16.3928 47.3288 15.5276C47.4593 14.3892 47.4138 13.4235 47.179 12.5758C46.9247 11.6385 46.2574 10.8628 45.3664 10.4695C44.4753 10.0762 43.4625 10.1134 42.6105 10.5613C42.0237 10.8715 41.2782 11.1425 40.3827 11.3741C39.2721 11.6625 37.9659 11.9749 36.4924 12.307C34.8014 12.6938 32.9127 13.1285 30.8393 13.6114C28.7137 14.1074 26.5077 14.706 24.2996 15.3877C22.0566 16.076 19.8158 16.891 17.6315 17.8108C15.3625 18.7612 13.2413 19.8864 11.3134 21.1471C9.30519 22.4647 7.53823 24.0007 6.06029 25.7049C4.47806 27.5533 3.3305 29.653 2.66544 31.945C1.62437 35.5195 2.80888 38.6898 5.90162 40.6431C6.02334 40.7195 6.14291 40.7916 6.26243 40.8638C5.90382 41.3204 5.54085 41.8513 5.15835 42.4937C4.78016 43.1273 4.42589 43.8287 4.11075 44.5672C3.79343 45.31 3.51741 46.0877 3.30224 46.8703C3.05665 47.766 2.91538 48.6441 2.8893 49.4855C2.86974 50.1234 2.90451 50.7571 2.98927 51.3425C3.11316 52.1926 3.41091 52.9964 3.86733 53.7329C3.94775 53.8664 4.04555 53.9948 4.14553 54.1152C4.59542 54.6485 5.42349 55.3389 6.81012 55.5836C7.09048 55.6338 7.37087 55.6623 7.65342 55.6732C7.52954 56.6607 7.61211 57.6152 7.88594 58.5132C8.26412 59.7437 8.87049 60.7353 9.6877 61.4564C10.6962 62.3481 11.9176 62.752 13.1761 62.619C13.3325 62.6036 13.4933 62.5729 13.6542 62.5426C14.5301 62.3544 16.1188 61.684 16.923 59.3438C16.9882 59.1556 17.036 58.9633 17.0621 58.7647C17.2121 57.7161 17.4924 56.4793 17.8858 55.0964C18.2988 53.6497 18.8139 52.0899 19.4137 50.4663C20.0245 48.8146 20.7134 47.0644 21.4785 45.2684C22.0675 43.8811 22.6825 42.4784 23.328 41.0757C24.2908 40.7807 25.2472 40.536 26.1774 40.3394C27.3858 40.0881 28.5377 39.8565 29.6287 39.6402L29.0071 41.4012C28.7355 42.1747 28.492 42.9372 28.2877 43.6495C28.0834 44.3618 27.9117 45.0107 27.7835 45.5656C27.6836 45.9872 27.6161 46.4333 27.5879 46.8961C27.5662 47.2023 27.5509 47.4819 27.5336 47.7375C27.5336 47.7637 27.5292 47.7832 27.527 47.8094C27.4618 49.538 27.7813 51.0544 28.4877 52.3215C29.507 54.159 31.3587 55.1398 33.5496 55.0091C33.5974 55.0046 33.6495 55 33.6995 54.996C34.4146 54.9191 35.1209 54.7381 35.8099 54.4563C36.3685 54.2265 36.901 53.9537 37.3987 53.6519C37.8116 53.3986 38.1985 53.1231 38.5528 52.8413C39.5873 53.7175 40.9457 54.1482 42.4627 54.0518C42.5105 54.0473 42.5605 54.0432 42.6083 54.0387C43.3212 53.9623 44.0297 53.7809 44.7187 53.499C45.2772 53.2697 45.8096 52.9964 46.3073 52.6951C46.805 52.3911 47.2617 52.0591 47.6681 51.7076C47.8657 51.5393 48.0461 51.3733 48.2113 51.2181C48.9699 51.8605 50.0328 52.4676 51.4823 52.7368C51.1934 53.1824 50.9283 53.6433 50.6889 54.1174C49.9307 55.6447 49.55 57.2769 49.5545 58.957C49.5482 59.8396 49.6459 60.6548 49.8416 61.4017C49.0874 61.3451 48.3548 61.4456 47.6528 61.7034C46.7703 62.0291 46.0009 62.5797 45.3816 63.3442C44.434 64.5068 44.0167 65.8789 44.1732 67.3251C44.2101 67.6834 44.2818 68.0354 44.3818 68.3783C44.6818 69.4029 45.5162 70.3231 46.4378 70.9826C47.1857 71.5137 47.4854 71.6404 48.294 72.0751C49.1959 72.5601 50.1368 72.9645 51.102 73.2898C54.7556 74.5289 58.7286 74.6184 62.4713 73.882C64.9445 73.3925 67.3633 72.6411 69.6934 71.6861C71.5122 70.9392 73.4014 69.9254 74.3509 68.1182C75.2419 66.4249 74.8854 64.2119 73.7685 62.6824C72.8969 61.4894 71.6733 60.729 70.2302 60.4951C70.0106 60.4603 69.7932 60.4385 69.5804 60.4295C69.7563 60.2133 69.9283 59.9902 70.102 59.7631L71.2778 60.4888C73.4337 61.8215 75.2158 61.555 75.92 61.3668C80.5473 60.1499 82.31 55.3212 82.4967 54.7775C82.9031 53.5755 82.5642 52.2428 81.6233 51.3796C80.6819 50.5165 79.3301 50.2894 78.1763 50.8051C78.1565 50.8051 78.0544 50.816 77.8806 50.7743C77.2938 50.5735 76.7525 50.3572 76.2634 50.1256C76.1572 50.0777 76.0591 50.0275 75.9529 49.9791L78.1479 45.7796C78.5957 46.4636 79.1236 47.0512 79.7387 47.5407C81.4275 48.8888 83.5097 49.4964 85.7655 49.2865C85.7831 49.2865 85.7984 49.2842 85.8137 49.2824C87.0152 49.1535 88.2131 48.7536 89.3714 48.1003C90.3861 47.5253 91.3644 46.7893 92.277 45.9085C93.1509 45.0675 93.9726 44.093 94.7223 43.0094C95.4459 41.9584 96.0894 40.8485 96.6303 39.7101C97.1672 38.5674 97.6149 37.3832 97.952 36.1815C98.5451 34.0731 98.654 31.4097 98.2346 29.0565H98.2256V29.0631ZM14.9626 33.7563C14.1432 34.2129 13.3369 34.7089 12.5479 35.2507C12.5175 35.183 12.5066 35.1415 12.5045 35.1349C12.5262 34.888 12.7044 34.5515 12.9978 34.1758C13.5803 33.4416 14.3062 32.7271 15.1495 32.0564C15.4342 31.827 15.7276 31.6085 16.0232 31.3944C15.6689 32.17 15.3168 32.9588 14.9648 33.7563H14.9626Z" fill="#F04C23"/>
<path d="M30.8894 36.2054V36.2013C31.2611 36.138 31.6368 36.0634 32.0085 35.9783C32.139 35.9412 32.2934 35.7906 32.4608 35.5219C32.6323 35.2572 32.8019 34.9297 32.9693 34.5538C33.139 34.1738 33.3018 33.7671 33.4625 33.3323C33.6236 32.8976 33.7451 32.4914 33.8234 32.1218C33.9039 31.7526 33.9454 31.4382 33.9472 31.1758C33.9472 30.9139 33.8841 30.7827 33.7496 30.7737C32.8779 31.0492 31.9847 31.307 31.0546 31.554C30.1285 31.8051 29.2244 32.039 28.3527 32.2683C27.5225 32.4936 26.7035 32.7207 25.9011 32.9433C25.0952 33.1663 24.278 33.4156 23.454 33.6843C24.8166 30.9379 26.2036 28.4208 27.6206 26.1417C27.7903 25.6744 27.7772 25.2044 27.5877 24.7394C27.3947 24.2739 27.1229 23.8586 26.7642 23.4872C28.6614 22.9868 30.5568 22.5412 32.4455 22.1413C34.3364 21.746 36.1796 21.3592 37.9809 20.9855L42.5016 20.0898C42.719 20.0197 42.9516 19.7116 43.2037 19.1656C43.4516 18.6191 43.6734 17.9921 43.8579 17.2801C44.0429 16.5675 44.1774 15.8532 44.2603 15.1344C44.3426 14.4156 44.3232 13.832 44.2013 13.3927C43.3971 13.8189 42.4256 14.1772 41.2889 14.4703C40.1544 14.763 38.8265 15.0797 37.314 15.4226C35.6252 15.8071 33.7474 16.2441 31.6783 16.7272C29.6091 17.2145 27.4968 17.7826 25.3494 18.4467C23.1975 19.1063 21.0722 19.8821 18.9725 20.7647C16.8687 21.6496 14.932 22.6724 13.1567 23.8346C11.3788 25.0013 9.84425 26.3299 8.5469 27.8264C7.25135 29.3229 6.332 31.0075 5.78885 32.8736C5.1692 35.0039 5.7146 36.7474 7.64465 37.9579C8.53385 38.5171 9.0662 38.727 10.0832 38.7727C11.2352 38.8229 11.4242 38.5718 11.5632 38.6066C10.6484 38.1696 9.95495 37.2956 9.6638 36.7125C9.3704 36.1226 9.2291 35.5458 9.2507 34.9731C9.29885 34.0426 9.68765 33.1116 10.4225 32.1856C11.1546 31.2591 12.0439 30.3806 13.0825 29.559C14.1215 28.733 15.2082 28.0033 16.3296 27.3568C17.4578 26.7145 18.4424 26.2141 19.2726 25.8513C19.8311 25.6351 20.3981 25.4252 20.9718 25.2243C21.5438 25.0275 22.1261 24.8375 22.7129 24.6629C21.9155 26.2643 21.0524 28.0363 20.1222 29.9829C19.1921 31.9254 18.2705 33.9553 17.3511 36.0679C15.8211 36.8415 14.3451 37.7788 12.9241 38.8713C11.498 39.9656 10.1399 41.2897 8.83805 42.8586C8.564 43.2037 8.27285 43.6362 7.96415 44.1565C7.65545 44.6744 7.3688 45.2444 7.10375 45.8606C6.83825 46.4767 6.61685 47.1146 6.43415 47.7683C6.25145 48.4215 6.1538 49.0417 6.1322 49.6339C6.11915 50.0885 6.143 50.5187 6.20375 50.934C6.2645 51.3493 6.4058 51.7356 6.6299 52.0921C6.7883 52.2776 7.0448 52.4043 7.4012 52.4676C7.7576 52.5314 8.1122 52.5332 8.4686 52.4744C8.8205 52.4133 9.11165 52.2867 9.338 52.0921C9.56165 51.8976 9.64445 51.6352 9.58145 51.3054L9.4442 51.015C9.21605 50.7897 9.0662 50.5255 8.9942 50.2152C8.92265 49.9049 8.89025 49.5923 8.9033 49.2756C8.9204 48.8671 8.9834 48.4541 9.0923 48.0325C9.20075 47.6149 9.338 47.2195 9.5072 46.8504C9.67685 46.4812 9.85505 46.1447 10.0485 45.8411C10.2375 45.5371 10.4094 45.2883 10.5678 45.087C11.2374 44.2899 11.9548 43.5729 12.7261 42.9373C13.4956 42.3012 14.319 41.7095 15.2015 41.163C14.6453 42.5351 14.1301 43.8791 13.6562 45.1987C13.1846 46.5183 12.7589 47.7832 12.3849 49.0024C12.0132 50.2215 11.7045 51.371 11.4634 52.459C11.2221 53.5492 11.0745 54.5368 11.0246 55.4262C10.805 56.2454 10.8005 56.9774 11.0026 57.6329C11.2046 58.2884 11.4872 58.7779 11.8503 59.1036C12.2175 59.4248 12.6068 59.5424 13.0262 59.4506C13.4411 59.3592 13.7696 58.9765 14.0018 58.2952C14.176 57.0977 14.4779 55.7406 14.9149 54.207C15.3518 52.6798 15.8841 51.0584 16.5124 49.3521C17.1405 47.6434 17.8466 45.8674 18.6291 44.0167C19.4094 42.166 20.2289 40.3243 21.0915 38.4908C22.6044 37.9688 24.0975 37.5494 25.5731 37.2414C27.0446 36.9333 28.4293 36.6555 29.7289 36.4045C30.1266 36.3389 30.5109 36.2755 30.8894 36.2122V36.2036V36.2054ZM95.2025 29.5568V29.5658L95.1962 29.5699L94.9505 28.5475C94.6094 27.4179 93.9398 26.2643 92.9358 25.6021C91.638 24.7457 90.0081 25.2044 88.7149 25.8011C87.7892 26.229 86.8914 26.8018 86.0311 27.5161C85.1702 28.2308 84.3661 29.061 83.6096 30.0006C82.8554 30.942 82.2011 31.9277 81.6512 32.9587C81.0995 33.9901 80.6495 35.041 80.3039 36.1072C79.9583 37.1735 79.7648 38.1981 79.7234 39.1703C79.7149 39.4874 79.7171 39.791 79.7301 40.0683C79.7387 40.3501 79.7626 40.6148 79.7887 40.8572C80.0082 42.389 80.5167 44.047 81.7754 45.0522C82.823 45.8891 84.0681 46.2428 85.5181 46.1076C86.2961 46.0243 87.0782 45.7579 87.8738 45.3078C88.6649 44.8622 89.4236 44.2876 90.1517 43.5883C90.8775 42.8871 91.5602 42.0809 92.1947 41.163C92.8292 40.2456 93.3791 39.2929 93.8484 38.3031C94.3182 37.3133 94.6963 36.3018 94.9896 35.2595C95.4919 33.4875 95.5135 31.3156 95.2048 29.5545L95.2025 29.5568ZM88.1892 41.3313C87.1655 41.9606 86.1611 42.1967 85.2008 41.9298C83.5511 41.4756 82.7924 39.2712 83.453 36.9156C83.7576 35.8186 84.2202 34.8008 84.9551 34.001C85.3047 33.625 85.3876 33.5051 85.7808 33.2143C86.9243 32.3841 88.4714 31.7372 89.0802 30.3914C89.4128 29.6595 89.5366 28.8488 89.6603 28.0517C90.2561 29.0171 90.869 30.0508 90.8645 31.1781L90.869 31.1826C90.8623 32.8297 89.5973 33.9833 88.8498 35.3206C88.7193 35.5522 88.6433 35.8711 88.6217 36.1398C88.5866 36.5682 88.7891 36.7822 89.1302 36.7297C89.7233 36.6315 90.1539 36.1642 90.4798 35.4843C90.5495 35.3405 90.5994 35.1916 90.6557 35.041C90.6755 35.041 90.6926 35.0365 90.7079 35.0365C90.7318 35.4997 91.045 36.129 91.0405 36.7451C91.0233 38.4189 89.6954 40.4049 88.1892 41.3313ZM79.5303 35.4563C79.4345 35.1152 79.2671 34.803 79.0259 34.5121C78.7892 34.2217 78.5043 33.953 78.1673 33.7083C77.837 33.4635 77.4891 33.2667 77.1327 33.1224C77.2938 33.1487 77.4743 33.1555 77.6764 33.1315C77.8784 33.1138 78.0611 33.0681 78.2348 33.0071C78.4085 32.9455 78.5565 32.865 78.6825 32.7709C78.804 32.6768 78.8715 32.5741 78.8823 32.4629C78.9476 31.8707 78.9584 31.2699 78.9215 30.6755C78.8846 30.0793 78.7869 29.5242 78.6218 29.0107C78.4566 28.4973 78.2154 28.058 77.8937 27.6997C77.5674 27.3392 77.1264 27.099 76.5743 26.9741C76.2525 26.9198 75.9551 26.8805 75.681 26.8674C75.407 26.8497 75.1266 26.8583 74.84 26.8891C73.8599 26.994 72.9036 27.313 71.9645 27.844C71.0258 28.377 70.1213 29.0501 69.2501 29.8648C68.3784 30.6841 67.5721 31.5975 66.8246 32.6049C66.0744 33.6119 65.4075 34.6456 64.814 35.7051C64.3361 36.5596 63.9207 37.4074 63.5706 38.2506C63.2948 38.7663 63.0037 39.2753 62.6972 39.7693C62.0168 40.8572 61.3216 41.8186 60.6083 42.6401C59.8955 43.4616 59.2088 44.1433 58.5392 44.6785C57.87 45.2182 57.2418 45.6027 56.6528 45.8475C56.0597 46.0922 55.5507 46.184 55.1142 46.1162L55.1813 46.1424C54.6557 46.0859 54.288 45.7995 54.0819 45.2775C53.8731 44.755 53.7642 44.1913 53.7624 43.5797C55.7533 42.7102 57.5722 41.506 59.2264 39.9724C60.8801 38.4384 62.2517 36.5922 63.3447 34.4402L63.3142 34.4751C63.6319 33.9222 63.8663 33.4025 64.0229 32.9216C64.1795 32.4411 64.2641 31.9756 64.2794 31.5187C64.3379 30.4941 64.0967 29.7142 63.5598 29.1722C63.023 28.6303 62.2926 28.3969 61.3845 28.4756C60.5151 28.5498 59.6259 28.8008 58.7196 29.2356C57.8133 29.6703 56.9615 30.2059 56.1596 30.8352C55.3577 31.4645 54.6273 32.1371 53.9668 32.8496C53.3102 33.5662 52.767 34.2303 52.3454 34.8379C51.1452 36.6886 50.2502 38.3795 49.6544 39.9131L49.5522 40.1886C49.3655 40.5184 49.1765 40.8505 48.983 41.1916C48.5177 42 48.029 42.7713 47.52 43.5032C47.0115 44.2352 46.4725 44.8947 45.8969 45.4761C45.3209 46.0596 44.7296 46.4966 44.1081 46.7893L43.7733 46.8196L43.8755 46.5446C43.9038 46.042 44.0514 45.3756 44.3125 44.5455C44.573 43.7149 44.8947 42.817 45.2728 41.847C45.6512 40.8812 46.0553 39.8959 46.4747 38.9016C46.8941 37.9077 47.2703 37.0161 47.6091 36.2339L47.583 36.304C47.7963 35.8055 47.9876 35.3576 48.1635 34.9491C48.3395 34.5474 48.4637 34.252 48.533 34.0643C48.6936 33.5291 48.659 33.0003 48.4286 32.4805C48.1982 31.9603 47.8746 31.5124 47.457 31.1256C47.0399 30.7434 46.5921 30.4724 46.112 30.324C45.6336 30.1706 45.2336 30.1951 44.9208 30.3851L44.5429 30.8963C44.3601 31.6413 44.073 32.5764 43.6775 33.7015C43.2819 34.827 42.854 36.0177 42.3977 37.2694L41.6606 39.3191C41.5845 39.4372 41.5107 39.5616 41.4324 39.6838C41.3564 39.8041 41.2911 39.9262 41.2367 40.0466L41.274 40.042C40.8672 40.7853 40.4393 41.5521 39.9916 42.332C39.5438 43.1164 39.07 43.8547 38.566 44.5518C38.066 45.2512 37.5291 45.8846 36.9684 46.455C36.4055 47.025 35.8164 47.4579 35.1991 47.7506L34.8993 47.7769L35.0015 47.5014C35.0123 47.0232 35.1405 46.374 35.3926 45.5416C35.6446 44.7115 35.9469 43.8244 36.3078 42.8803C36.666 41.9366 37.0531 40.9839 37.4684 40.0226C37.8833 39.0613 38.2658 38.1873 38.6222 37.4029L38.592 37.44C38.8396 36.8939 39.0528 36.4045 39.231 35.9806C39.4048 35.5522 39.5353 35.2332 39.6221 35.0215C39.7809 34.4859 39.7458 33.9571 39.5177 33.4373C39.2873 32.917 38.9637 32.4692 38.5461 32.0829C38.129 31.7001 37.6812 31.4292 37.2011 31.2808C36.7227 31.1279 36.3227 31.1519 36.0099 31.3378L35.6688 31.8467C35.4646 32.5678 35.1752 33.4766 34.8125 34.5691C34.4449 35.6639 34.0515 36.8044 33.6321 38.0014C33.3824 38.751 33.1236 39.5114 32.8541 40.2719C32.5845 41.0364 32.3258 41.7792 32.0715 42.4917C31.8173 43.2083 31.5977 43.8986 31.4064 44.565C31.2129 45.2313 31.059 45.819 30.9416 46.3283C30.8786 46.5839 30.8435 46.8612 30.8196 47.1539C30.8025 47.4511 30.7805 47.7221 30.7675 47.9736C30.722 49.1118 30.9087 50.0537 31.3263 50.7965C31.739 51.5457 32.4302 51.8867 33.3932 51.8275C33.8171 51.7818 34.2297 51.6723 34.6383 51.5063C35.0469 51.3362 35.4272 51.1439 35.7881 50.9254C36.1467 50.7047 36.4685 50.4731 36.7511 50.2261C37.0337 49.9813 37.2704 49.7587 37.4486 49.5552C37.8311 49.1752 38.2005 48.7689 38.5529 48.3319C38.9048 47.9013 39.2589 47.4358 39.6023 46.9486V46.9816C39.5636 48.1415 39.7566 49.0919 40.1828 49.837C40.6067 50.5803 41.315 50.9254 42.2974 50.8639C42.7212 50.8182 43.1343 50.7087 43.5429 50.5427C43.9515 50.3726 44.334 50.1804 44.6927 49.9619C45.0513 49.7411 45.3731 49.5095 45.6553 49.2625C45.9379 49.0177 46.175 48.7906 46.3532 48.5916C47.2334 47.685 48.0461 46.6798 48.7873 45.5855C48.9263 46.8287 49.3457 47.814 50.0459 48.5373C50.9346 49.4593 52.241 49.8284 53.9798 49.6384C54.2449 49.6099 54.6143 49.5511 55.0922 49.4679C55.566 49.3828 56.0921 49.2231 56.6744 48.9915C57.2526 48.7599 57.8831 48.4301 58.5505 48.0107C59.2219 47.5891 59.8955 47.0232 60.5782 46.3175C61.2603 45.5656 61.8885 44.8011 62.4713 44.0298C62.4929 44.2266 62.523 44.4252 62.5581 44.6283C62.6643 45.2381 62.8709 45.8018 63.1796 46.3062C63.486 46.8156 63.9144 47.2372 64.4621 47.5801C65.0098 47.9166 65.7072 48.0872 66.5636 48.0804C67.0698 48.0062 67.5828 47.8293 68.0896 47.5606C68.5981 47.2896 69.1088 46.9445 69.6218 46.5315L69.5129 46.7825L68.1327 49.918C67.7349 49.7999 67.3354 49.6995 66.933 49.6054C66.5267 49.514 66.105 49.4502 65.6618 49.4199C65.2181 49.3892 64.738 49.3783 64.2209 49.3869C63.7034 49.3959 63.1341 49.4353 62.5122 49.5027C61.2909 49.6339 60.0912 49.975 58.9176 50.5187C57.744 51.0652 56.7027 51.7619 55.7901 52.6187C54.8816 53.4751 54.149 54.4517 53.6059 55.5528C53.0604 56.6499 52.7927 57.8012 52.8017 58.9986C52.7864 60.0147 52.9583 60.8425 53.3165 61.4718C53.6751 62.1011 54.136 62.5751 54.7034 62.8986C55.2727 63.2221 55.9094 63.4184 56.6159 63.4862C57.3224 63.5604 58.0307 63.5541 58.7435 63.4776C59.9432 63.3225 61.0412 63.0207 62.0299 62.562C63.0189 62.1033 63.9446 61.5243 64.7946 60.8208C65.6488 60.1192 66.4353 59.313 67.1612 58.4105C67.887 57.5062 68.589 56.5232 69.2739 55.4501C69.539 55.6053 69.8194 55.7668 70.1105 55.9351C70.3998 56.1079 70.6932 56.2979 70.9889 56.5164L72.9928 57.7573C74.2685 58.5485 75.1356 58.2621 75.1356 58.2621C78.2825 57.4451 79.565 53.6868 79.565 53.6868C78.5934 54.1197 77.6219 53.9537 77.0527 53.7854L77.0612 53.8008L77.0567 53.8048C76.3354 53.5583 75.6549 53.2914 75.0312 52.9987C74.2663 52.6404 73.512 52.2753 72.7709 51.9021L71.7233 51.3362L79.5061 36.4524C79.6235 36.1226 79.6343 35.7883 79.5389 35.4472L79.5303 35.4563ZM55.4661 38.0561V38.0475C55.94 37.1278 56.4768 36.247 57.0744 35.4146C57.6721 34.5777 58.3309 33.8413 59.0392 33.1993C59.7519 32.557 60.4976 32.1154 61.2779 31.8752C61.5798 31.7526 61.7234 31.8512 61.7189 32.1679C61.691 32.3077 61.6559 32.4692 61.6235 32.6551C61.5866 32.8406 61.5191 33.0311 61.4061 33.2233V33.1903C60.6303 34.8311 59.6327 36.2819 58.4069 37.5318C57.1834 38.7817 55.8225 39.8195 54.3186 40.6365C54.6057 39.8367 54.9882 38.974 55.4639 38.0538L55.4661 38.0561ZM63.4883 57.7093C62.5622 58.8367 61.5668 59.7084 60.4891 60.3246C60.1934 60.4711 59.8586 60.6023 59.4892 60.7222C59.1197 60.838 58.7588 60.9212 58.4024 60.9583C58.0023 61.0022 57.6068 60.9932 57.2158 60.9321C56.827 60.871 56.4791 60.753 56.1767 60.5693C55.8747 60.3838 55.6335 60.1368 55.4617 59.8156C55.2857 59.4944 55.2056 59.0859 55.2141 58.5856C55.2164 57.836 55.4486 57.1674 55.9184 56.5752C56.3855 55.9812 56.9745 55.4655 57.6765 55.0285C58.3785 54.5915 59.1503 54.2418 59.9805 53.9799C60.8171 53.722 61.5996 53.5624 62.3408 53.5036C62.9883 53.4574 63.621 53.4705 64.238 53.5538C64.8554 53.6347 65.466 53.7677 66.0767 53.9492C65.2703 55.3235 64.4054 56.5734 63.486 57.7093H63.4883ZM75.1725 32.9872C75.0812 33.7431 74.8832 34.5474 74.5812 35.3907C74.2793 36.2384 73.9512 37.0771 73.6012 37.9032C73.26 38.4628 72.873 39.0504 72.4276 39.6774C71.982 40.3044 71.5429 40.888 71.1019 41.4318C70.6581 41.98 70.241 42.4546 69.8369 42.8608C69.4324 43.2671 69.0935 43.5186 68.8131 43.6145H68.7956C68.4522 43.7412 68.1719 43.7959 67.9721 43.7719C67.7655 43.748 67.6049 43.667 67.4852 43.5204C67.3655 43.3743 67.2939 43.1929 67.2678 42.9658C67.2395 42.7382 67.235 42.5025 67.2525 42.2556C67.257 41.8927 67.2895 41.5236 67.3569 41.1436C67.4244 40.7631 67.4982 40.4442 67.5806 40.1864C67.8546 39.2753 68.2547 38.2461 68.7825 37.1034C69.3086 35.9629 69.9193 34.875 70.6059 33.8526C71.2971 32.8297 72.0342 31.9648 72.8294 31.2568C73.625 30.5488 74.4336 30.1643 75.2571 30.0942C75.5244 30.0856 75.7463 30.1426 75.92 30.2584C76.0942 30.376 76.2224 30.538 76.3178 30.7434C76.4091 30.951 76.4699 31.1736 76.5005 31.416C76.5306 31.659 76.5437 31.8992 76.5505 32.1218C76.5396 32.2136 76.5419 32.3009 76.5658 32.3909C76.5851 32.4805 76.5941 32.5588 76.5788 32.6266C76.568 32.7402 76.6071 32.8496 76.685 32.9546C76.055 32.7755 75.5505 32.7818 75.168 32.9826L75.1725 32.9872ZM51.9692 66.9669H51.9737C51.9584 66.6063 51.8733 66.2634 51.7149 65.9463C51.5561 65.6274 51.341 65.3564 51.0674 65.1316C50.7457 64.8692 50.3847 64.7031 49.9829 64.6267C49.5761 64.5502 49.2003 64.5765 48.8462 64.7099C48.4916 64.8411 48.1811 65.0705 47.9179 65.3917C47.5115 65.8943 47.34 66.4426 47.4008 67.0302C47.466 67.6178 47.755 68.125 48.2657 68.5488C48.5438 68.7782 48.8264 68.9356 49.1175 69.0207C49.4069 69.108 49.7718 69.132 50.2065 69.0971L50.1368 68.3082C49.8155 68.3412 49.5482 68.3236 49.3439 68.267C49.1396 68.21 48.9416 68.1073 48.7634 67.9589C48.5483 67.7816 48.3917 67.5762 48.2963 67.336C48.1959 67.0958 48.1721 66.8533 48.2135 66.604C48.2571 66.3552 48.3656 66.1214 48.5415 65.9051C48.798 65.5948 49.122 65.4197 49.509 65.3849C49.8956 65.3501 50.252 65.4636 50.5652 65.7215C50.9391 66.025 51.1475 66.4597 51.1889 67.0171L51.9669 66.9646V66.9691L51.9692 66.9669ZM54.3339 67.17L51.426 70.618L52.2171 70.8999L52.8256 70.1919L54.4622 70.7727L54.4968 71.706L55.2879 71.9878L55.1097 67.4455L54.3362 67.17H54.3339ZM53.3646 69.5472L54.3663 68.3674H54.3708L54.4361 69.9295L53.3646 69.5495V69.5472ZM59.5868 68.5027H59.5827L59.5783 68.5072C59.5805 68.5095 59.585 68.5135 59.5868 68.5158V68.5027Z" fill="white"/>
<path d="M59.2304 70.1087C59.1674 70.039 58.9784 69.877 58.6656 69.6237C58.3308 69.3464 58.1306 69.165 58.0635 69.0795C58.0176 69.0161 57.9893 68.9487 57.9875 68.8786C57.9852 68.8085 58.0199 68.7434 58.0852 68.6864C58.1504 68.6294 58.2373 68.6013 58.3416 68.6013C58.5612 68.6013 58.7786 68.7452 58.9915 69.0383L59.5805 68.5095C59.3546 68.2561 59.148 68.0833 58.959 67.9852C58.7678 67.8911 58.5635 67.8431 58.3525 67.8409C58.0222 67.8409 57.7463 67.9458 57.5267 68.1575C57.3048 68.3697 57.1964 68.6185 57.2027 68.9135C57.2027 69.1125 57.2765 69.3179 57.4115 69.5233C57.5505 69.7219 57.8502 70.015 58.32 70.3882C58.5612 70.5873 58.7197 70.7316 58.7939 70.8275C58.8677 70.9216 58.9046 71.0175 58.9046 71.1138C58.9046 71.2211 58.8569 71.317 58.7678 71.3957C58.6742 71.4785 58.559 71.5178 58.4199 71.5178C58.1549 71.5201 57.9132 71.3301 57.7071 70.9587L57.0353 71.3694C57.2027 71.6861 57.394 71.92 57.6221 72.0643C57.8503 72.2104 58.1157 72.2851 58.4155 72.2828C58.8025 72.2851 59.1134 72.1692 59.3501 71.9399C59.5868 71.7101 59.702 71.4264 59.6957 71.0767C59.6912 70.8976 59.6565 70.7356 59.5868 70.5827C59.5175 70.4321 59.3955 70.2724 59.2304 70.1087ZM60.5975 67.7273L61.5537 71.8652L62.3318 71.6951L61.3756 67.5568L60.5975 67.7273ZM64.8684 66.2349L66.0335 68.7782L63.221 66.9777L62.5212 67.2944L64.2969 71.1641L65.0268 70.8365L63.8641 68.2951L66.6725 70.0933L67.3763 69.7743L65.6006 65.9074L64.8684 66.2349ZM71.2908 64.5439C70.9192 64.0368 70.4323 63.7355 69.8301 63.6369C69.2262 63.5365 68.6849 63.6654 68.2025 64.0173L68.2066 64.0128H68.2025C67.8807 64.2467 67.6458 64.5416 67.4874 64.9045C67.3286 65.2668 67.2723 65.6427 67.3156 66.034C67.3592 66.4249 67.5005 66.7855 67.7417 67.1134C68.0981 67.6047 68.5782 67.9019 69.1781 68.0155C69.7739 68.125 70.3279 67.9938 70.8409 67.6201C71.33 67.2641 71.6166 66.79 71.7057 66.191C71.7993 65.5971 71.6558 65.0483 71.2908 64.5439ZM70.9255 66.082C70.8692 66.462 70.6887 66.7678 70.3845 66.9908C70.1127 67.1854 69.8085 67.2749 69.4715 67.255C69.039 67.2356 68.6826 67.0347 68.4045 66.652C68.1544 66.3136 68.0567 65.9508 68.1089 65.5731C68.1656 65.1926 68.3478 64.8846 68.6633 64.6575V64.662C68.9783 64.4344 69.3239 64.3539 69.7086 64.4213C70.0934 64.4914 70.4039 64.6878 70.6451 65.0135C70.8867 65.3415 70.9799 65.6952 70.9277 66.0775L70.9255 66.082Z" fill="white"/>
</g>
<defs>
<radialGradient id="paint0_radial_11_661" cx="0" cy="0" r="1" gradientUnits="userSpaceOnUse" gradientTransform="translate(62.4562 -6.86013) rotate(52.8861) scale(172.024 173.223)">
<stop stop-color="white"/>
<stop offset="0.5" stop-color="#FBB03B"/>
<stop offset="1" stop-color="#C4272E"/>
</radialGradient>
<radialGradient id="paint1_radial_11_661" cx="0" cy="0" r="1" gradientUnits="userSpaceOnUse" gradientTransform="translate(73.9378 40.8525) rotate(27.6077) scale(159.39 136.969)">
<stop stop-color="white"/>
<stop offset="0.5" stop-color="#FBB03B"/>
<stop offset="1" stop-color="#C4272E"/>
</radialGradient>
<linearGradient id="paint2_linear_11_661" x1="178.005" y1="87.991" x2="92.403" y2="-4.44454" gradientUnits="userSpaceOnUse">
<stop stop-color="white"/>
<stop offset="1" stop-color="white" stop-opacity="0"/>
</linearGradient>
<linearGradient id="paint3_linear_11_661" x1="60.9931" y1="-75.7228" x2="74.7035" y2="28.1387" gradientUnits="userSpaceOnUse">
<stop stop-color="white"/>
<stop offset="1" stop-color="white" stop-opacity="0"/>
</linearGradient>
<radialGradient id="paint4_radial_11_661" cx="0" cy="0" r="1" gradientUnits="userSpaceOnUse" gradientTransform="translate(155.366 85.4442) rotate(13.635) scale(167.951 197.671)">
<stop stop-color="white"/>
<stop offset="0.5" stop-color="#FBB03B"/>
<stop offset="1" stop-color="#C4272E"/>
</radialGradient>
<linearGradient id="paint5_linear_11_661" x1="214.354" y1="67.3688" x2="146.216" y2="-13.1323" gradientUnits="userSpaceOnUse">
<stop stop-color="white"/>
<stop offset="1" stop-color="white" stop-opacity="0"/>
</linearGradient>
<radialGradient id="paint6_radial_11_661" cx="0" cy="0" r="1" gradientUnits="userSpaceOnUse" gradientTransform="translate(204.45 78.8096) rotate(6.28198) scale(209.826 174.79)">
<stop stop-color="white"/>
<stop offset="0.5" stop-color="#FBB03B"/>
<stop offset="1" stop-color="#C4272E"/>
</radialGradient>
<linearGradient id="paint7_linear_11_661" x1="273.157" y1="54.8073" x2="78.1845" y2="11.5162" gradientUnits="userSpaceOnUse">
<stop stop-color="white"/>
<stop offset="1" stop-color="white" stop-opacity="0"/>
</linearGradient>
<radialGradient id="paint8_radial_11_661" cx="0" cy="0" r="1" gradientUnits="userSpaceOnUse" gradientTransform="translate(-35.1495 108.133) rotate(133.619) scale(151.8 219.519)">
<stop stop-color="white"/>
<stop offset="0.5" stop-color="#FBB03B"/>
<stop offset="1" stop-color="#C4272E"/>
</radialGradient>
<linearGradient id="paint9_linear_11_661" x1="-17.1974" y1="142.317" x2="6.19566" y2="31.8435" gradientUnits="userSpaceOnUse">
<stop stop-color="white"/>
<stop offset="1" stop-color="white" stop-opacity="0"/>
</linearGradient>
<radialGradient id="paint10_radial_11_661" cx="0" cy="0" r="1" gradientUnits="userSpaceOnUse" gradientTransform="translate(-35.1921 108.122) rotate(133.62) scale(151.801 219.519)">
<stop stop-color="white"/>
<stop offset="0.5" stop-color="#FBB03B"/>
<stop offset="1" stop-color="#C4272E"/>
</radialGradient>
<linearGradient id="paint11_linear_11_661" x1="-17.1973" y1="142.317" x2="6.19044" y2="31.8563" gradientUnits="userSpaceOnUse">
<stop stop-color="white"/>
<stop offset="1" stop-color="white" stop-opacity="0"/>
</linearGradient>
<clipPath id="clip0_11_661">
<rect width="135" height="76" fill="white" transform="translate(0.5)"/>
</clipPath>
</defs>
</svg>
