<svg width="100" height="18" viewBox="0 0 100 18" fill="none" xmlns="http://www.w3.org/2000/svg">
<g clip-path="url(#clip0_11_790)">
<path d="M43.4381 11.7155V8.06205C43.4381 6.67373 42.5616 5.74818 41.1493 5.74818C40.3215 5.69947 39.5423 6.08917 39.104 6.79551C38.6901 6.11353 37.9597 5.72383 37.1805 5.74818C36.4987 5.72383 35.8413 6.04046 35.4761 6.62502V5.89432H34.21V11.7399H35.5004V8.47612C35.5004 7.45314 36.0605 6.9173 36.937 6.9173C37.8136 6.9173 38.2031 7.4775 38.2031 8.45176V11.6912H39.4693V8.47612C39.4693 7.45314 40.0536 6.9173 40.9058 6.9173C41.758 6.9173 42.1963 7.4775 42.1963 8.45176V11.6912L43.4381 11.7155ZM62.4057 5.89432H60.3361V4.1163H59.0456V5.89432H57.8525V7.06344H59.0456V9.7183C59.0456 11.0823 59.5569 11.886 61.0665 11.886C61.6266 11.886 62.1866 11.7399 62.6492 11.4476L62.284 10.3516C61.9431 10.5464 61.5535 10.6682 61.1639 10.6682C60.5309 10.6682 60.3117 10.2785 60.3117 9.69394V7.03908H62.3814L62.4057 5.89432ZM73.2165 5.74818C72.5835 5.72383 71.9991 6.06482 71.6826 6.60066V5.89432H70.4164V11.7155H71.6826V8.45176C71.6826 7.4775 72.0965 6.94165 72.9244 6.94165C73.1922 6.94165 73.46 6.99037 73.7279 7.08779L74.1174 5.89432C73.8253 5.7969 73.5331 5.74818 73.2165 5.74818ZM56.8542 6.3571C56.1481 5.91868 55.3203 5.72383 54.4681 5.74818C52.9828 5.74818 52.0332 6.45452 52.0332 7.62364C52.0332 8.57354 52.7393 9.1581 54.0541 9.35295L54.6628 9.42602C55.369 9.52345 55.6855 9.7183 55.6855 10.0349C55.6855 10.4734 55.2229 10.7413 54.3463 10.7413C53.6402 10.7656 52.9584 10.5464 52.3984 10.1324L51.8141 11.1066C52.5445 11.6181 53.4454 11.886 54.3463 11.8617C56.0264 11.8617 57.0003 11.0579 57.0003 9.96186C57.0003 8.93889 56.2212 8.40305 54.955 8.20819L54.3463 8.13512C53.7863 8.06205 53.348 7.94027 53.348 7.57492C53.348 7.13651 53.7619 6.89294 54.4681 6.89294C55.1011 6.89294 55.7342 7.06344 56.2942 7.38007L56.8542 6.3571ZM90.8206 5.74818C90.1876 5.72383 89.6032 6.06482 89.2867 6.60066V5.89432H88.0205V11.7155H89.2867V8.45176C89.2867 7.4775 89.7006 6.94165 90.5284 6.94165C90.7963 6.94165 91.0641 6.99037 91.332 7.08779L91.7215 5.89432C91.4537 5.7969 91.1372 5.74818 90.8206 5.74818ZM74.4827 8.79275C74.4827 10.5708 75.7245 11.8617 77.5993 11.8617C78.3541 11.9104 79.1089 11.6425 79.6933 11.1553L79.0846 10.1324C78.6463 10.4734 78.1106 10.6438 77.5506 10.6682C76.528 10.6682 75.7975 9.91315 75.7975 8.79275C75.7975 7.67235 76.5523 6.94165 77.5506 6.9173C78.1106 6.9173 78.6463 7.11215 79.0846 7.45314L79.6933 6.43017C79.1089 5.94304 78.3541 5.69947 77.5993 5.72383C75.7245 5.74818 74.4827 7.03908 74.4827 8.79275ZM86.3648 8.79275V5.86997H85.0987V6.57631C84.6604 6.0161 83.9786 5.69947 83.2482 5.72383C81.6168 5.72383 80.3263 7.01472 80.3263 8.79275C80.3263 10.5708 81.6168 11.8617 83.2482 11.8617C83.9543 11.886 84.6604 11.5694 85.0987 11.0092V11.7155H86.3648V8.79275ZM81.6412 8.79275C81.6412 7.76978 82.3229 6.9173 83.4186 6.9173C84.4656 6.9173 85.1717 7.72106 85.1717 8.79275C85.1717 9.86444 84.4656 10.6682 83.4186 10.6682C82.3229 10.6682 81.6412 9.81572 81.6412 8.79275ZM66.3502 5.74818C64.6458 5.74818 63.4527 6.99037 63.4527 8.81711C63.4527 10.6682 64.6945 11.886 66.4476 11.886C67.3242 11.9104 68.1764 11.6181 68.8338 11.0579L68.2251 10.108C67.7381 10.4977 67.1294 10.7169 66.5207 10.7169C65.6928 10.7169 64.9623 10.3516 64.7675 9.27988H69.1016C69.1016 9.10939 69.126 8.96325 69.126 8.79275C69.1016 6.99037 67.9816 5.74818 66.3502 5.74818ZM66.3259 6.86858C67.1537 6.86858 67.665 7.38007 67.8111 8.28126H64.7675C64.9136 7.45314 65.425 6.86858 66.3259 6.86858ZM98.1252 8.79275V3.53174H96.8591V6.57631C96.4208 6.0161 95.7391 5.69947 95.0086 5.72383C93.3772 5.72383 92.0868 7.01472 92.0868 8.79275C92.0868 10.5708 93.3772 11.8617 95.0086 11.8617C95.7147 11.886 96.4208 11.5694 96.8591 11.0092V11.7155H98.1252V8.79275ZM99.6105 11.1797C99.6592 11.1797 99.7079 11.1797 99.7566 11.204C99.8053 11.2284 99.8296 11.2528 99.8783 11.2771C99.9027 11.3015 99.9514 11.3502 99.9514 11.3989C100 11.4963 100 11.5938 99.9514 11.6912C99.927 11.7399 99.9027 11.7642 99.8783 11.813C99.854 11.8373 99.8053 11.886 99.7566 11.886C99.7079 11.9104 99.6592 11.9104 99.6105 11.9104C99.4644 11.9104 99.3183 11.813 99.2696 11.6912C99.2209 11.5938 99.2209 11.4963 99.2696 11.3989C99.3183 11.3015 99.3914 11.2284 99.4644 11.204C99.5131 11.1797 99.5618 11.1797 99.6105 11.1797ZM99.6105 11.8373C99.6592 11.8373 99.6835 11.8373 99.7322 11.813C99.7566 11.7886 99.8053 11.7886 99.8296 11.7399C99.9514 11.6181 99.9514 11.4476 99.8296 11.3258C99.8053 11.3015 99.7809 11.2771 99.7322 11.2528C99.7079 11.2284 99.6592 11.2284 99.6105 11.2284C99.5618 11.2284 99.5375 11.2284 99.4888 11.2528C99.3427 11.3258 99.2696 11.4963 99.3427 11.6425C99.367 11.6668 99.367 11.7155 99.3914 11.7399C99.4157 11.7642 99.4401 11.7886 99.4888 11.813C99.5375 11.8373 99.5862 11.8373 99.6105 11.8373ZM99.6348 11.3745C99.6592 11.3745 99.7079 11.3745 99.7322 11.3989C99.7566 11.4233 99.7809 11.4476 99.7566 11.472C99.7566 11.4963 99.7566 11.5207 99.7322 11.545C99.7079 11.5694 99.6835 11.5694 99.6592 11.5694L99.7809 11.6912H99.6835L99.5862 11.5694H99.5618V11.6912H99.4888V11.3502L99.6348 11.3745ZM99.5618 11.4476V11.545H99.6592C99.6835 11.545 99.6835 11.545 99.7079 11.545L99.7322 11.5207C99.7322 11.4963 99.7322 11.4963 99.7079 11.4963C99.6835 11.4963 99.6835 11.4963 99.6592 11.4963L99.5618 11.4476ZM93.4259 8.79275C93.4259 7.76978 94.1077 6.9173 95.2034 6.9173C96.2504 6.9173 96.9565 7.72106 96.9565 8.79275C96.9565 9.86444 96.2504 10.6682 95.2034 10.6682C94.0833 10.6682 93.4259 9.81572 93.4259 8.79275ZM50.5966 8.79275V5.86997H49.3305V6.57631C48.8922 6.0161 48.2104 5.69947 47.5043 5.72383C45.873 5.72383 44.5825 7.01472 44.5825 8.79275C44.5825 10.5708 45.873 11.8617 47.5043 11.8617C48.2104 11.886 48.9166 11.5694 49.3548 11.0092V11.7155H50.621L50.5966 8.79275ZM45.873 8.79275C45.873 7.76978 46.5547 6.9173 47.6504 6.9173C48.6974 6.9173 49.4035 7.72106 49.4035 8.79275C49.4035 9.86444 48.6974 10.6682 47.6504 10.6682C46.5304 10.6682 45.873 9.81572 45.873 8.79275Z" fill="#231F20"/>
<path d="M10.3481 1.87549H18.018V15.6613H10.3481V1.87549Z" fill="#FF5F00"/>
<path d="M10.8352 8.76843C10.8352 6.08921 12.077 3.53177 14.1953 1.87553C10.3726 -1.12033 4.86981 -0.4627 1.87492 3.36128C-1.11997 7.18525 -0.462551 12.6655 3.36019 15.6613C6.54987 18.1701 11.0057 18.1701 14.1953 15.6613C12.077 14.0051 10.8352 11.4476 10.8352 8.76843Z" fill="#EB001B"/>
<path d="M28.3662 8.76843C28.3662 13.6154 24.446 17.5368 19.6007 17.5368C17.6284 17.5368 15.7292 16.8792 14.1952 15.6613C17.9936 12.6655 18.6511 7.1609 15.6562 3.36128C15.2179 2.80108 14.7309 2.31395 14.1709 1.87553C17.9693 -1.12033 23.4964 -0.4627 26.4913 3.36128C27.7088 4.89574 28.3662 6.79555 28.3662 8.76843Z" fill="#F79E1B"/>
<path d="M27.5142 14.1998V13.9076H27.6359V13.8589H27.3438V13.9076H27.4655V14.1998H27.5142ZM28.0742 14.1998V13.8589H28.0012L27.9038 14.1024L27.8064 13.8589H27.709V14.1998H27.7577V13.9319L27.8551 14.1511H27.9281L28.0255 13.9319V14.1998H28.0742Z" fill="#F79E1B"/>
</g>
<defs>
<clipPath id="clip0_11_790">
<rect width="100" height="17.5367" fill="white"/>
</clipPath>
</defs>
</svg>
