<svg width="100" height="18" viewBox="0 0 100 18" fill="none" xmlns="http://www.w3.org/2000/svg">
<g clip-path="url(#clip0_11_780)">
<path d="M98.17 1.31447C96.8957 0.440659 94.967 -3.39531e-05 92.439 -3.39531e-05H85.8183L83.3569 13.3742H74.6836L75.2411 10.3399H80.4657L81.0848 6.93185L75.8632 6.93937L76.4222 3.91858H81.8038L82.5199 0.000746743H71.5909L69.2542 12.6871H65.2436L67.596 7.94814e-05H61.883L59.5464 12.6864H55.6394L57.994 7.94814e-05H52.284L49.8197 13.3743H41.084L41.6362 10.34H46.8819L47.5018 6.95131L42.2611 6.94605L42.8171 3.91925H48.2591L48.9706 -0.000244141H14.9139L12.9755 10.5979L9.11518 -0.000244141H3.18785L-0.00231934 17.2959H5.65835L7.58928 6.40547L11.3353 17.2959H31.6226L34.0892 3.91758H37.2621L34.7955 17.2959H88.1755L89.7232 8.85098L92.2267 17.2959H97.8903L95.296 10.3954L95.8896 10.2675C97.1969 9.98703 98.2164 9.38467 98.9264 8.48153C99.6357 7.57012 99.9971 6.39997 99.9971 4.99442C99.9971 3.35806 99.399 2.15412 98.1684 1.31347L98.17 1.31447ZM26.6966 13.3742H18.0316L18.5914 10.3399H24.0264L24.6425 6.92217H19.2598L19.7782 3.91943H28.4306L26.695 13.3742L26.6966 13.3742ZM93.5033 7.54837C92.9338 7.94692 92.1081 8.14093 90.9788 8.14093H89.8593L90.7181 3.49945H91.5416C92.4792 3.49945 93.1629 3.64986 93.6348 3.95666C94.0029 4.1973 94.4409 4.67334 94.4409 5.57347C94.4396 6.66238 93.93 7.24743 93.5018 7.54823L93.5033 7.54837Z" fill="#83BA3B"/>
</g>
<defs>
<clipPath id="clip0_11_780">
<rect width="100" height="17.2961" fill="white"/>
</clipPath>
</defs>
</svg>
