<svg width="100" height="25" viewBox="0 0 100 25" fill="none" xmlns="http://www.w3.org/2000/svg">
<g clip-path="url(#clip0_11_721)">
<path d="M37.4062 5.46851H31.8654C31.4783 5.46851 31.1637 5.73467 31.1154 6.12182L28.8652 20.3254C28.8168 20.5674 28.9862 20.8094 29.2523 20.8578C29.2765 20.8578 29.3007 20.8578 29.3249 20.8578H31.9622C32.3493 20.8578 32.6639 20.5916 32.7123 20.2044L33.3171 16.3813C33.3655 16.0184 33.7043 15.728 34.0672 15.728H35.8093C39.4628 15.728 41.5678 13.9616 42.1001 10.4773C42.3421 8.95286 42.1001 7.74302 41.3984 6.89613C40.6484 5.95244 39.245 5.46851 37.4062 5.46851ZM38.0353 10.6467C37.7207 12.6308 36.2206 12.6308 34.7447 12.6308H33.8978L34.4785 8.92867C34.5027 8.7109 34.6963 8.54152 34.9382 8.54152H35.3254C36.3174 8.54152 37.261 8.54152 37.7449 9.12224C38.0595 9.4368 38.132 9.94494 38.0353 10.6467ZM53.9317 10.5741H51.2702C51.0524 10.5741 50.8589 10.7434 50.8105 10.9612L50.6895 11.7113L50.4959 11.4451C49.9153 10.6225 48.6329 10.3321 47.3747 10.3321C44.4471 10.3321 41.9549 12.5582 41.4468 15.6554C41.2049 17.204 41.5436 18.68 42.4388 19.7205C43.2373 20.6642 44.3987 21.0755 45.7778 21.0755C48.149 21.0755 49.4555 19.5511 49.4555 19.5511L49.3346 20.277C49.2862 20.519 49.4555 20.761 49.7217 20.8094C49.7459 20.8094 49.7701 20.8094 49.7943 20.8094H52.1896C52.5768 20.8094 52.8913 20.5432 52.9397 20.156L54.3672 11.0822C54.4156 10.8402 54.2463 10.5983 53.9801 10.5499C53.9801 10.5741 53.9559 10.5741 53.9317 10.5741ZM50.254 15.728C49.9878 17.2524 48.8023 18.2687 47.2538 18.2687C46.4795 18.2687 45.8746 18.0267 45.4633 17.5428C45.0762 17.083 44.931 16.4055 45.052 15.6796C45.2939 14.1794 46.5037 13.1389 48.028 13.1389C48.7781 13.1389 49.383 13.3809 49.7943 13.8648C50.2056 14.3488 50.3508 15.0021 50.254 15.728ZM68.0619 10.5741H65.4004C65.1342 10.5741 64.9165 10.695 64.7713 10.9128L61.0936 16.3329L59.5209 11.1306C59.4241 10.816 59.1337 10.5741 58.7708 10.5741H56.1577C55.8915 10.5741 55.698 10.7676 55.698 11.0338C55.698 11.0822 55.698 11.1306 55.7222 11.179L58.6498 19.7931L55.8915 23.6888C55.7464 23.9066 55.7948 24.1727 56.0125 24.3421C56.0851 24.3905 56.1819 24.4389 56.2787 24.4389H58.9402C59.1821 24.4389 59.4241 24.3179 59.5693 24.1002L68.4248 11.3242C68.57 11.1064 68.5216 10.816 68.3038 10.6708C68.2312 10.5983 68.1345 10.5741 68.0619 10.5741Z" fill="#253B80"/>
<path d="M76.8691 5.46851H71.3283C70.9412 5.46851 70.6266 5.73466 70.5782 6.12178L68.3281 20.3245C68.2797 20.5665 68.449 20.8085 68.7152 20.8568C68.7394 20.8568 68.7636 20.8568 68.7878 20.8568H71.6187C71.8848 20.8568 72.1026 20.6633 72.151 20.3971L72.78 16.3807C72.8284 16.0177 73.1672 15.7274 73.5301 15.7274H75.2722C78.9257 15.7274 81.0307 13.9611 81.563 10.477C81.805 8.95266 81.563 7.74288 80.8613 6.89604C80.1113 5.95242 78.7321 5.46851 76.8691 5.46851ZM77.4982 10.6463C77.2078 12.6304 75.6835 12.6304 74.2076 12.6304H73.3849L73.9656 8.92846C73.9898 8.7107 74.1834 8.54133 74.4253 8.54133H74.8125C75.8045 8.54133 76.7481 8.54133 77.232 9.12203C77.5224 9.43657 77.6191 9.94467 77.4982 10.6463ZM93.4188 10.5738H90.7815C90.5637 10.5738 90.3702 10.7431 90.3218 10.9609L90.2008 11.7109L90.0072 11.4448C89.4265 10.6221 88.1442 10.3318 86.886 10.3318C83.9584 10.3318 81.4662 12.5578 80.9581 15.6548C80.7162 17.2033 81.0549 18.6792 81.9501 19.7197C82.7486 20.6633 83.91 21.0746 85.2891 21.0746C87.6603 21.0746 88.9668 19.5503 88.9668 19.5503L88.8459 20.2762C88.7975 20.5181 88.9668 20.7601 89.233 20.8085C89.2572 20.8085 89.2814 20.8085 89.3056 20.8085H91.7009C92.088 20.8085 92.4026 20.5423 92.451 20.1552L93.8785 11.0819C93.9269 10.8399 93.7333 10.598 93.4914 10.5496C93.4672 10.5738 93.443 10.5738 93.4188 10.5738ZM89.7169 15.7274C89.4507 17.2517 88.2652 18.2679 86.7166 18.2679C85.9424 18.2679 85.3375 18.026 84.9262 17.5421C84.539 17.0823 84.3939 16.4049 84.5149 15.679C84.7568 14.1789 85.9666 13.1385 87.4909 13.1385C88.241 13.1385 88.8458 13.3804 89.2572 13.8643C89.6685 14.3483 89.8379 15.0015 89.7169 15.7274ZM96.54 5.85563L94.2656 20.3003C94.2173 20.5423 94.3866 20.7843 94.6528 20.8326C94.677 20.8326 94.7012 20.8326 94.7254 20.8326H96.9997C97.3869 20.8326 97.7014 20.5665 97.7498 20.1794L100 6.00081C100.048 5.75885 99.879 5.5169 99.6129 5.46851C99.5887 5.46851 99.5645 5.46851 99.5403 5.46851H96.9755C96.7578 5.46851 96.5642 5.63787 96.54 5.85563Z" fill="#179BD7"/>
<path d="M5.87947 23.5921L6.29079 20.9062L5.34716 20.882H0.846802L3.96802 1.04053C3.99222 0.919542 4.089 0.822754 4.23417 0.822754H11.8316C14.3479 0.822754 16.09 1.35509 17.0094 2.37136C17.4449 2.8553 17.7111 3.36343 17.832 3.91996C17.9772 4.50069 17.9772 5.2024 17.832 6.04929V6.12188V6.67841L18.2676 6.92038C18.5821 7.08976 18.8966 7.30753 19.1386 7.5737C19.5015 7.98505 19.7435 8.51738 19.8403 9.1465C19.9371 9.79982 19.9129 10.5499 19.7435 11.421C19.5499 12.4131 19.2354 13.2842 18.7999 13.9859C18.4369 14.615 17.9288 15.1715 17.3239 15.6071C16.7674 16.0184 16.09 16.3088 15.3399 16.5024C14.614 16.6959 13.7672 16.7927 12.8478 16.7927H12.2671C11.8558 16.7927 11.4444 16.9379 11.1057 17.2283C10.7912 17.4944 10.5734 17.8816 10.5008 18.2929L10.4524 18.5349L9.67816 23.3017L9.65396 23.4711C9.65396 23.5195 9.62977 23.5437 9.60557 23.5679C9.58138 23.5921 9.55718 23.5921 9.53299 23.5921H5.87947Z" fill="#253B80"/>
<path d="M18.6547 6.19434C18.6305 6.33952 18.6063 6.4847 18.5821 6.62988C17.5901 11.7596 14.1543 13.5502 9.77493 13.5502H7.54894C7.01664 13.5502 6.55693 13.9374 6.48434 14.4697L5.34715 21.7046L5.03261 23.7613C4.98422 24.0759 5.20198 24.3662 5.51652 24.4146C5.54072 24.4146 5.56491 24.4146 5.6133 24.4146H9.55717C10.0169 24.4146 10.4282 24.0759 10.5008 23.6161L10.5492 23.4226L11.2992 18.7042L11.3476 18.438C11.4202 17.9782 11.8074 17.6395 12.2913 17.6395H12.8236C16.6465 17.6395 19.6467 16.0909 20.5177 11.5903C20.8807 9.70289 20.6871 8.15429 19.7193 7.04123C19.4289 6.70247 19.066 6.41211 18.6547 6.19434Z" fill="#179BD7"/>
<path d="M17.6143 5.7831C17.2998 5.68632 16.9611 5.61373 16.6465 5.56534C15.9932 5.46856 15.34 5.42017 14.6867 5.42017H8.71039C8.25067 5.42017 7.83935 5.7589 7.76676 6.21862L6.5086 14.2273L6.46021 14.4693C6.53279 13.937 6.99251 13.5499 7.52481 13.5499H9.75079C14.1302 13.5499 17.5417 11.7836 18.558 6.62994C18.5822 6.48477 18.6063 6.3396 18.6305 6.19442C18.3644 6.04925 18.0982 5.92827 17.8079 5.85569C17.7595 5.83149 17.6869 5.80729 17.6143 5.7831Z" fill="#222D65"/>
<path d="M7.79089 6.21861C7.86348 5.75887 8.25061 5.42011 8.73452 5.42011H14.6866C15.3883 5.42011 16.0416 5.46851 16.6464 5.5653C17.0578 5.63789 17.4449 5.73468 17.8562 5.85566C18.1466 5.95245 18.4369 6.07343 18.6789 6.19442C18.9692 4.30706 18.6789 3.00042 17.6385 1.83897C16.5013 0.55653 14.4447 0 11.8315 0H4.23415C3.70185 0 3.24214 0.387151 3.16955 0.919484L-5.97495e-05 20.9546C-0.0484508 21.3175 0.193504 21.6563 0.532241 21.7047C0.556437 21.7047 0.604828 21.7047 0.629023 21.7047H5.32295L6.50853 14.2278C6.50853 14.252 7.79089 6.21861 7.79089 6.21861Z" fill="#253B80"/>
</g>
<defs>
<clipPath id="clip0_11_721">
<rect width="100" height="24.4631" fill="white"/>
</clipPath>
</defs>
</svg>
