<svg width="100" height="17" viewBox="0 0 100 17" fill="none" xmlns="http://www.w3.org/2000/svg">
<g clip-path="url(#clip0_11_838)">
<path d="M18.3089 4.81396H14.9729C13.8868 4.81396 13.0334 5.66804 13.0334 6.75504V17.0039H15.2057V13.6652H18.0761C19.2398 13.6652 20.1708 12.7335 20.1708 11.5689V6.75504C20.2483 5.66804 19.395 4.81396 18.3089 4.81396ZM18.0761 10.8701C18.0761 11.1807 17.8434 11.4136 17.5331 11.4136H15.9039C15.5936 11.4136 15.3608 11.1807 15.3608 10.8701V7.60911C15.3608 7.29854 15.5936 7.06561 15.9039 7.06561H17.5331C17.8434 7.06561 18.0761 7.29854 18.0761 7.60911V10.8701Z" fill="#008ACA"/>
<path d="M27.3856 4.81396H22.1102V7.06561H26.6098C26.8426 7.06561 26.9977 7.22089 26.9977 7.45382V7.76439H23.817C22.8085 7.76439 21.9551 8.61846 21.9551 9.62782V11.8795C21.9551 12.8888 22.8085 13.7429 23.817 13.7429H27.3856C28.3942 13.7429 29.2476 12.8888 29.2476 11.8795V6.67739C29.17 5.66804 28.3942 4.81396 27.3856 4.81396ZM26.9977 10.3266V11.0254C26.9977 11.2583 26.765 11.4913 26.5323 11.4913H24.6704C24.4376 11.4913 24.2049 11.2583 24.2049 11.0254V10.3266C24.2049 10.0937 24.4376 9.86075 24.6704 9.86075H26.5323C26.765 9.78311 26.9977 10.016 26.9977 10.3266Z" fill="#008ACA"/>
<path d="M53.3747 4.81396H48.0993V7.06561H52.5989C52.8316 7.06561 52.9868 7.22089 52.9868 7.45382V7.76439H49.806C48.7975 7.76439 47.9441 8.61846 47.9441 9.62782V11.8795C47.9441 12.8888 48.7975 13.7429 49.806 13.7429H53.3747C54.3832 13.7429 55.2366 12.8888 55.2366 11.8795V6.67739C55.2366 5.66804 54.3832 4.81396 53.3747 4.81396ZM53.0643 10.3266V11.0254C53.0643 11.2583 52.8316 11.4913 52.5989 11.4913H50.737C50.5042 11.4913 50.2715 11.2583 50.2715 11.0254V10.3266C50.2715 10.0937 50.5042 9.86075 50.737 9.86075H52.5989C52.8316 9.78311 53.0643 10.016 53.0643 10.3266Z" fill="#008ACA"/>
<path d="M46.4702 4.81396V7.06561H42.3585C42.1257 7.06561 41.9706 7.22089 41.9706 7.45382V7.76439C41.9706 7.99732 42.1257 8.15261 42.3585 8.15261H44.6083C45.6944 8.15261 46.5478 9.00668 46.5478 10.0937V11.5689C46.5478 12.7335 45.6168 13.6653 44.4531 13.6653H39.8759V11.4136H43.9101C44.1428 11.4136 44.298 11.2583 44.298 11.0254V10.7148C44.298 10.4819 44.1428 10.3266 43.9101 10.3266H41.893C40.7293 10.3266 39.7983 9.39489 39.7983 8.23025V6.75504C39.7983 5.66804 40.6517 4.81396 41.7378 4.81396H46.4702Z" fill="#008ACA"/>
<path d="M69.201 8.77375V6.67739C69.201 5.66804 68.3476 4.81396 67.3391 4.81396H63.9256C62.8395 4.81396 61.9861 5.66804 61.9861 6.75504V11.7242C61.9861 12.8112 62.8395 13.6653 63.9256 13.6653H69.1234V11.4136H64.6238C64.3911 11.4136 64.2359 11.2583 64.2359 11.0254V10.6372L69.201 8.77375ZM64.2359 8.54082V7.45382C64.2359 7.22089 64.3911 7.06561 64.6238 7.06561H66.6409C66.8736 7.06561 67.0288 7.22089 67.0288 7.45382L64.2359 8.54082Z" fill="#008ACA"/>
<path d="M38.0916 14.8299V4.81396H35.9194V10.8701C35.9194 11.1807 35.6866 11.4913 35.2987 11.4913H33.6696C33.3593 11.4913 33.0489 11.2583 33.0489 10.8701V4.81396H30.8767C30.8767 4.81396 30.8767 10.0937 30.8767 11.4913C30.8767 12.5782 31.6525 13.6652 33.0489 13.6652H35.8418C35.8418 13.6652 35.8418 13.8205 35.8418 14.1311C35.8418 14.6746 35.4539 14.7522 35.066 14.7522C34.6781 14.7522 30.8767 14.7522 30.8767 14.7522V17.0039H35.7642C37.1607 17.0039 38.0916 15.9945 38.0916 14.8299Z" fill="#008ACA"/>
<path d="M60.7448 3.6491V1.4751H59.1156C57.9519 1.4751 56.9434 2.40681 56.9434 3.6491V13.7427H59.1156V6.98774H60.6672V4.81374H59.1156V4.27024C59.1156 3.88203 59.4259 3.6491 59.7362 3.6491H60.7448Z" fill="#008ACA"/>
<path d="M76.8037 5.74568V4.81396H73.4678C72.3816 4.81396 71.4507 5.74568 71.4507 6.83268V11.7242C71.4507 12.8112 72.3816 13.7429 73.4678 13.7429H76.8037V12.8112H73.5453C72.9247 12.8112 72.3816 12.2677 72.3816 11.6465V6.91032C72.3816 6.28918 72.9247 5.74568 73.5453 5.74568H76.8037Z" fill="#008ACA"/>
<path d="M91.3112 4.81396H90.4578C89.3717 4.81396 88.8286 5.51275 88.8286 6.44447V13.6653H89.7596V6.67739C89.7596 6.13389 89.9147 5.66804 90.6129 5.66804H91.3112V4.81396Z" fill="#008ACA"/>
<path d="M79.2087 4.81396V5.74568H84.1738C84.7168 5.74568 85.1047 6.13389 85.1047 6.67739V7.76439H81.1482C80.0621 7.76439 79.1311 8.69611 79.1311 9.78311V11.6465C79.1311 12.7335 80.0621 13.6653 81.1482 13.6653H84.0186C85.1047 13.6653 86.0357 12.7335 86.0357 11.6465V6.67739C86.0357 5.66804 85.1823 4.81396 84.1738 4.81396H79.2087ZM84.0186 12.7335H81.2257C80.6051 12.7335 80.0621 12.19 80.0621 11.5689V9.78311C80.0621 9.16197 80.6051 8.61847 81.2257 8.61847H85.1047V11.6465C85.1047 12.2677 84.6393 12.7335 84.0186 12.7335Z" fill="#008ACA"/>
<path d="M99.0691 1.4751V4.81374H95.1902C94.104 4.81374 93.1731 5.74545 93.1731 6.83245V11.724C93.1731 12.811 94.104 13.7427 95.1902 13.7427H97.983C99.0691 13.7427 100 12.811 100 11.724V1.4751H99.0691ZM97.983 12.7333H95.3453C94.7247 12.7333 94.1816 12.1898 94.1816 11.5687V6.9101C94.1816 6.28895 94.7247 5.74545 95.3453 5.74545H99.1467V11.6463C99.0691 12.2675 98.6037 12.7333 97.983 12.7333Z" fill="#008ACA"/>
<path d="M7.44763 13.6653H1.93949C0.853375 13.6653 0 12.8112 0 11.7242V6.75504C0 5.66804 0.853375 4.81396 1.93949 4.81396H7.44763C8.53375 4.81396 9.38712 5.66804 9.38712 6.75504V11.7242C9.38712 12.8112 8.53375 13.6653 7.44763 13.6653Z" fill="#E2001A"/>
<path d="M1.47413 4.27036C1.70686 2.79514 3.1033 1.6305 4.73247 1.6305C6.36164 1.6305 7.75807 2.79514 7.99081 4.27036C8.45628 4.348 8.92176 4.58093 9.30966 4.96914V4.50329C9.23208 2.01871 7.21501 0 4.73247 0C2.24992 0 0.155273 2.01871 0.155273 4.50329V4.96914C0.543171 4.65857 0.931069 4.348 1.47413 4.27036Z" fill="#E2001A"/>
</g>
<defs>
<clipPath id="clip0_11_838">
<rect width="100" height="17.0038" fill="white"/>
</clipPath>
</defs>
</svg>
