<svg width="216" height="60" viewBox="0 0 216 60" fill="none" xmlns="http://www.w3.org/2000/svg">
<mask id="mask0_185_370" style="mask-type:luminance" maskUnits="userSpaceOnUse" x="107" y="0" width="96" height="60">
<path d="M107.03 0H202.332V59.0968H107.03V0Z" fill="white"/>
</mask>
<g mask="url(#mask0_185_370)">
<path d="M159.931 5.62843C159.527 5.22641 159.123 5.22641 158.719 5.22641C151.45 5.22641 143.778 5.22641 136.509 5.22641C134.086 5.22641 131.663 6.03045 129.24 7.23651C124.798 10.0506 121.971 13.6688 120.356 18.4931C117.933 26.1314 115.51 33.7698 113.087 41.0061C110.664 48.2425 115.106 53.8707 122.375 53.4687C126.01 53.0667 130.048 53.4687 133.682 53.4687C134.894 53.4687 136.105 53.4687 137.317 53.0667C143.374 51.4586 147.008 47.0364 149.027 41.4081C150.643 36.9859 151.854 32.9657 153.066 28.5435C153.469 26.9355 154.277 25.3274 154.681 23.7193C153.873 23.3173 153.066 23.3173 152.662 23.3173C149.027 23.3173 145.393 23.3173 141.355 23.3173C140.143 23.3173 138.528 22.9153 137.317 23.7193C136.105 24.5233 136.509 26.1314 136.105 27.3375C135.297 30.1516 134.49 32.5637 133.682 35.3779C135.701 35.7799 137.72 35.3779 139.74 35.7799C139.336 37.79 138.528 39.398 138.124 41.0061C138.124 41.4081 137.72 42.2122 136.913 41.8102C133.278 41.8102 129.644 41.8102 125.606 41.8102C126.413 39.3981 127.221 36.9859 128.029 34.5738C129.644 29.3476 131.259 24.1213 132.875 18.4931C133.278 16.885 133.278 16.885 135.297 16.885C136.913 16.885 138.528 16.885 140.143 16.885C144.989 16.885 150.239 16.885 155.085 16.885C155.489 16.885 156.296 17.287 156.7 16.0809C157.508 12.8648 158.719 9.24661 159.931 5.62843ZM166.796 53.8707C169.622 53.8707 172.449 54.2728 174.872 53.8707C181.737 52.2627 186.583 48.2425 189.006 41.4081C191.429 34.1718 193.448 26.9355 195.871 19.6991C196.275 17.689 197.082 16.0809 197.082 14.0708C197.486 8.44257 192.64 5.22641 188.198 5.22641C184.16 5.22641 180.122 5.22641 176.084 5.22641C175.276 5.22641 174.468 5.22641 173.661 5.62843C166.796 7.63853 161.95 11.6587 159.527 18.4931C158.719 21.3072 157.508 24.1213 156.7 27.3375C155.085 32.5637 153.469 37.79 151.854 43.0162C149.835 49.8505 154.681 54.6748 160.334 54.6748C162.354 53.4687 164.777 53.8707 166.796 53.8707ZM116.722 13.2668C119.952 6.83449 124.798 2.8143 131.663 0.402182C132.471 0.000163019 133.278 0.402183 133.682 -0.401855H190.621C190.621 0.000163794 191.025 0.000165313 191.429 0.000165313C197.082 1.20622 200.313 4.42238 201.928 10.0506C202.332 11.2567 201.928 12.0607 202.736 13.2668C202.332 16.0809 201.928 18.493 201.121 21.3072C199.909 24.5233 199.101 27.7395 197.89 31.3577C196.275 36.1819 195.063 41.4081 193.044 46.2324C189.814 51.8606 185.371 55.8808 179.314 58.293C177.295 59.097 174.872 59.499 172.853 59.499C155.892 59.499 138.932 59.499 121.568 59.499C115.51 59.499 108.645 55.4788 107.838 47.8405C107.838 47.4384 107.434 47.0364 107.434 46.2324C107.434 43.0162 108.645 39.8001 109.453 36.5839C111.876 28.9456 113.895 20.9052 116.722 13.2668Z" fill="#0B0B0B"/>
</g>
<path d="M192.687 46.196C194.706 41.3718 195.917 36.1456 197.533 31.3213C198.744 28.1052 199.552 24.487 200.763 21.2709C201.571 18.8587 201.975 16.0446 202.379 13.2305C204.398 13.2305 206.013 13.2305 208.032 13.2305C210.455 13.2305 212.474 14.4365 214.089 16.4466C214.897 17.2507 214.897 18.4567 215.705 19.2608V24.487C214.493 26.4971 214.493 28.5072 213.686 30.5173C212.878 32.5274 212.474 34.9395 211.666 36.9496C210.051 42.9799 204.398 46.196 199.552 45.794C197.129 46.196 195.11 46.196 192.687 46.196Z" fill="#0B0B0B"/>
<path d="M84.4623 25.291H90.1158C90.5196 25.291 90.9235 25.291 91.3273 24.487C91.7311 22.8789 92.5388 21.2709 92.9426 19.6628C90.9235 19.2608 88.9044 19.6628 87.2891 19.6628C86.4814 19.6628 86.4814 20.0648 86.0776 20.4668C85.6738 21.6729 85.27 23.2809 84.4623 25.291ZM97.3846 38.5577C98.5961 38.5577 99.8076 38.5577 101.423 38.5577C102.23 38.5577 102.634 38.1557 103.038 37.3516C103.846 34.5375 104.653 32.1254 105.057 29.7133C105.865 26.8991 104.653 24.889 101.423 24.889C99.8076 24.889 98.1923 24.889 96.577 24.889C93.3464 24.889 91.3273 26.8991 90.1158 29.3112C88.9044 32.1254 88.5005 35.3415 87.2891 38.1557C88.5005 38.5577 89.712 38.1557 90.9235 38.5577C92.1349 38.5577 92.5388 38.1557 92.9426 36.9496C93.3464 34.9395 94.1541 32.9294 94.5579 30.9193C94.5579 30.5173 94.9617 29.7133 95.7693 29.7133C96.9808 29.7133 98.1923 29.7133 99.8076 29.7133C98.9999 32.9294 98.1923 35.7435 97.3846 38.5577ZM40.0418 18.8587C38.4265 18.8587 37.6189 18.8587 36.4074 18.8587C35.1959 18.8587 34.7921 19.2608 34.3883 20.4668C33.1768 24.889 31.5615 29.3112 30.3501 33.7334C29.9462 35.3415 29.1386 36.9496 29.1386 38.5577C33.9845 38.5577 38.4265 38.5577 42.8686 38.5577C43.6762 38.5577 44.08 38.1557 44.08 37.3516C44.4839 35.7435 45.2915 33.7335 45.6953 32.1254C46.9068 28.1052 47.7144 28.5072 42.8686 28.5072C42.0609 28.5072 41.6571 28.9092 41.2533 29.7133C40.8495 30.5173 40.4456 31.7234 40.4456 32.5274C40.4456 32.9294 40.0418 33.3314 39.638 33.3314C38.4265 33.3314 37.2151 33.3314 35.5998 32.9294C36.8112 28.5072 38.4265 24.085 40.0418 18.8587ZM71.1362 28.5072C71.9438 25.291 73.1553 22.0749 73.9629 18.8587C72.3476 18.8587 71.1362 18.8587 69.9247 18.8587C69.117 18.8587 68.7132 19.2608 68.7132 20.0648C67.9056 23.281 66.6941 26.0951 65.8865 29.3112C65.4826 30.9193 65.8865 31.7234 66.6941 32.9294C67.0979 33.7334 68.3094 33.7335 69.117 34.1355C69.117 35.7435 67.9056 36.9496 67.9056 38.9597C68.3094 38.9597 68.7132 38.9597 68.7132 38.9597C69.9247 38.9597 71.54 39.3617 72.7514 38.5577C73.5591 38.1557 73.5591 36.5476 73.9629 35.3415C74.3667 34.5375 74.7706 34.1355 75.5782 33.7334C78.405 32.9294 80.0203 31.3213 80.8279 28.9092C81.6356 26.8991 82.0394 24.889 82.847 22.8789C84.0585 18.8587 84.8661 19.2608 80.0203 19.2608C79.2126 19.2608 78.8088 19.6628 78.405 20.4668C78.0012 22.0749 77.1935 24.085 76.7897 25.6931C75.5782 28.9092 75.5782 28.9092 71.1362 28.5072C71.1362 28.9092 71.1362 28.9092 71.1362 28.5072ZM12.1781 38.5577C13.3895 38.5577 14.601 38.5577 15.8125 38.5577C16.6201 38.5577 17.0239 38.1557 17.0239 37.7536C17.4277 36.5476 17.4277 34.9395 18.2354 34.1355C19.4469 33.3314 20.6583 33.7334 22.2736 33.7334C26.3118 33.3314 28.7348 31.7234 29.9462 28.1052C30.3501 26.8991 30.7539 25.291 31.1577 24.085C31.9654 20.8688 30.3501 18.8587 27.1195 18.8587C24.6966 18.8587 21.8698 18.8587 19.4469 18.8587C18.2354 18.8587 17.8316 19.2608 17.4277 20.4668C15.8125 26.0951 14.1972 31.3213 12.1781 36.5476C12.1781 37.3516 11.7742 37.7536 12.1781 38.5577ZM45.6953 38.5577C46.9068 38.9597 48.5221 38.5577 49.7336 38.5577C50.5412 38.5577 50.945 38.1557 51.3489 37.3516C51.7527 36.5476 52.1565 35.3415 52.1565 34.5375C52.1565 34.1355 52.5603 33.7334 52.9641 33.7334C54.1756 33.7334 55.3871 33.3314 56.5985 33.7334C56.5985 35.3415 55.3871 36.5476 55.7909 38.1557C57.0024 38.1557 58.2138 38.1557 59.4253 38.1557C60.233 38.1557 60.6368 37.7536 61.0406 36.9496C62.2521 32.5274 63.8673 28.1052 65.0788 23.2809C65.8865 20.4668 64.2712 18.4567 61.4444 18.4567C59.8291 18.4567 58.2138 18.4567 57.0024 18.4567C53.7718 18.4567 51.7527 20.0648 50.5412 22.8789C48.5221 28.5072 47.3106 33.3314 45.6953 38.5577ZM116.768 13.2305C113.941 20.8688 111.922 28.9092 109.095 36.5476C107.884 39.7637 107.076 42.5779 107.076 46.196C89.3082 46.196 71.1362 46.196 53.368 46.196C38.8303 46.196 24.2927 46.196 9.75511 46.196C8.94747 46.196 7.736 46.196 6.92836 46.196C1.67867 44.99 -0.34045 40.5678 0.467195 36.1456C1.67866 31.3213 2.89013 26.8991 4.1016 22.0749C5.71689 16.4466 11.3704 13.2305 15.8125 13.2305C49.3297 13.2305 82.847 13.2305 116.768 13.2305Z" fill="#0B0B0B"/>
<path d="M183.803 17.251C181.38 24.4873 179.361 31.3217 177.342 38.156C176.938 39.362 176.938 40.9701 176.13 41.7742C174.919 42.5782 173.707 42.1762 172.092 42.1762C169.669 42.1762 167.65 42.1762 164.823 42.1762C166.034 38.558 167.246 34.9398 168.054 31.3217C169.265 27.3015 170.477 23.2813 171.688 19.2611C172.092 17.653 172.092 17.653 174.111 17.653C177.341 17.251 180.572 17.251 183.803 17.251Z" fill="#0B0B0B"/>
<path d="M53.7717 28.9094C53.7717 28.5074 53.7717 28.1054 53.7717 28.1054C54.5794 24.0852 54.9832 23.6832 59.8291 24.4872C59.8291 24.8892 59.8291 24.8892 59.4253 25.2913C58.2138 28.9094 58.2138 28.9094 53.7717 28.9094Z" fill="#0B0B0B"/>
<path d="M20.2545 28.9092C19.8507 28.1052 20.2545 27.7032 20.2545 27.7032C21.466 23.683 21.466 23.683 25.9081 24.085C25.5042 25.2911 25.1004 26.4971 24.6966 27.7032C24.6966 28.5072 24.2928 28.9092 23.4851 28.9092C22.2737 28.9092 21.466 28.9092 20.2545 28.9092Z" fill="#0B0B0B"/>
</svg>
