<svg width="148" height="148" viewBox="0 0 148 148" fill="none" xmlns="http://www.w3.org/2000/svg">
<g clip-path="url(#clip0_11_921)">
<path d="M70.0254 0H78.1191L82.3828 0.433594L85.707 0.867188L88.5254 1.37305L91.5605 2.02344L93.5117 2.5293L96.4746 3.39648L99.8711 4.55273L102.256 5.49219L104.424 6.43164L106.592 7.44336L108.615 8.45508L110.277 9.39453L111.578 10.1172L112.879 10.9121L114.686 12.0684L115.77 12.791L116.926 13.5859L118.949 15.1035L120.973 16.6934L121.984 17.5605L123.068 18.5L123.791 19.1504L124.369 19.6562L125.453 20.668L127.477 22.6914L127.982 23.2695L128.633 23.9199L129.139 24.498L129.789 25.2207L130.439 26.0156L131.379 27.0996L132.102 28.0391L133.113 29.3398L134.125 30.7129L135.137 32.1582L135.859 33.2422L136.654 34.4707L137.811 36.3496L138.822 38.1562L139.762 39.8906L141.062 42.4922L142.219 45.0938L143.303 47.8398L144.17 50.2969L144.893 52.5371L145.615 55.1387L146.266 57.8125L146.916 61.1367L147.35 64.0273L147.711 67.1348L148 70.3145V77.252L147.639 81.4434L147.277 84.5508L146.771 87.6582L146.121 90.8379L145.326 93.9453L144.676 96.1133L143.809 98.7148L143.158 100.521L142.291 102.689L141.279 105.002L140.123 107.387L139.4 108.832L138.461 110.494L137.594 112.012L136.51 113.746L135.426 115.408L134.486 116.781L133.836 117.648L132.824 119.021L131.957 120.105L131.162 121.117L130.295 122.129L129.645 122.852L128.994 123.646L128.344 124.297L127.838 124.875L127.115 125.598L126.609 126.176L125.887 126.898L125.309 127.404L124.441 128.271L123.863 128.777L122.996 129.572L122.201 130.223L121.406 130.945L120.395 131.74L119.311 132.607L117.865 133.691L115.408 135.426L112.229 137.449L110.35 138.533L108.615 139.473L106.23 140.701L103.846 141.785L101.822 142.652L98.9316 143.736L96.3301 144.604L93.873 145.326L90.4043 146.193L86.791 146.916L83.25 147.422L79.4199 147.855L77.6133 148H70.3867L66.6289 147.639L63.5215 147.277L60.4141 146.771L57.5234 146.193L54.3438 145.398L51.3809 144.531L48.2012 143.447L45.3105 142.291L42.998 141.279L40.4688 140.051L38.373 138.967L36.6387 137.955L35.0488 137.016L33.8203 136.221L32.375 135.281L31.3633 134.559L30.1348 133.691L29.2676 133.041L27.2441 131.451L26.3047 130.656L25.293 129.789L24.498 129.066L23.9199 128.561L21.4629 126.248L20.5234 125.309L20.0176 124.73L19.5117 124.225L19.0059 123.646L18.1387 122.635L17.4883 121.912L16.8379 121.117L15.8984 119.961L14.0195 117.504L13.1523 116.275L11.8516 114.324L10.9844 112.951L10.4062 112.012L9.68359 110.783L8.96094 109.482L7.87695 107.459L6.79297 105.219L5.92578 103.268L4.8418 100.594L3.83008 97.7754L2.89062 94.8125L2.24023 92.3555L1.73438 90.2598L1.15625 87.4414L0.650391 84.1895L0.216797 80.4316L0 77.9746V69.8809L0.505859 64.8223L1.01172 61.3535L1.80664 57.3789L2.45703 54.7773L3.03516 52.6816L3.75781 50.4414L4.48047 48.3457L5.63672 45.3828L6.86523 42.6367L8.09375 40.1074L8.81641 38.7344L9.75586 37.0723L10.5508 35.6992L11.5625 34.1094L12.7188 32.3027L13.6582 31.002L14.3809 29.9902L15.3203 28.7617L16.7656 26.9551L17.5605 26.0156L18.0664 25.4375L18.9336 24.4258L19.584 23.7031L20.3789 22.8359L23.2695 19.9453L23.8477 19.4395L24.7148 18.6445L25.5098 17.9941L26.3047 17.2715L27.0996 16.6211L28.1836 15.7539L30.3516 14.0918L31.7969 13.0801L33.0977 12.2129L34.9043 11.0566L36.4219 10.1172L38.2285 9.10547L39.8184 8.23828L42.1309 7.08203L44.5156 5.99805L47.5508 4.76953L50.5859 3.68555L53.9102 2.67383L57.3789 1.80664L60.6309 1.15625L63.8105 0.650391L66.8457 0.289062L69.0137 0.0722656L70.0254 0Z" fill="#F7F7F7"/>
<path d="M70.0254 0H78.1191L82.3828 0.433594L85.707 0.867188L88.5254 1.37305L91.5605 2.02344L93.5117 2.5293L96.4746 3.39648L99.8711 4.55273L102.256 5.49219L104.424 6.43164L106.592 7.44336L108.615 8.45508L110.277 9.39453L111.578 10.1172L112.879 10.9121L114.686 12.0684L115.77 12.791L116.926 13.5859L118.949 15.1035L120.973 16.6934L121.984 17.5605L123.068 18.5L123.791 19.1504L124.369 19.6562L125.453 20.668L127.477 22.6914L127.982 23.2695L128.633 23.9199L129.139 24.498L129.789 25.2207L130.439 26.0156L131.379 27.0996L132.102 28.0391L133.113 29.3398L134.125 30.7129L135.137 32.1582L135.859 33.2422L136.654 34.4707L137.811 36.3496L138.822 38.1562L139.762 39.8906L141.062 42.4922L142.219 45.0938L143.303 47.8398L144.17 50.2969L144.893 52.5371L145.615 55.1387L146.266 57.8125L146.916 61.1367L147.35 64.0273L147.711 67.1348L148 70.3145V77.252L147.639 81.4434L147.277 84.5508L146.771 87.6582L146.121 90.8379L145.326 93.9453L144.676 96.1133L143.809 98.7148L143.158 100.521L142.291 102.689L141.279 105.002L140.123 107.387L139.4 108.832L138.461 110.494L137.594 112.012L136.51 113.746L135.426 115.408L134.486 116.781L133.836 117.648L132.824 119.021L131.957 120.105L131.162 121.117L130.295 122.129L129.645 122.852L128.994 123.646L128.344 124.297L127.838 124.875L127.115 125.598L126.609 126.176L125.887 126.898L125.309 127.404L124.441 128.271L123.863 128.777L122.996 129.572L122.201 130.223L121.406 130.945L120.395 131.74L119.311 132.607L117.865 133.691L115.408 135.426L112.229 137.449L110.35 138.533L108.615 139.473L106.23 140.701L103.846 141.785L101.822 142.652L98.9316 143.736L96.3301 144.604L93.873 145.326L90.4043 146.193L86.791 146.916L83.25 147.422L79.4199 147.855L77.6133 148H70.3867L66.6289 147.639L63.5215 147.277L60.4141 146.771L57.5234 146.193L54.3438 145.398L51.3809 144.531L48.2012 143.447L45.3105 142.291L42.998 141.279L40.4688 140.051L38.373 138.967L36.6387 137.955L35.0488 137.016L33.8203 136.221L32.375 135.281L31.3633 134.559L30.1348 133.691L29.2676 133.041L27.2441 131.451L26.3047 130.656L25.293 129.789L24.498 129.066L23.9199 128.561L21.4629 126.248L20.5234 125.309L20.0176 124.73L19.5117 124.225L19.0059 123.646L18.1387 122.635L17.4883 121.912L16.8379 121.117L15.8984 119.961L14.0195 117.504L13.1523 116.275L11.8516 114.324L10.9844 112.951L10.4062 112.012L9.68359 110.783L8.96094 109.482L7.87695 107.459L6.79297 105.219L5.92578 103.268L4.8418 100.594L3.83008 97.7754L2.89062 94.8125L2.24023 92.3555L1.73438 90.2598L1.15625 87.4414L0.650391 84.1895L0.216797 80.4316L0 77.9746V69.8809L0.505859 64.8223L1.01172 61.3535L1.80664 57.3789L2.45703 54.7773L3.03516 52.6816L3.75781 50.4414L4.48047 48.3457L5.63672 45.3828L6.86523 42.6367L8.09375 40.1074L8.81641 38.7344L9.75586 37.0723L10.5508 35.6992L11.5625 34.1094L12.7188 32.3027L13.6582 31.002L14.3809 29.9902L15.3203 28.7617L16.7656 26.9551L17.5605 26.0156L18.0664 25.4375L18.9336 24.4258L19.584 23.7031L20.3789 22.8359L23.2695 19.9453L23.8477 19.4395L24.7148 18.6445L25.5098 17.9941L26.3047 17.2715L27.0996 16.6211L28.1836 15.7539L30.3516 14.0918L31.7969 13.0801L33.0977 12.2129L34.9043 11.0566L36.4219 10.1172L38.2285 9.10547L39.8184 8.23828L42.1309 7.08203L44.5156 5.99805L47.5508 4.76953L50.5859 3.68555L53.9102 2.67383L57.3789 1.80664L60.6309 1.15625L63.8105 0.650391L66.8457 0.289062L69.0137 0.0722656L70.0254 0ZM70.9648 17.416L68.0742 17.6328L64.8223 18.0664L62.4375 18.5L59.4023 19.2227L56.873 19.9453L53.9102 20.957L51.5254 21.8965L49.791 22.6914L47.8398 23.6309L46.25 24.498L44.1543 25.7266L41.7695 27.3164L40.541 28.1836L38.6621 29.6289L37.9395 30.207L37.2168 30.8574L36.4941 31.4355L34.6152 33.1699L32.4473 35.3379L31.9414 35.916L31.1465 36.7832L30.5684 37.5059L29.918 38.2285L29.2676 39.0957L28.5449 40.0352L27.6055 41.3359L26.3047 43.2871L25.582 44.4434L24.8594 45.6719L23.9199 47.334L22.4746 50.2246L21.6074 52.248L20.8125 54.2715L19.873 57.0176L19.0059 60.125L18.3555 63.0156L17.8496 65.9785L17.5605 68.4355L17.416 70.6035L17.3438 72.4102V75.373L17.4883 78.4082L17.7051 80.8652L18.0664 83.5391L18.6445 86.5742L19.3672 89.3926L20.1621 91.9219L20.957 94.1621L21.9688 96.6191L22.9805 98.7871L23.8477 100.521L24.7871 102.184L25.9434 104.135L27.2441 106.086L28.1113 107.314L28.9785 108.471L29.7012 109.41L30.4961 110.35L31.1465 111.145L32.0137 112.084L32.5195 112.662L33.5312 113.746L35.0488 115.264L35.627 115.77L36.4941 116.564L37.2891 117.215L38.084 117.938L39.0957 118.732L40.252 119.6L41.5527 120.539L43.5039 121.84L45.0215 122.779L46.6836 123.719L48.6348 124.73L50.7305 125.742L53.5488 126.898L56.0059 127.766L58.3906 128.488L60.5586 129.066L63.3047 129.645L66.4844 130.15L69.0859 130.439L71.0371 130.584L72.5547 130.656H75.1562L79.0586 130.439L81.8047 130.15L84.2617 129.789L87.0078 129.211L89.3203 128.633L91.8496 127.838L93.9453 127.115L96.2578 126.176L97.4141 125.67L98.498 125.164L100.883 123.936L102.545 122.996L104.496 121.84L105.58 121.117L106.953 120.178L108.326 119.166L109.338 118.371L110.277 117.576L111.072 116.926L111.795 116.275L112.373 115.77L112.879 115.264L113.457 114.758L115.408 112.807L115.914 112.229L116.564 111.506L117.215 110.711L117.793 110.061L118.588 109.049L119.6 107.748L120.467 106.52L122.057 104.135L122.924 102.689L123.936 100.883L125.02 98.7871L126.104 96.4746L126.971 94.3066L127.621 92.5L128.344 90.2598L128.922 88.0918L129.428 85.9238L129.861 83.5391L130.223 81.0098L130.439 78.8418L130.584 76.3848V71.832L130.439 69.375L130.15 66.5566L129.717 63.7383L129.139 60.9199L128.561 58.6074L127.766 56.0059L127.043 53.9102L126.248 51.8867L125.381 49.9355L124.225 47.5508L123.43 46.1777L122.996 45.3828L122.057 43.793L120.756 41.8418L119.744 40.3965L118.805 39.168L118.01 38.1562L117.07 37.0723L116.564 36.4941L115.914 35.7715L115.047 34.832L112.59 32.375L112.012 31.8691L111 31.002L110.277 30.3516L109.338 29.6289L108.182 28.6895L106.953 27.8223L105.58 26.8828L104.496 26.1602L102.979 25.2207L101.605 24.4258L99.7266 23.4141L97.4863 22.3301L94.7402 21.1738L92.1387 20.2344L89.8262 19.5117L87.5859 18.9336L85.2734 18.4277L82.7441 17.9941L79.7812 17.6328L76.6016 17.416H70.9648Z" fill="#EF6D3A" fill-opacity="0.8"/>
<path d="M70.0254 0H78.1191L82.3828 0.433594L85.707 0.867188L88.5254 1.37305L91.5605 2.02344L93.5117 2.5293L96.4746 3.39648L99.8711 4.55273L102.256 5.49219L104.424 6.43164L106.592 7.44336L108.615 8.45508L110.277 9.39453L111.578 10.1172L112.879 10.9121L114.686 12.0684L115.77 12.791L116.926 13.5859L118.949 15.1035L120.973 16.6934L121.984 17.5605L123.068 18.5L123.791 19.1504L124.369 19.6562L125.453 20.668L127.477 22.6914L127.982 23.2695L128.633 23.9199L129.139 24.498L129.789 25.2207L130.439 26.0156L131.379 27.0996L132.102 28.0391L133.113 29.3398L134.125 30.7129L135.137 32.1582L135.859 33.2422L136.654 34.4707L137.811 36.3496L138.822 38.1562L139.762 39.8906L141.062 42.4922L142.219 45.0938L143.303 47.8398L144.17 50.2969L144.893 52.5371L145.615 55.1387L146.266 57.8125L146.916 61.1367L147.35 64.0273L147.711 67.1348L148 70.3145V77.252L147.639 81.4434L147.277 84.5508L146.771 87.6582L146.121 90.8379L145.326 93.9453L144.676 96.1133L143.809 98.7148L143.158 100.521L142.291 102.689L141.279 105.002L140.123 107.387L139.4 108.832L138.461 110.494L137.594 112.012L136.51 113.746L135.426 115.408L134.486 116.781L133.836 117.648L132.824 119.021L131.957 120.105L131.162 121.117L130.295 122.129L129.645 122.852L128.994 123.646L128.344 124.297L127.838 124.875L127.115 125.598L126.609 126.176L125.887 126.898L125.309 127.404L124.441 128.271L123.863 128.777L122.996 129.572L122.201 130.223L121.406 130.945L120.395 131.74L119.311 132.607L117.865 133.691L115.408 135.426L112.229 137.449L110.35 138.533L108.615 139.473L106.23 140.701L103.846 141.785L101.822 142.652L98.9316 143.736L96.3301 144.604L93.873 145.326L90.4043 146.193L86.791 146.916L83.25 147.422L79.4199 147.855L77.6133 148H70.3867L66.6289 147.639L63.5215 147.277L60.4141 146.771L57.5234 146.193L54.3438 145.398L51.3809 144.531L48.2012 143.447L45.3105 142.291L42.998 141.279L40.4688 140.051L38.373 138.967L36.6387 137.955L35.0488 137.016L33.8203 136.221L32.375 135.281L31.3633 134.559L30.1348 133.691L29.2676 133.041L27.2441 131.451L26.3047 130.656L25.293 129.789L24.498 129.066L23.9199 128.561L21.4629 126.248L20.5234 125.309L20.0176 124.73L19.5117 124.225L19.0059 123.646L18.1387 122.635L17.4883 121.912L16.8379 121.117L15.8984 119.961L14.0195 117.504L13.1523 116.275L11.8516 114.324L10.9844 112.951L10.4062 112.012L9.68359 110.783L8.96094 109.482L7.87695 107.459L6.79297 105.219L5.92578 103.268L4.8418 100.594L3.83008 97.7754L2.89062 94.8125L2.24023 92.3555L1.73438 90.2598L1.15625 87.4414L0.650391 84.1895L0.216797 80.4316L0 77.9746V69.8809L0.505859 64.8223L1.01172 61.3535L1.80664 57.3789L2.45703 54.7773L3.03516 52.6816L3.75781 50.4414L4.48047 48.3457L5.63672 45.3828L6.86523 42.6367L8.09375 40.1074L8.81641 38.7344L9.75586 37.0723L10.5508 35.6992L11.5625 34.1094L12.7188 32.3027L13.6582 31.002L14.3809 29.9902L15.3203 28.7617L16.7656 26.9551L17.5605 26.0156L18.0664 25.4375L18.9336 24.4258L19.584 23.7031L20.3789 22.8359L23.2695 19.9453L23.8477 19.4395L24.7148 18.6445L25.5098 17.9941L26.3047 17.2715L27.0996 16.6211L28.1836 15.7539L30.3516 14.0918L31.7969 13.0801L33.0977 12.2129L34.9043 11.0566L36.4219 10.1172L38.2285 9.10547L39.8184 8.23828L42.1309 7.08203L44.5156 5.99805L47.5508 4.76953L50.5859 3.68555L53.9102 2.67383L57.3789 1.80664L60.6309 1.15625L63.8105 0.650391L66.8457 0.289062L69.0137 0.0722656L70.0254 0ZM72.0488 5.78125L68.9414 5.92578L65.4004 6.28711L62.4375 6.7207L59.4746 7.29883L56.2227 8.09375L53.2598 8.96094L50.2246 9.97266L47.334 11.1289L45.3828 11.9961L43.2871 13.0078L41.8418 13.7305L40.3965 14.5254L38.4453 15.6816L37.2891 16.4043L35.3379 17.7051L33.3145 19.1504L32.0859 20.0898L31.0742 20.8848L30.0625 21.752L29.2676 22.4023L28.4004 23.1973L27.8223 23.7031L27.0996 24.3535L26.2324 25.2207L25.6543 25.7266L24.498 26.9551L23.9199 27.5332L23.4141 28.1113L22.6191 28.9785L22.1133 29.5566L21.3184 30.4961L20.3789 31.7246L19.4395 32.8809L18.5 34.2539L17.9941 34.9043L17.3438 35.8438L16.1875 37.6504L15.3203 39.0234L14.5977 40.3242L13.875 41.5527L13.2969 42.709L12.7188 43.793L11.707 46.0332L11.2012 47.1172L10.1172 49.8633L9.39453 51.8867L8.52734 54.6328L7.73242 57.5957L6.9375 61.209L6.28711 65.3281L5.92578 68.8691L5.78125 72.0488V75.5176L5.92578 78.7695L6.14258 81.3711L6.57617 84.623L6.9375 86.791L7.51562 89.5371L8.31055 92.6445L9.32227 95.8965L9.97266 97.7754L10.334 98.6426L11.1289 100.666L12.2852 103.268L12.8633 104.424L13.5137 105.652L14.0918 106.809L14.959 108.326L15.6816 109.555L16.6934 111.145L17.416 112.229L18.2109 113.385L18.9336 114.396L19.584 115.264L21.1738 117.287L21.9688 118.227L22.9082 119.311L24.6426 121.189L27.3164 123.863L27.8945 124.369L28.4004 124.875L29.1953 125.525L30.0625 126.32L31.8691 127.766L32.8809 128.561L34.1816 129.5L35.1934 130.223L36.2773 130.945L37.5059 131.74L38.8066 132.535L40.6855 133.619L42.5645 134.631L44.7324 135.715L46.8281 136.654L48.7793 137.449L50.7305 138.172L53.2598 139.039L54.9219 139.545L57.4512 140.195L60.3418 140.846L62.7266 141.279L65.6172 141.713L68.3633 142.002L70.748 142.146H76.9629L79.4199 142.002L82.3828 141.713L85.4902 141.279L88.5254 140.701L91.5605 139.979L94.0898 139.256L97.1973 138.244L100.016 137.16L102.328 136.148L104.352 135.209L107.098 133.764L109.916 132.102L111.289 131.234L113.096 130.006L114.396 129.066L115.264 128.416L116.564 127.404L118.154 126.104L118.949 125.381L119.744 124.73L120.539 123.936L121.117 123.43L123.719 120.828L124.225 120.25L125.164 119.238L125.814 118.443L126.609 117.576L127.477 116.42L128.416 115.264L129.355 113.963L130.512 112.301L131.596 110.639L132.463 109.266L133.475 107.459L134.125 106.303L135.209 104.207L136.221 102.111L136.871 100.594L137.449 99.1484L138.244 97.0527L139.111 94.4512L139.689 92.5L140.268 90.332L140.846 87.7305L141.207 85.7793L141.641 82.9609L141.93 80.3594L142.146 77.1074V71.0371L142.002 68.5078L141.785 66.1953L141.424 63.5215L140.918 60.6309L140.484 58.6074L139.689 55.4277L138.822 52.6094L137.883 49.8633L137.016 47.6953L136.438 46.3223L135.932 45.2383L134.703 42.709L133.98 41.3359L133.041 39.6738L132.102 38.084L131.596 37.3613L131.234 36.7109L130.15 35.1211L129.283 33.8926L128.633 33.0254L127.91 32.0859L127.621 31.6523H127.477L127.332 31.3633L126.609 30.4238L125.814 29.5566L125.381 28.9785H125.236L125.092 28.6895L124.225 27.75L123.719 27.1719L120.973 24.4258L120.395 23.9199L119.961 23.4863H119.816V23.3418L119.021 22.6914L118.299 22.041L117.504 21.3906L116.564 20.5957L115.336 19.6562L114.396 18.9336L113.168 18.0664L111.723 17.0547L109.555 15.6816L107.459 14.4531L105.725 13.5137L104.207 12.7188L102.184 11.7793L100.016 10.8398L97.7754 9.97266L94.1621 8.74414L91.6328 8.02148L89.248 7.44336L86.4297 6.86523L83.7559 6.43164L80.0703 5.99805L77.9746 5.85352L76.3125 5.78125H72.0488Z" fill="#FF4800"/>
<path d="M73.2051 65.3281H74.5781L76.0234 65.5449L77.3242 65.9785L78.6973 66.7012L79.4922 67.2793L80.3594 68.0742L81.082 69.0137L81.8047 70.2422L82.2383 71.3262L82.5273 72.4102L82.6719 73.4941V74.3613L82.5273 75.5898L82.0938 77.1074L81.5156 78.3359L80.8652 79.2754L80.0703 80.2148L79.2031 80.9375L78.9141 81.2266L79.2754 82.3828L81.4434 90.5488L82.3828 94.0176L82.8164 95.6074L82.8887 96.041V96.8359L82.5273 97.7754L81.877 98.498L81.2988 98.9316L80.5762 99.2207L79.7812 99.293L79.0586 99.1484L78.3359 98.7871L77.7578 98.2812L77.252 97.4141L76.9629 96.6191L76.8906 97.5586L76.8184 106.375L76.6016 107.098L76.0957 107.748L75.5176 108.254L74.9395 108.543L74.5059 108.688H73.4941L72.6992 108.398L71.9766 107.893L71.3984 107.098L71.1816 106.447L71.1094 105.652V82.2383L69.9531 81.6602L69.0137 81.082L68.3633 80.5762L67.207 79.4199L66.4121 78.1914L65.9062 77.1074L65.5449 76.0234L65.3281 74.7227V73.4941L65.5449 72.0488L65.9062 70.8926L66.5566 69.5195L67.2793 68.5078L67.9297 67.7852L68.6523 67.1348L69.7363 66.4121L70.8203 65.9062L71.9766 65.5449L73.2051 65.3281Z" fill="#FF4800"/>
<path d="M78.7695 81.2266H78.9141L79.2754 82.3828L81.4434 90.5488L82.3828 94.0176L82.8164 95.6074L82.8887 96.041V96.8359L82.5273 97.7754L81.877 98.498L81.2988 98.9316L80.5762 99.2207L79.7812 99.293L79.0586 99.1484L78.3359 98.7871L77.7578 98.2812L77.252 97.4141L76.9629 96.6191L76.8906 97.5586L76.8184 106.375L76.6016 107.098L76.0957 107.748L75.5176 108.254L74.9395 108.543L74.5059 108.688H73.4941L72.6992 108.398L71.9766 107.893L71.3984 107.098L71.1816 106.447L71.1094 105.652V82.2383L71.6875 82.3105L72.4824 82.5273L73.3496 82.6719L74.7949 82.5996L76.0234 82.3828L77.1074 82.0215L78.2637 81.5156L78.7695 81.2266Z" fill="#E1523E"/>
<path d="M73.1328 68.2188H74.7949L75.9512 68.5078L77.1074 69.0859L77.9023 69.6641L78.5527 70.3145L79.2031 71.3984L79.6367 72.4824L79.7812 73.2773V74.6504L79.5645 75.7344L79.2031 76.6016L78.5527 77.6133L77.9746 78.2637L77.1074 78.9141L76.0957 79.4199L75.1562 79.709L74.7227 79.7812H73.4219L72.3379 79.5645L71.3984 79.2031L70.5312 78.6973L69.6641 77.9023L69.0137 77.0352L68.5078 75.9512L68.2188 74.7949L68.1465 73.6387L68.3633 72.4102L68.7246 71.4707L69.2305 70.6035L69.8809 69.8809L70.5312 69.3027L71.4707 68.7246L72.4824 68.3633L73.1328 68.2188Z" fill="#FCFCFD"/>
<path d="M78.7695 81.2266H78.9141L79.2754 82.3828L81.4434 90.5488L82.3828 94.0176L82.8164 95.6074L82.8887 96.041V96.8359L82.5273 97.7754L81.877 98.498L81.2988 98.9316L80.5762 99.2207L79.7812 99.293L79.0586 99.1484L78.3359 98.7871L77.7578 98.2812L77.252 97.4141L76.8184 95.8965L75.8789 92.4277L75.3008 90.2598L74.6504 87.8027L74.2891 86.502L73.7832 84.623L73.2773 82.8164L73.3496 82.6719L74.7949 82.5996L76.0234 82.3828L77.1074 82.0215L78.2637 81.5156L78.7695 81.2266Z" fill="#BC3E30"/>
<path d="M117.359 45.8164H118.154L119.094 46.1055L119.816 46.6113L120.322 47.334L120.611 47.9844L120.684 48.2734V49.2129L120.322 50.0801L119.889 50.6582L119.311 51.1641L118.227 51.8145L116.203 52.9707L115.047 53.5488L114.324 53.7656H113.746L112.807 53.4766L112.156 52.9707L111.65 52.4648L111.289 51.7422L111.145 51.0918L111.217 50.2246L111.506 49.502L111.795 49.0684L112.301 48.5625L113.602 47.7676L115.336 46.7559L116.854 45.9609L117.359 45.8164Z" fill="#FF4800"/>
<path d="M120.033 71.1094H124.803L125.67 71.3262L126.32 71.6875L126.826 72.1934L127.26 72.916L127.477 73.7109L127.404 74.6504L127.115 75.373L126.537 76.0957L125.814 76.6016L125.164 76.8184L124.658 76.8906H120.105L119.238 76.6738L118.588 76.3125L118.154 75.9512L117.648 75.2285L117.359 74.3613V73.6387L117.648 72.6992L118.082 72.0488L118.805 71.4707L119.527 71.1816L120.033 71.1094Z" fill="#FF4800"/>
<path d="M23.1973 71.1094H27.8945L28.6895 71.2539L29.4844 71.6875L30.1348 72.4102L30.4961 73.1328L30.6406 73.7109V74.2891L30.3516 75.2285L29.7734 76.0234L28.9785 76.6016L28.3281 76.8184L27.75 76.8906H23.1973L22.4023 76.6738L21.9688 76.457L21.3184 75.9512L20.8125 75.2285L20.5957 74.6504L20.5234 74.2891V73.7109L20.7402 72.8438L21.2461 72.0488L21.9688 71.4707L22.6914 71.1816L23.1973 71.1094Z" fill="#FF4800"/>
<path d="M33.5312 94.2344H34.2539L35.1934 94.5234L35.8438 94.957L36.3496 95.5352L36.7109 96.2578L36.7832 96.5469V97.7031L36.4941 98.4258L36.2051 98.8594L35.627 99.4375L34.6152 100.088L32.7363 101.172L31.5801 101.822L30.7852 102.111L30.4238 102.184H29.918L29.123 101.967L28.4727 101.605L27.8945 101.027L27.4609 100.232L27.3164 99.7266V98.7871L27.6055 97.9922L28.0391 97.3418L28.7617 96.7637L32.0137 94.8848L33.0254 94.3789L33.5312 94.2344Z" fill="#FF4800"/>
<path d="M50.5859 111.145L51.5254 111.217L52.3926 111.578L53.043 112.156L53.5488 112.951L53.7656 113.746L53.6934 114.686L53.332 115.553L52.3203 117.359L51.3086 119.094L50.8027 119.744L50.2246 120.25L49.6465 120.539L49.1406 120.684H48.3457L47.4062 120.395L46.7559 119.889L46.25 119.311L45.8887 118.516L45.8164 118.154V117.504L46.1055 116.564L46.9727 114.975L47.6953 113.746L48.3457 112.662L48.8516 112.012L49.3574 111.578L49.9355 111.289L50.5859 111.145Z" fill="#FF4800"/>
<path d="M29.7734 45.8164H30.5684L31.5801 46.1777L33.0254 46.9727L34.7598 47.9844L35.5547 48.4902L36.2051 49.0684L36.7109 50.0078L36.7832 50.2969V51.4531L36.4941 52.1758L35.916 52.9707L35.0488 53.5488L34.2539 53.7656H33.6758L32.7363 53.4766L31.1465 52.6094L29.4121 51.5977L28.6172 51.0918L27.9668 50.5137L27.5332 49.8633L27.3164 49.1406V48.2734L27.5332 47.5508L27.9668 46.8281L28.5449 46.3223L29.2676 45.9609L29.7734 45.8164Z" fill="#FF4800"/>
<path d="M96.8359 111.145L97.7754 111.217L98.498 111.506L99.1484 112.012L99.7266 112.807L100.449 114.035L101.605 116.059L102.111 117.143L102.184 117.504V118.227L101.895 119.021L101.461 119.672L100.955 120.178L100.232 120.539L99.6543 120.684H98.9316L97.9922 120.395L97.3418 119.889L96.8359 119.311L96.1855 118.227L95.0293 116.203L94.4512 115.119L94.2344 114.324V113.746L94.4512 112.879L94.957 112.156L95.4629 111.65L96.1855 111.289L96.8359 111.145Z" fill="#FF4800"/>
<path d="M113.674 94.2344H114.396L115.264 94.5234L116.781 95.3184L118.371 96.2578L119.455 96.9082L120.105 97.5586L120.539 98.3535L120.684 98.8594V99.7988L120.395 100.594L119.889 101.244L119.311 101.75L118.443 102.111L118.082 102.184H117.504L116.564 101.895L114.613 100.811L113.385 100.088L112.59 99.582L111.867 98.9316L111.434 98.3535L111.217 97.7754V96.4746L111.578 95.6074L112.229 94.8848L112.951 94.4512L113.674 94.2344Z" fill="#FF4800"/>
<path d="M98.7871 27.3164H99.7266L100.594 27.6055L101.244 28.0391L101.75 28.6895L102.111 29.4844L102.184 29.8457V30.5684L101.895 31.3633L101.389 32.375L100.377 34.1094L99.6543 35.3379L99.0762 36.0605L98.4258 36.4941L97.7031 36.7832H96.6191L95.9688 36.5664L95.3906 36.2051L95.0293 35.8438L94.5957 35.3379L94.3066 34.6152L94.2344 34.2539V33.6758L94.5234 32.7363L95.2461 31.3633L96.2578 29.6289L96.8359 28.6895L97.3418 28.0391L98.0645 27.5332L98.7871 27.3164Z" fill="#FF4800"/>
<path d="M73.5664 20.5234H74.3613L75.3008 20.8125L75.9512 21.3184L76.457 21.9688L76.7461 22.5469L76.8184 22.8359L76.8906 27.5332L76.8184 28.4004L76.5293 29.123L76.0234 29.7734L75.2285 30.3516L74.3613 30.6406H73.6387L72.916 30.4238L72.1934 29.9902L71.6875 29.4844L71.2539 28.6172L71.1094 27.9668V23.4141L71.2539 22.4746L71.6152 21.752L72.0488 21.2461L72.8438 20.7402L73.5664 20.5234Z" fill="#FF4800"/>
<path d="M73.5664 117.359H74.3613L75.3008 117.648L75.9512 118.154L76.457 118.805L76.7461 119.455L76.8184 119.672L76.8906 124.08L76.8184 125.236L76.5293 125.959L76.0234 126.609L75.373 127.115L74.7227 127.404L74.3613 127.477H73.6387L72.916 127.26L72.1934 126.826L71.6875 126.32L71.2539 125.453L71.1094 124.73V120.25L71.2539 119.311L71.6152 118.588L72.0488 118.082L72.8438 117.576L73.5664 117.359Z" fill="#FF4800"/>
<path d="M48.2734 27.3164H49.1406L50.0078 27.6055L50.5859 28.0391L51.1641 28.6895L51.8867 29.918L53.043 31.9414L53.6211 33.0977L53.7656 33.6758L53.6934 34.6152L53.4043 35.2656L52.8262 36.0605L52.1035 36.5664L51.4531 36.7832H50.3691L49.7188 36.5664L49.0684 36.1328L48.418 35.4824L47.334 33.6035L46.3945 31.9414L45.9609 31.0742L45.8164 30.4961V29.7734L46.0332 29.0508L46.4668 28.3281L47.1172 27.75L47.9121 27.3887L48.2734 27.3164Z" fill="#FF4800"/>
</g>
<defs>
<clipPath id="clip0_11_921">
<rect width="148" height="148" fill="white"/>
</clipPath>
</defs>
</svg>
