<svg width="148" height="148" viewBox="0 0 148 148" fill="none" xmlns="http://www.w3.org/2000/svg">
<g clip-path="url(#clip0_11_917)">
<path d="M72.3622 0H76.159L78.988 0.149194L81.8169 0.372984L84.7948 0.745968L87.5493 1.19355L90.7505 1.86492L93.7284 2.61089L96.9296 3.58065L99.3119 4.40121L101.769 5.37097L103.704 6.19153L106.31 7.38508L108.246 8.35484L109.883 9.25L111.819 10.369L113.606 11.4879L115.318 12.6069L117.849 14.3972L118.817 15.1431L120.157 16.1875L121.348 17.1573L122.465 18.127L123.209 18.7984L123.805 19.3206L124.698 20.1411L125.443 20.8871L125.592 20.9617V21.1109L125.889 21.2601L126.932 22.3044V22.4536H127.081L127.602 23.0504L128.272 23.7218L128.793 24.3185L129.612 25.2137L130.282 26.0343L131.25 27.1532L132.217 28.4214L133.111 29.5403L134.079 30.8831L134.972 32.1512L135.716 33.2702L136.907 35.1351L137.801 36.627L138.992 38.7157L140.332 41.3266L141.3 43.3407L142.417 45.877L143.161 47.8165L143.757 49.3831L144.799 52.5907L145.618 55.5746L146.362 58.7077L146.958 61.9153L147.404 65.123L147.702 68.1068L147.851 70.3448L147.926 73.0302V74.8206L147.851 77.506L147.702 79.8931L147.404 82.877L146.883 86.5323L146.288 89.5907L145.618 92.4254L144.873 95.1109L143.98 97.9456L142.938 100.78L142.119 102.794L141.3 104.659L140.406 106.524L139.066 109.21L138.099 110.925L136.759 113.163L135.567 115.028L134.897 115.998L133.855 117.49L133.111 118.46L132.217 119.653L131.547 120.474L130.505 121.742L129.612 122.786L128.867 123.607L128.346 124.204L127.825 124.726L127.304 125.323L124.773 127.859L124.177 128.381L123.06 129.425L122.241 130.097L121.497 130.768L120.678 131.44L119.636 132.26L118.296 133.304L117.254 134.05L115.765 135.095L114.648 135.841L113.233 136.736L112.266 137.333L111 138.079L109.288 139.048L107.129 140.167L104.672 141.361L101.918 142.554L99.163 143.599L96.1107 144.643L92.6862 145.613L89.5594 146.359L86.4326 146.956L82.7848 147.478L80.6258 147.702L77.3501 147.925H70.5755L67.4487 147.702L64.6942 147.403L62.0886 147.03L59.6318 146.583L56.5795 145.911L53.5272 145.091L51.3683 144.419L48.9115 143.599L46.3803 142.629L44.2958 141.734L42.3602 140.839L40.6479 140.018L39.2334 139.272L37.4467 138.302L35.5856 137.183L33.7988 136.065L31.9377 134.796L30.6721 133.901L29.4809 133.006L28.1409 131.962L27.322 131.29L26.3542 130.47L25.5353 129.798L24.493 128.829L23.8974 128.306L23.3763 127.784L22.7807 127.262L20.4729 124.95L19.9518 124.353L19.4306 123.831L18.9095 123.234L18.0161 122.19L17.0483 121.071L16.4528 120.325L15.6339 119.28L14.4427 117.714L13.5493 116.446L12.7304 115.252L11.6137 113.536L10.7948 112.194L9.82701 110.552L8.63586 108.389L7.29582 105.704L6.10468 103.018L5.13687 100.631L4.31796 98.3931L3.4246 95.7077L2.53124 92.5L1.86122 89.6653L1.34009 87.0544L0.893409 84.2198L0.521175 81.0867L0.297835 78.1774L0.223389 76.6109V71.3145L0.372282 68.629L0.595622 66.0927L0.967855 63.1835L1.48898 60.125L2.08456 57.2903L2.75458 54.6048L3.57349 51.8448L4.46685 49.1593L5.21132 47.1452L6.25357 44.6089L7.37027 42.1472L7.96584 40.879L8.71031 39.4617L9.75256 37.5222L10.7204 35.881L11.8371 34.0907L13.1771 32.0766L13.996 30.8831L15.5594 28.7944L16.155 28.0484L17.1228 26.8548L17.7928 26.0343L18.7606 24.9153L19.2817 24.3185L19.8773 23.7218L20.3984 23.125L20.9196 22.6028L21.4407 22.006L22.7807 20.6633L23.3763 20.1411L23.8974 19.6189L24.493 19.0968L25.3864 18.2762L26.2053 17.6048L27.2475 16.7097L27.992 16.1129L29.332 15.0685L30.7465 14.0242L32.0121 13.129L34.2455 11.6371L35.66 10.7419L37.819 9.47379L39.6057 8.50403L41.6157 7.45968L44.6681 6.04234L47.4226 4.92339L50.1027 3.95363L52.8572 3.05847L55.5373 2.3125L58.3662 1.64113L61.0463 1.11895L63.8008 0.671371L66.1831 0.372984L68.9377 0.149194L72.3622 0Z" fill="#010101"/>
<path d="M120.901 31.4798H121.869L122.614 31.7782L123.358 32.4496L124.326 33.6431L125.145 34.6875L126.038 35.881L127.006 37.2238L128.346 39.2379L129.314 40.8044L130.431 42.7439L131.771 45.2802L132.738 47.2944L133.632 49.3831L134.674 52.0685L135.567 54.754L136.163 56.7681L136.833 59.379L137.429 62.2137L137.95 65.496L138.248 68.1814L138.471 70.9415L138.545 73.0302V74.5968L138.471 76.8347L138.173 80.4899L137.801 83.4738L137.28 86.5323L136.61 89.5161L136.014 91.754L135.419 93.6935L134.6 96.1552L133.632 98.6169L132.962 100.183L131.994 102.272L131.101 104.062L130.207 105.704L129.091 107.569L127.974 109.359L127.006 110.776L126.038 112.119L125.368 113.014L124.773 113.76L124.252 114.431L123.433 115.401L122.763 116.222L121.795 117.266L121.274 117.863L120.678 118.46L120.157 119.056L118.668 120.548L118.072 121.071L117.402 121.742L116.584 122.413L115.69 123.234L114.871 123.905L113.68 124.875L112.489 125.77L111.149 126.74L108.469 128.53L107.129 129.351L105.714 130.171L103.928 131.141L102.364 131.962L99.9075 133.081L97.9719 133.901L95.3662 134.871L92.6117 135.766L89.9316 136.512L86.9538 137.183L84.5715 137.631L81.8914 138.004L78.988 138.302L76.4568 138.452H71.6922L68.3421 138.228L65.662 137.929L62.833 137.482L60.5252 137.034L57.6962 136.363L55.3884 135.692L52.7083 134.796L50.8471 134.125L48.6882 133.23L46.9015 132.409L45.0403 131.514L43.1791 130.544L41.7646 129.724L40.2757 128.829L37.1489 126.74L35.8089 125.77L34.8411 125.024L33.7988 124.204L32.5332 123.159L32.0121 122.562L31.7143 121.891L31.6399 121.071L31.9377 120.175L32.4588 119.504L90.7505 61.0948H90.8994L91.0483 60.7964L92.0161 59.9012L92.5373 59.3044L94.0262 57.8125H94.1751L94.324 57.5141L102.96 48.8609H103.109V48.7117L107.054 44.7581L107.501 44.3851L108.022 43.7883L109.734 42.0726L110.33 41.5504L119.264 32.5988L119.859 32.0766L120.455 31.629L120.901 31.4798Z" fill="#010101"/>
<path d="M72.3622 0H76.159L78.988 0.149194L81.8169 0.372984L84.7948 0.745968L87.5493 1.19355L90.7505 1.86492L93.7284 2.61089L96.9296 3.58065L99.3119 4.40121L101.769 5.37097L103.704 6.19153L106.31 7.38508L108.246 8.35484L109.883 9.25L111.819 10.369L113.606 11.4879L115.318 12.6069L117.849 14.3972L118.817 15.1431L120.157 16.1875L121.348 17.1573L122.465 18.127L123.209 18.7984L123.805 19.3206L124.698 20.1411L125.443 20.8871L125.592 20.9617V21.1109L125.889 21.2601L126.932 22.3044V22.4536H127.081L127.602 23.0504L128.272 23.7218L128.793 24.3185L129.612 25.2137L130.282 26.0343L131.25 27.1532L132.217 28.4214L133.111 29.5403L134.079 30.8831L134.972 32.1512L135.716 33.2702L136.907 35.1351L137.801 36.627L138.992 38.7157L140.332 41.3266L141.3 43.3407L142.417 45.877L143.161 47.8165L143.757 49.3831L144.799 52.5907L145.618 55.5746L146.362 58.7077L146.958 61.9153L147.404 65.123L147.702 68.1068L147.851 70.3448L147.926 73.0302V74.8206L147.851 77.506L147.702 79.8931L147.404 82.877L146.883 86.5323L146.288 89.5907L145.618 92.4254L144.873 95.1109L143.98 97.9456L142.938 100.78L142.119 102.794L141.3 104.659L140.406 106.524L139.066 109.21L138.099 110.925L136.759 113.163L135.567 115.028L134.897 115.998L133.855 117.49L133.111 118.46L132.217 119.653L131.547 120.474L130.505 121.742L129.612 122.786L128.867 123.607L128.346 124.204L127.825 124.726L127.304 125.323L124.773 127.859L124.177 128.381L123.06 129.425L122.241 130.097L121.497 130.768L120.678 131.44L119.636 132.26L118.296 133.304L117.254 134.05L115.765 135.095L114.648 135.841L113.233 136.736L112.266 137.333L111 138.079L109.288 139.048L107.129 140.167L104.672 141.361L101.918 142.554L99.163 143.599L96.1107 144.643L92.6862 145.613L89.5594 146.359L86.4326 146.956L82.7848 147.478L80.6258 147.702L77.3501 147.925H70.5755L67.4487 147.702L64.6942 147.403L62.0886 147.03L59.6318 146.583L56.5795 145.911L53.5272 145.091L51.3683 144.419L48.9115 143.599L46.3803 142.629L44.2958 141.734L42.3602 140.839L40.6479 140.018L39.2334 139.272L37.4467 138.302L35.5856 137.183L33.7988 136.065L31.9377 134.796L30.6721 133.901L29.4809 133.006L28.1409 131.962L27.322 131.29L26.3542 130.47L25.5353 129.798L24.493 128.829L23.8974 128.306L23.3763 127.784L22.7807 127.262L20.4729 124.95L19.9518 124.353L19.4306 123.831L18.9095 123.234L18.0161 122.19L17.0483 121.071L16.4528 120.325L15.6339 119.28L14.4427 117.714L13.5493 116.446L12.7304 115.252L11.6137 113.536L10.7948 112.194L9.82701 110.552L8.63586 108.389L7.29582 105.704L6.10468 103.018L5.13687 100.631L4.31796 98.3931L3.4246 95.7077L2.53124 92.5L1.86122 89.6653L1.34009 87.0544L0.893409 84.2198L0.521175 81.0867L0.297835 78.1774L0.223389 76.6109V71.3145L0.372282 68.629L0.595622 66.0927L0.967855 63.1835L1.48898 60.125L2.08456 57.2903L2.75458 54.6048L3.57349 51.8448L4.46685 49.1593L5.21132 47.1452L6.25357 44.6089L7.37027 42.1472L7.96584 40.879L8.71031 39.4617L9.75256 37.5222L10.7204 35.881L11.8371 34.0907L13.1771 32.0766L13.996 30.8831L15.5594 28.7944L16.155 28.0484L17.1228 26.8548L17.7928 26.0343L18.7606 24.9153L19.2817 24.3185L19.8773 23.7218L20.3984 23.125L20.9196 22.6028L21.4407 22.006L22.7807 20.6633L23.3763 20.1411L23.8974 19.6189L24.493 19.0968L25.3864 18.2762L26.2053 17.6048L27.2475 16.7097L27.992 16.1129L29.332 15.0685L30.7465 14.0242L32.0121 13.129L34.2455 11.6371L35.66 10.7419L37.819 9.47379L39.6057 8.50403L41.6157 7.45968L44.6681 6.04234L47.4226 4.92339L50.1027 3.95363L52.8572 3.05847L55.5373 2.3125L58.3662 1.64113L61.0463 1.11895L63.8008 0.671371L66.1831 0.372984L68.9377 0.149194L72.3622 0ZM71.6178 9.54839L68.1188 9.77218L64.9175 10.1452L61.4186 10.7419L58.7385 11.3387L55.984 12.0847L53.155 12.9798L50.9216 13.8004L48.9115 14.621L47.4226 15.2923L45.487 16.1875L44.0725 16.9335L42.2858 17.9032L39.6801 19.4698L37.6701 20.8125L36.33 21.7823L35.2878 22.5282L34.0966 23.498L33.0544 24.3185L32.0121 25.2137L31.1932 25.9597L30.5976 26.4819L29.8532 27.1532L28.8109 28.1976L28.5131 28.4214V28.5706L28.2898 28.6452L27.7687 29.2419L26.8009 30.2117L26.2797 30.8085L25.6097 31.5544L24.9397 32.375L24.0463 33.4194L23.0785 34.6875L22.2596 35.7319L21.2918 37.0746L20.2495 38.6411L19.2817 40.1331L18.6117 41.252L17.4206 43.3407L16.6761 44.7581L15.8572 46.4738L14.9638 48.4133L13.9216 51.0242L13.1027 53.2621L12.1349 56.3952L11.2415 59.9758L10.7204 62.5121L10.1992 66.0181L9.90146 69.1512L9.75256 71.6129V76.6855L9.9759 79.9677L10.3481 83.1008L10.7948 85.8609L11.2415 88.0988L11.986 91.0827L12.8793 93.9919L13.5493 95.9314L14.2938 97.871L15.1127 99.8105L15.9316 101.601L16.825 103.466L17.7184 105.107L18.4628 106.45L19.7284 108.538L21.5896 111.298L23.3763 113.685L24.4186 114.954L25.0141 115.7L25.6842 116.296L26.4286 116.52H27.2475L28.1409 116.147L29.0343 115.327L115.988 28.1976L116.36 27.6008L116.509 27.0786V26.2581L116.286 25.6613L115.839 24.9899L115.095 24.3185L114.35 23.7218L113.308 22.9012L110.479 20.8125L107.948 19.1714L105.789 17.9032L104.002 16.9335L101.992 15.8891L99.5353 14.7702L97.153 13.8004L94.2495 12.756L91.0483 11.7863L88.3683 11.1149L85.9115 10.5927L83.6037 10.2198L81.2958 9.92137L78.988 9.69758L76.5312 9.54839H71.6178ZM120.827 31.4798L120.231 31.7036L119.487 32.375L118.594 33.1956L109.809 41.998L109.213 42.5202L107.799 43.9375L107.278 44.5343L106.384 45.3548L103.034 48.7117V48.8609L102.736 49.0101L94.1006 57.6633V57.8125L93.8029 57.9617L92.0161 59.752L91.5695 60.2742L90.9739 60.7964L90.825 61.0948L90.5272 61.2439L32.161 119.728L31.7888 120.325L31.5654 121.071L31.6399 121.891L32.0866 122.786L32.6821 123.383L33.7244 124.204L34.8411 125.099L36.0322 125.994L37.3723 126.964L40.2013 128.829L41.8391 129.798L43.5514 130.768L46.0081 132.036L48.2415 133.081L51.1449 134.274L54.3461 135.393L56.8029 136.139L59.7807 136.885L62.3119 137.407L64.992 137.855L67.3743 138.153L70.2033 138.377L71.6178 138.452H76.3823L78.9135 138.302L81.8169 138.004L84.9437 137.556L88.2938 136.885L91.2717 136.139L93.9518 135.319L96.5574 134.423L98.7908 133.528L100.652 132.708L102.885 131.663L104.3 130.917L106.087 129.948L107.203 129.276L108.99 128.157L110.851 126.889L111.893 126.143L113.085 125.248L114.425 124.204L115.392 123.383L116.435 122.488L117.179 121.817L117.775 121.294L118.445 120.623L119.04 120.101L120.529 118.609L121.05 118.012L121.646 117.415L122.167 116.819L122.912 115.998L123.582 115.177L124.4 114.208L124.996 113.387L125.815 112.343L126.708 111.075L127.453 110.03L128.272 108.762L129.239 107.196L130.282 105.405L131.398 103.317L132.292 101.526L133.408 98.9899L134.302 96.752L135.121 94.4395L135.791 92.2762L136.535 89.5161L137.205 86.5323L137.801 83.0262L138.099 80.4899L138.396 76.8347L138.471 74.5968V73.0302L138.396 70.9415L138.099 67.3609L137.801 64.8992L137.205 61.3931L136.535 58.4839L135.716 55.4254L134.897 52.9637L134.376 51.4718L133.557 49.3831L132.813 47.6673L131.771 45.4294L130.58 43.1169L129.537 41.3266L128.793 40.0585L127.378 37.8952L126.336 36.4032L125.294 34.9859L124.475 33.9415L123.433 32.6734L122.912 32.0766L122.241 31.629L121.795 31.4798H120.827Z" fill="#FF4800"/>
<path d="M71.6178 14.3226H76.829L79.0624 14.4718L81.9658 14.7702L84.7948 15.2177L87.4005 15.7399L89.7827 16.3367L91.7928 16.9335L94.4729 17.8286L96.4085 18.5746L98.493 19.4698L100.429 20.3649L102.439 21.4093L104.151 22.379L106.235 23.6472L108.618 25.2883L110.032 26.3327L110.553 26.7056L110.628 26.9294L98.0463 39.5363L97.9719 39.4617L97.823 37L97.5252 35.5081L97.0785 34.3145L96.4085 33.0464L95.8129 32.2258L95.1429 31.4798L94.2495 30.6593L93.0584 29.9133L92.0161 29.3911L90.6761 28.9435L89.1127 28.7198H87.6982L86.2838 28.9435L85.0182 29.3165L83.7526 29.9133H83.6037L83.3803 28.9435L82.9336 27.4516L82.3381 26.2581L81.8169 25.4375L81.2214 24.6915L80.8491 24.3185V24.1694L80.5514 24.0202L79.8813 23.4234L78.5413 22.6028L77.3501 22.0806L76.0846 21.7077L75.0423 21.5585H73.2556L71.9155 21.7823L70.8733 22.0806L69.9055 22.5282L69.0866 22.9758L68.0443 23.7218L66.8532 24.9153L66.1831 25.8851L65.5131 27.0786L65.0664 28.2722L64.6942 29.9133L64.322 29.8387L63.4286 29.3911L62.3119 29.0181L61.1952 28.7944L60.5252 28.7198H59.1852L58.0685 28.8689L56.8773 29.1673L55.7606 29.6149L54.9417 30.0625L53.8994 30.8085L53.0061 31.629L52.3361 32.375L51.5916 33.5685L50.996 34.8367L50.6238 36.0302L50.4005 37.9698L50.326 71.9113H50.1771L49.5071 71.0161L48.5393 69.8226L47.9437 69.0766L47.1248 68.1814L46.3803 67.4355L45.1892 66.5403L43.998 65.8689L42.8813 65.3468L41.5413 64.8992L40.499 64.6754L39.2334 64.5262H37.4467L35.8833 64.75L34.2455 65.1976L32.6821 65.8689L30.2998 67.0625L29.4809 67.6593L29.0343 68.5544L28.9598 68.8528V69.4496L29.332 70.7177L30.4487 73.5524L31.6399 76.6109L33.1288 80.4153L34.32 83.4738L35.8089 87.2782L39.5312 96.8266L39.829 97.5726L39.7546 97.9456L38.2656 99.4375L37.819 99.9597L37.3723 100.333L36.9256 100.855L36.33 101.377L36.0322 101.75H35.8833L35.7345 102.048H35.5856L35.4367 102.347L34.8411 102.869L34.5433 103.242L33.9477 103.764L33.6499 104.137H33.5011L33.3522 104.435H33.2033L33.0544 104.734H32.9055L32.7566 105.032L32.161 105.554L31.4165 106.3L30.9699 106.823L30.5232 107.196L30.0765 107.718L29.4809 108.24L27.1731 110.552L26.9497 110.478L25.9819 109.135L25.163 108.016L24.2697 106.673L23.4508 105.405L22.4829 103.764L21.7385 102.421L20.8451 100.78L20.0262 99.0645L19.2073 97.1996L18.3884 95.1109L17.7184 93.246L16.8994 90.7097L16.0805 87.5766L15.485 84.6673L15.0383 81.7581L14.7405 79.0726L14.5916 76.7601V71.2399L14.8149 68.1068L15.1872 65.123L15.7083 62.1391L16.3039 59.5282L17.0483 56.7681L17.9417 54.0827L18.6117 52.2177L19.9518 49.0847L21.1429 46.623L22.0363 44.9073L22.6318 43.9375L23.3763 42.6694L24.2697 41.252L25.3864 39.6109L26.2797 38.4173L26.8753 37.5968L27.6942 36.5524L28.5131 35.5827L29.1831 34.7621L30.0021 33.8669L30.5232 33.2702L31.6399 32.1512L32.161 31.5544L32.7566 31.0323L33.7988 29.9879H33.9477V29.8387L34.5433 29.3165L35.5856 28.4214L36.5534 27.6008L37.5212 26.8548L38.5634 26.0343L39.829 25.1391L41.0202 24.3185L42.7324 23.1996L44.3703 22.2298L45.5614 21.5585L47.2737 20.6633L48.4648 20.0665L49.8793 19.3952L52.5594 18.2762L55.3139 17.3064L57.6962 16.5605L60.2274 15.8891L63.0564 15.2923L65.8109 14.8448L67.5232 14.621L70.1288 14.3972L71.6178 14.3226Z" fill="#F7F7F7"/>
<path d="M72.3622 0H76.159L78.988 0.149194L81.8169 0.372984L84.7948 0.745968L87.5493 1.19355L90.7505 1.86492L93.7284 2.61089L96.9296 3.58065L99.3119 4.40121L101.769 5.37097L103.704 6.19153L106.31 7.38508L108.246 8.35484L109.883 9.25L111.819 10.369L113.606 11.4879L115.318 12.6069L117.849 14.3972L118.817 15.1431L120.157 16.1875L121.348 17.1573L122.465 18.127L123.209 18.7984L123.805 19.3206L124.698 20.1411L125.443 20.8871L125.592 20.9617V21.1109L125.889 21.2601L126.932 22.3044V22.4536H127.081L127.602 23.0504L128.272 23.7218L128.793 24.3185L129.612 25.2137L130.282 26.0343L131.25 27.1532L132.217 28.4214L133.111 29.5403L134.079 30.8831L134.972 32.1512L135.716 33.2702L136.907 35.1351L137.801 36.627L138.992 38.7157L140.332 41.3266L141.3 43.3407L142.417 45.877L143.161 47.8165L143.757 49.3831L144.799 52.5907L145.618 55.5746L146.362 58.7077L146.958 61.9153L147.404 65.123L147.702 68.1068L147.851 70.3448L147.926 73.0302V74.8206L147.851 77.506L147.702 79.8931L147.404 82.877L146.883 86.5323L146.288 89.5907L145.618 92.4254L144.873 95.1109L143.98 97.9456L142.938 100.78L142.119 102.794L141.3 104.659L140.406 106.524L139.066 109.21L138.099 110.925L136.759 113.163L135.567 115.028L134.897 115.998L133.855 117.49L133.111 118.46L132.217 119.653L131.547 120.474L130.505 121.742L129.612 122.786L128.867 123.607L128.346 124.204L127.825 124.726L127.304 125.323L124.773 127.859L124.177 128.381L123.06 129.425L122.241 130.097L121.497 130.768L120.678 131.44L119.636 132.26L118.296 133.304L117.254 134.05L115.765 135.095L114.648 135.841L113.233 136.736L112.266 137.333L111 138.079L109.288 139.048L107.129 140.167L104.672 141.361L101.918 142.554L99.163 143.599L96.1107 144.643L92.6862 145.613L89.5594 146.359L86.4326 146.956L82.7848 147.478L80.6258 147.702L77.3501 147.925H70.5755L67.4487 147.702L64.6942 147.403L62.0886 147.03L59.6318 146.583L56.5795 145.911L53.5272 145.091L51.3683 144.419L48.9115 143.599L46.3803 142.629L44.2958 141.734L42.3602 140.839L40.6479 140.018L39.2334 139.272L37.4467 138.302L35.5856 137.183L33.7988 136.065L31.9377 134.796L30.6721 133.901L29.4809 133.006L28.1409 131.962L27.322 131.29L26.3542 130.47L25.5353 129.798L24.493 128.829L23.8974 128.306L23.3763 127.784L22.7807 127.262L20.4729 124.95L19.9518 124.353L19.4306 123.831L18.9095 123.234L18.0161 122.19L17.0483 121.071L16.4528 120.325L15.6339 119.28L14.4427 117.714L13.5493 116.446L12.7304 115.252L11.6137 113.536L10.7948 112.194L9.82701 110.552L8.63586 108.389L7.29582 105.704L6.10468 103.018L5.13687 100.631L4.31796 98.3931L3.4246 95.7077L2.53124 92.5L1.86122 89.6653L1.34009 87.0544L0.893409 84.2198L0.521175 81.0867L0.297835 78.1774L0.223389 76.6109V71.3145L0.372282 68.629L0.595622 66.0927L0.967855 63.1835L1.48898 60.125L2.08456 57.2903L2.75458 54.6048L3.57349 51.8448L4.46685 49.1593L5.21132 47.1452L6.25357 44.6089L7.37027 42.1472L7.96584 40.879L8.71031 39.4617L9.75256 37.5222L10.7204 35.881L11.8371 34.0907L13.1771 32.0766L13.996 30.8831L15.5594 28.7944L16.155 28.0484L17.1228 26.8548L17.7928 26.0343L18.7606 24.9153L19.2817 24.3185L19.8773 23.7218L20.3984 23.125L20.9196 22.6028L21.4407 22.006L22.7807 20.6633L23.3763 20.1411L23.8974 19.6189L24.493 19.0968L25.3864 18.2762L26.2053 17.6048L27.2475 16.7097L27.992 16.1129L29.332 15.0685L30.7465 14.0242L32.0121 13.129L34.2455 11.6371L35.66 10.7419L37.819 9.47379L39.6057 8.50403L41.6157 7.45968L44.6681 6.04234L47.4226 4.92339L50.1027 3.95363L52.8572 3.05847L55.5373 2.3125L58.3662 1.64113L61.0463 1.11895L63.8008 0.671371L66.1831 0.372984L68.9377 0.149194L72.3622 0ZM70.7244 4.84879L67.4487 5.07258L64.2475 5.44556L61.493 5.89314L58.5896 6.48992L55.3139 7.31048L53.0805 7.98185L50.4749 8.87702L48.9115 9.47379L47.2737 10.1452L45.7103 10.8165L44.2214 11.4879L42.9558 12.1593L41.7646 12.756L39.6801 13.875L37.5956 15.1431L36.4045 15.8891L34.32 17.3064L32.9055 18.3508L32.0121 19.0222L31.0443 19.7681L30.0765 20.5887L29.0343 21.4093L27.8431 22.5282L27.2475 23.0504L26.5031 23.7218L23.3763 26.8548L22.8552 27.4516L22.1852 28.1976L21.664 28.7944L20.7707 29.8387L20.2495 30.5101L19.4306 31.5544L18.6862 32.5242L17.7184 33.8669L17.0483 34.8367L16.0061 36.4032L15.1127 37.8206L14.1449 39.4617L13.1771 41.252L12.4326 42.6694L11.3159 44.9819L10.497 46.8468L9.60367 49.0847L8.63586 51.6956L7.7425 54.5302L7.07248 57.0665L6.47691 59.6774L5.95578 62.4375L5.5091 65.4214L5.21132 68.4052L5.06242 70.5685L4.98798 72.881V75.1189L5.06242 77.5806L5.36021 81.2359L5.73244 84.2943L6.32802 87.6512L6.92359 90.3367L7.81695 93.6935L8.48697 95.7822L9.0081 97.3488L10.1248 100.258L11.0926 102.496L11.6882 103.839L12.2838 105.032L13.326 107.046L14.2938 108.762L15.1872 110.254L16.2294 111.895L17.3461 113.536L18.2395 114.804L18.9095 115.7L19.7284 116.744L20.4729 117.714L21.3662 118.758L22.0363 119.579L23.2274 120.847L24.0463 121.742L24.9397 122.637L25.0886 122.861H25.2375L25.3864 123.159L25.9075 123.681L26.5031 124.204L27.1731 124.875L27.7687 125.397L28.662 126.218L29.4809 126.889L30.4487 127.71L31.491 128.53L32.831 129.575L34.1711 130.544L37.0745 132.484L38.4145 133.304L40.5735 134.573L43.1047 135.915L45.1147 136.885L47.8693 138.079L50.1771 138.974L53.6761 140.167L56.8773 141.062L60.0785 141.808L63.9497 142.48L66.1831 142.778L69.3099 143.077L70.5755 143.151L74.6701 143.226L77.4246 143.151L80.4769 142.927L84.1248 142.48L87.1771 141.958L90.2294 141.286L92.8351 140.615L95.5151 139.794L97.8974 138.974L100.205 138.079L102.439 137.109L104.672 136.065L106.087 135.319L107.278 134.722L109.362 133.528L111.298 132.335L112.191 131.738L113.829 130.619L115.169 129.649L116.509 128.605L117.775 127.635L118.594 126.889L119.413 126.218L120.306 125.397L120.901 124.875L121.571 124.204L122.167 123.681L123.954 121.891L124.475 121.294L125.145 120.623V120.474H125.294L125.815 119.877L126.708 118.833L127.527 117.863L128.272 116.893L129.239 115.7L129.984 114.655L130.877 113.387L131.398 112.641L132.068 111.597L133.111 109.956L133.93 108.538L134.897 106.823L135.94 104.808L136.982 102.645L137.95 100.407L139.066 97.498L139.96 94.8871L140.853 91.754L141.523 88.9939L142.044 86.3831L142.491 83.623L142.863 80.4899L143.087 77.506L143.161 76.0887V72.5081L143.012 69.5988L142.714 66.0927L142.342 63.3327L141.97 61.1693L141.374 58.3347L140.63 55.3508L139.736 52.4415L139.066 50.4274L138.099 47.8911L137.205 45.8024L136.163 43.5645L135.27 41.7742L134.302 40.0585L133.557 38.7157L132.366 36.7762L131.026 34.7621L130.133 33.4939L129.091 32.0766L128.272 31.0323L127.304 29.8387L126.336 28.7198L125.666 27.8992L124.922 27.1532L124.4 26.5564L123.284 25.3629L122.093 24.1694L121.497 23.6472L120.976 23.125L120.38 22.6028L119.487 21.7823L118.891 21.2601L118.072 20.5887L116.881 19.6189L115.616 18.6492L114.425 17.754L113.01 16.7843L111.447 15.7399L109.883 14.7702L108.097 13.7258L106.459 12.8306L104.449 11.7863L102.215 10.7419L100.131 9.84677L97.3763 8.80242L94.6962 7.90726L92.4628 7.23589L89.1872 6.41532L86.2093 5.81855L83.3059 5.37097L80.6258 5.07258L77.499 4.84879H70.7244Z" fill="#010101"/>
<path d="M121.05 37.4476L121.348 37.5222L122.39 38.9395L123.135 39.9839L124.326 41.7742L125.294 43.3407L126.187 44.9073L127.081 46.5484L128.048 48.4879L129.016 50.6512L129.91 52.8891L130.58 54.754L131.324 57.1411L131.994 59.6774L132.59 62.3629L132.962 64.377L133.334 67.0625L133.557 69.3004L133.706 72.2097V75.9395L133.557 78.7742L133.26 81.6089L132.738 84.9657L132.068 88.0988L131.324 90.8589L130.58 93.246L129.761 95.4839L128.718 98.0202L127.751 100.109L126.708 102.198L125.815 103.764L124.847 105.405L124.028 106.673L123.284 107.792L122.763 108.538L121.72 109.956L120.678 111.298L120.008 112.119L118.221 114.208L117.477 114.954L116.956 115.55L115.169 117.341L114.573 117.863L114.052 118.385L113.233 119.056L112.415 119.802L110.33 121.444L109.139 122.339L107.65 123.383L105.938 124.502L104.077 125.621L102.215 126.665L100.056 127.784L98.2697 128.605L95.9618 129.575L93.2817 130.544L91.1972 131.216L89.0383 131.812L86.5071 132.409L83.6037 132.931L80.9236 133.304L78.6157 133.528L75.7868 133.677H72.4367L69.4588 133.528L66.1087 133.155L64.1731 132.857L61.4186 132.335L57.8451 131.44L54.7928 130.47L52.5594 129.649L50.0282 128.605L47.497 127.411L45.487 126.367L43.7002 125.323L42.2113 124.427L41.0946 123.681L39.6801 122.712L38.2656 121.667L37.6701 121.22L37.7445 120.921L46.6781 111.97L46.9759 112.044L47.7204 113.014L48.6137 114.058L49.1349 114.655L50.1771 115.774L50.7727 116.371L51.3683 116.893L52.2616 117.714L53.3039 118.534L54.4206 119.429L56.654 120.921L58.4407 121.966L60.153 122.861L62.0141 123.681L64.1731 124.502L66.332 125.173L68.5654 125.696L71.2455 126.143L73.5534 126.367L75.3401 126.442H76.5312L79.2113 126.292L81.5936 125.994L84.2737 125.472L86.7304 124.8L89.0383 123.98L90.9739 123.159L92.2395 122.562L93.8773 121.667L95.1429 120.921L96.7063 119.877L97.823 119.056L98.8652 118.236L99.833 117.415L100.726 116.595L101.843 115.55L102.736 114.581L103.406 113.835L104.077 113.014L105.044 111.821L105.863 110.627L106.682 109.359L107.576 107.867L108.469 106.151L109.213 104.585L110.107 102.272L110.777 100.183L111.372 97.7964L111.745 95.7822L112.042 93.3206L112.117 92.2762L112.191 89.8891V47.3689L112.117 46.4738L112.638 45.877L121.05 37.4476Z" fill="#F7F7F7"/>
<path d="M107.352 51.1734L107.501 51.248V90.6351L107.352 93.3206L107.054 95.5585L106.459 98.2439L105.789 100.482L104.821 102.944L103.928 104.808L103.183 106.151L102.29 107.569L101.471 108.762L100.429 110.105L99.5353 111.149L98.3441 112.417L97.3763 113.387L96.7807 113.909L95.8129 114.73L94.324 115.849L92.7606 116.893L91.1228 117.863L89.8572 118.534L87.4749 119.579L84.7948 120.474L82.4125 121.071L80.7747 121.369L79.1369 121.593L76.7546 121.742H75.2656L72.5856 121.593L70.1288 121.22L68.1188 120.772L65.8109 120.101L63.8753 119.355L62.3864 118.683L60.4508 117.714L58.9618 116.819L58.0685 116.222L56.7284 115.252L55.9095 114.581L54.8672 113.685L54.3461 113.163L53.7505 112.641L52.8572 111.746L52.3361 111.149L51.666 110.403L50.8471 109.359L50.2516 108.464L50.4005 108.24H50.5493L50.6982 107.942L66.7043 91.9032L67.0021 91.9778L68.491 93.4697L69.3099 94.5887L69.9055 95.5585L70.5011 96.6774L71.0222 98.0202L71.4689 99.6613L71.6922 101.153L71.7666 102.272V105.032H76.5312L76.4568 101.601L76.2334 99.5121L75.8612 97.7218L75.1912 95.7077L74.3723 93.9173L73.6278 92.5746L72.8089 91.381L71.8411 90.1875L71.1711 89.4415L70.2777 88.5464L70.3522 88.248L92.9095 65.6452L92.9839 65.496L93.2073 65.5706V69.2258L97.9719 69.1512V60.6472L98.493 60.0504L105.044 53.4859H105.193L105.342 53.1875L105.863 52.7399L106.235 52.3669L106.831 51.6956L107.352 51.1734Z" fill="#EFB99F"/>
<path d="M59.1852 33.4194H60.5252L61.4186 33.6431L62.4608 34.1653L63.2797 34.8367L63.8753 35.5827L64.3964 36.627L64.6198 37.5968V69.2258H68.2677V69.4496L67.6721 69.9718L66.332 71.3145L66.1087 71.6129H65.9598L65.8109 71.9113H65.662L65.5131 72.2097H65.3642L65.2153 72.5081H65.0664L64.9175 72.8064H64.7687L64.6198 73.1048H64.4709L64.322 73.4032H64.1731L64.0242 73.7016L62.2375 75.4919H62.0886L61.9397 75.7903L60.7485 76.9839H60.5996L60.4508 77.2823L59.8552 77.879H59.7063L59.5574 78.1774H59.4085L59.2596 78.4758H59.1107L58.9618 78.7742H58.8129L58.664 79.0726H58.5151L58.3662 79.371H58.2174L58.0685 79.6693H57.9196L57.7707 79.9677L57.2495 80.4153L56.9518 80.7137L56.5795 80.3407L55.0906 78.1028V37.5222L55.3139 36.627L55.9095 35.4335L56.5795 34.6875L57.1751 34.1653L58.2174 33.6431L59.1852 33.4194Z" fill="#EFB99F"/>
<path d="M73.4789 26.2581H74.819L75.7123 26.4819L76.7546 27.004L77.499 27.6008L78.0202 28.1976L78.5413 29.0927L78.8391 29.9879L78.9135 30.4355V58.7077L77.7968 59.8266L77.7224 59.9758H77.5735L77.4246 60.2742H77.2757L77.1268 60.5726H76.9779L76.829 60.871L75.3401 62.3629H75.1912L75.0423 62.6613H74.8934L74.7445 62.9597H74.5956L74.4467 63.2581H74.2978L74.1489 63.5564H74L73.8512 63.8548H73.7023L73.5534 64.1532H73.4045L73.2556 64.4516H73.1067V64.6008L72.5111 65.123L69.7566 67.8831L69.5332 68.1814H69.3844L69.3099 59.6774V34.6129L69.3844 30.3609L69.6077 29.4657L70.2033 28.2722L70.8733 27.4516L71.8411 26.7802L72.7345 26.4073L73.4789 26.2581Z" fill="#EFB99F"/>
<path d="M107.352 51.1734L107.501 51.248V90.6351L107.352 93.3206L107.054 95.5585L106.459 98.2439L105.789 100.482L104.821 102.944L103.928 104.808L103.183 106.151L102.29 107.569L101.471 108.762L100.429 110.105L99.5353 111.149L98.3441 112.417L97.3763 113.387L96.7807 113.909L95.8129 114.73L94.324 115.849L92.7606 116.893L91.1228 117.863L89.8572 118.534L87.4749 119.579L84.7948 120.474L82.4125 121.071L80.7747 121.369L79.1369 121.593L76.7546 121.742H75.2656L72.5856 121.593L70.1288 121.22L68.7143 120.921V120.847H69.161L67.3743 120.399L65.9598 119.952L64.6198 119.504L63.7264 119.056L63.3542 118.907L63.2797 118.609L63.3542 118.534H64.0242L65.2898 118.833L66.6298 119.056L68.2677 119.206L69.5332 119.28H72.4367L74.6701 119.131L77.5735 118.683L79.8813 118.161L82.1147 117.49L83.5292 116.968L85.3159 116.222L87.6982 115.028L88.9638 114.282L90.9739 112.94L92.165 112.044L93.1328 111.224L93.9518 110.552L94.5473 109.956L95.1429 109.433L95.8874 108.687L96.5574 107.867L97.3019 107.046L98.2697 105.778L98.8652 104.958L99.9075 103.391L100.875 101.75L101.694 100.183L102.513 98.3185L103.183 96.6028L103.779 94.7379L104.3 92.7984L104.747 90.2621L104.97 88.248L105.044 87.0544L105.119 82.6532V67.5101L105.193 53.7097L105.268 53.5605L104.97 53.7843L104.821 53.7097L105.044 53.4859H105.193L105.342 53.1875L105.863 52.7399L106.235 52.3669L106.831 51.6956L107.352 51.1734Z" fill="#CC8B76"/>
<path d="M37.7445 69.2258H38.8612L40.2757 69.4496L41.4669 69.8972L42.3602 70.3448L43.1791 70.9415L43.9236 71.6129L44.6681 72.4335L45.2636 73.1794L46.0825 74.2238L47.0504 75.4173L47.6459 76.1633L48.4648 77.2077L49.4326 78.4012L50.0282 79.1472L51.1449 80.6391L53.3039 83.9214L53.3783 84.3689L52.6339 85.0403L52.4105 85.3387H52.2616L52.1127 85.6371H51.9638L51.8149 85.9355H51.666L51.5172 86.2339L49.1349 88.621H48.986L48.8371 88.9193L46.157 91.6048H46.0081L45.8592 91.9032H45.7103L45.5614 92.2016H45.4125L45.2636 92.5H45.1147L44.9658 92.7984H44.8169L44.6681 93.0968H44.5192L44.3703 93.3952L43.7747 93.9173L43.7002 94.0665L43.4769 93.9919L42.5835 91.8286L41.318 88.5464L36.4045 75.9395L35.5856 73.8508L34.32 70.6431L34.2455 70.4193L34.8411 70.0464L35.8833 69.5988L37.0745 69.3004L37.7445 69.2258Z" fill="#EFB99F"/>
<path d="M87.7727 33.4194H89.1127L90.0061 33.6431L91.0483 34.1653L91.7928 34.7621L92.3139 35.3589L92.9095 36.4032L93.2073 37.5968V44.3851L92.5373 45.0564L92.3139 45.3548H92.165L92.0161 45.6532H91.8672L91.7184 45.9516H91.5695L91.4206 46.25L89.3361 48.3387H89.1872L89.0383 48.6371H88.8894L88.7405 48.9355L88.1449 49.5323H87.996L87.8471 49.8306L86.9538 50.7258H86.8049L86.656 51.0242L86.2838 51.3226L85.3904 52.2177L85.167 52.5161H85.0182L84.8693 52.8145L84.2737 53.3367L83.827 53.8589H83.6781V37.4476L83.9759 36.4032L84.497 35.4335L85.167 34.6129L86.1349 33.9415L87.0282 33.5685L87.7727 33.4194Z" fill="#EFB89E"/>
<path d="M69.3844 30.3609H69.4588L69.5332 35.2843V68.1814H69.3844L69.3099 59.6774V34.6129L69.3844 30.3609Z" fill="#D18372"/>
<path d="M92.9839 65.496L93.2073 65.5706V69.002H93.1328V65.7198L92.5373 66.2419L70.3522 88.4718V88.248L92.9095 65.6452L92.9839 65.496Z" fill="#DE9E88"/>
<path d="M63.5775 118.907L64.322 119.28L65.4387 119.728L67.5976 120.399L69.161 120.772L69.3844 120.921L68.4165 120.847L66.5554 120.325L64.7687 119.728L63.3542 119.131L63.5775 118.907Z" fill="#E5A58F"/>
<path d="M107.352 51.1734L107.501 51.248L107.427 53.2621L107.352 54.1573L107.203 53.8589L107.129 52.5161L107.203 52.2177L106.682 52.0685L106.608 52.2923H106.459L106.608 51.9939L106.98 51.621L107.352 51.1734Z" fill="#ECB199"/>
<path d="M92.9839 116.446L93.2817 116.52L92.5373 117.042L90.9739 117.937L90.5272 118.161L90.3039 118.087L90.9739 117.714L91.5695 117.341L92.3139 116.968L92.5373 116.893V116.744L92.9839 116.446Z" fill="#E6AD94"/>
<path d="M85.7626 119.952L86.0604 120.026L85.3159 120.325L83.3803 120.847H82.7848L83.0081 120.698L84.8693 120.25L85.7626 119.952Z" fill="#E2A58E"/>
<path d="M94.6218 115.252L94.8451 115.327V115.476L93.5795 116.371L93.3562 116.296L93.654 115.923L93.9518 115.774L94.324 115.625L94.6218 115.252Z" fill="#EAB299"/>
<path d="M96.4085 113.984L96.5574 114.058L95.8129 114.73L95.1429 115.252L94.9196 115.177H95.0685L95.1429 114.954L95.5151 114.73L95.8874 114.282L96.3341 114.058L96.4085 113.984Z" fill="#E4A991"/>
<path d="M63.5775 118.907L64.322 119.28L64.992 119.579V119.653L64.3964 119.579L63.3542 119.131L63.5775 118.907Z" fill="#E7AA92"/>
<path d="M99.6842 110.702L99.7586 110.925L99.0886 111.597L98.6419 112.119H98.493L98.6419 111.821L99.3119 111.075L99.6842 110.702Z" fill="#E2A68E"/>
<path d="M98.2697 112.194H98.4186L98.2697 112.492L97.4508 113.312L97.2274 113.238L97.8974 112.641L98.2697 112.194Z" fill="#E2A990"/>
<path d="M105.64 100.258H105.714L105.64 100.855L105.417 101.452H105.268L105.193 101.601L105.268 101.153L105.64 100.258Z" fill="#E4A48E"/>
<path d="M68.1188 120.548L69.161 120.772L69.3844 120.921L68.4165 120.847L68.1188 120.772V120.548Z" fill="#E9AA93"/>
<path d="M64.992 119.579L65.7365 119.802L65.8109 120.026L65.4387 119.952L64.7687 119.728L64.992 119.579Z" fill="#E4A38D"/>
<path d="M81.9658 120.921H82.4125V121.071L82.0403 121.145H81.2958L81.5936 120.996L81.9658 120.921Z" fill="#E7A58F"/>
<path d="M94.6218 115.252L94.8451 115.327V115.476L94.1006 115.998V115.774L94.5473 115.401L94.6218 115.252Z" fill="#E4AA92"/>
</g>
<defs>
<clipPath id="clip0_11_917">
<rect width="148" height="148" fill="white"/>
</clipPath>
</defs>
</svg>
