<svg width="28" height="28" viewBox="0 0 28 28" fill="none" xmlns="http://www.w3.org/2000/svg">
<path d="M27.8951 10.52C27.6601 9.816 27.0661 9.311 26.3461 9.201L19.0371 8.106L15.7471 1.122C15.4201 0.43 14.7511 0 14.0001 0C13.2491 0 12.5801 0.43 12.2531 1.122L9.01105 8.081L1.65406 9.201C0.934056 9.311 0.341056 9.816 0.105056 10.52C-0.135944 11.243 0.0420556 12.027 0.570056 12.566L5.89106 18.012L4.63406 25.688C4.50906 26.455 4.81906 27.206 5.44506 27.647C6.04706 28.074 6.82106 28.116 7.46506 27.761L13.9541 24.137L20.5351 27.761C21.1811 28.116 21.9531 28.072 22.5551 27.647C23.1811 27.206 23.4921 26.455 23.3661 25.688L22.1071 18.002L27.4301 12.566C27.9581 12.027 28.1361 11.243 27.8951 10.52Z" fill="#FCD503"/>
</svg>
