<svg width="100" height="33" viewBox="0 0 100 33" fill="none" xmlns="http://www.w3.org/2000/svg">
<mask id="mask0_11_736" style="mask-type:luminance" maskUnits="userSpaceOnUse" x="0" y="0" width="100" height="33">
<path d="M51.7176 11.0314C51.6606 15.5296 55.7264 18.0399 58.7893 19.5323C61.9362 21.0638 62.9932 22.0457 62.9812 23.415C62.9572 25.511 60.4708 26.4358 58.1436 26.4719C54.0838 26.5349 51.7236 25.3758 49.8468 24.499L48.3845 31.3424C50.2672 32.2103 53.7535 32.967 57.3689 33C65.8549 33 71.4071 28.8111 71.4371 22.316C71.4702 14.0732 60.0354 13.6168 60.1135 9.93232C60.1405 8.81527 61.2065 7.62315 63.5427 7.31986C64.6988 7.16672 67.8908 7.04961 71.5092 8.71617L72.9295 2.09495C70.9837 1.38629 68.4824 0.707645 65.3684 0.707645C57.3809 0.707645 51.7627 4.95364 51.7176 11.0314ZM86.5774 1.27818C85.0279 1.27818 83.7217 2.18203 83.1391 3.56934L71.0168 32.5135H79.4967L81.1843 27.8502H91.547L92.526 32.5135H100L93.4779 1.27818H86.5774ZM87.7635 9.71611L90.2108 21.4451H83.5085L87.7635 9.71611ZM41.436 1.27818L34.7517 32.5135H42.8323L49.5135 1.27818H41.436ZM29.4817 1.27818L21.0708 22.5382L17.6686 4.46117C17.2692 2.44328 15.6928 1.27818 13.9421 1.27818H0.192197L0 2.18503C2.82265 2.79761 6.02966 3.78554 7.97249 4.84254C9.16161 5.48814 9.50092 6.05267 9.89129 7.58711L16.3354 32.5135H24.8754L37.9677 1.27818H29.4817Z" fill="white"/>
</mask>
<g mask="url(#mask0_11_736)">
<path d="M-10.4718 4.56446L88.0578 -31.7216L110.473 29.1446L11.9443 65.4307" fill="url(#paint0_linear_11_736)"/>
</g>
<defs>
<linearGradient id="paint0_linear_11_736" x1="9.05856" y1="32.0095" x2="93.3373" y2="0.971478" gradientUnits="userSpaceOnUse">
<stop stop-color="#222357"/>
<stop offset="1" stop-color="#254AA5"/>
</linearGradient>
</defs>
</svg>
